<svg width="319" height="410" viewBox="0 0 319 410" fill="none" xmlns="http://www.w3.org/2000/svg">
<g clip-path="url(#clip0_18_1916)" filter="url(#filter0_d_18_1916)">
<path d="M11.6933 3.43652H203.734C207.55 3.43652 210.65 6.55081 210.65 10.3846V142.516C210.65 146.35 207.55 149.464 203.734 149.464H11.6933C7.87751 149.464 4.77783 146.35 4.77783 142.516V10.3846C4.77783 6.55081 7.87751 3.43652 11.6933 3.43652Z" fill="white"/>
<path d="M203.735 149.464C203.735 149.464 203.884 149.443 204.183 149.432C204.483 149.41 204.921 149.367 205.487 149.206C206.588 148.916 208.331 148.132 209.549 146.156C210.158 145.19 210.565 143.923 210.575 142.516C210.575 141.088 210.575 139.53 210.565 137.844C210.565 134.462 210.554 130.564 210.543 126.182C210.522 108.624 210.49 83.2157 210.458 51.8366C210.458 43.9865 210.447 35.7712 210.436 27.2016C210.436 22.9168 210.436 18.546 210.436 14.1001C210.436 12.9833 210.436 11.8664 210.436 10.7496C210.458 9.64349 210.276 8.54812 209.795 7.56014C208.886 5.56271 206.92 4.05926 204.707 3.76931C203.628 3.6297 202.431 3.71562 201.287 3.69414C200.133 3.69414 198.967 3.69414 197.802 3.69414C195.472 3.69414 193.11 3.69414 190.737 3.69414C185.992 3.69414 181.171 3.69414 176.276 3.69414C166.496 3.69414 156.427 3.69414 146.091 3.70488C104.78 3.70488 59.375 3.71562 11.7041 3.72636C8.81817 3.6834 6.08191 5.74527 5.31233 8.52664C4.89548 9.89048 5.08787 11.3939 5.04512 12.8759C5.04512 14.3579 5.04512 15.8398 5.04512 17.3218C5.04512 23.2389 5.04512 29.1131 5.04512 34.9443C5.04512 46.6068 5.04512 58.0974 5.04512 69.3947C5.04512 91.9786 5.03443 113.768 5.02374 134.515C5.02374 137.114 5.02374 139.692 5.02374 142.247C4.92754 144.739 6.2743 147.187 8.4227 148.358C9.48086 148.949 10.6887 149.26 11.9072 149.228C13.1577 149.228 14.3976 149.228 15.6375 149.228C18.1172 149.228 20.5863 149.228 23.0339 149.228C32.814 149.228 42.3161 149.228 51.5082 149.238C69.8819 149.249 86.9835 149.26 102.61 149.271C133.842 149.303 159.121 149.335 176.607 149.357C185.34 149.378 192.116 149.4 196.723 149.41C199.021 149.421 200.763 149.432 201.95 149.443C203.125 149.443 203.735 149.475 203.735 149.475C203.735 149.475 203.136 149.496 201.95 149.507C200.763 149.507 199.01 149.518 196.723 149.539C192.116 149.55 185.34 149.571 176.607 149.593C159.131 149.614 133.853 149.647 102.61 149.679C86.9942 149.679 69.8819 149.7 51.5082 149.711C42.3268 149.711 32.8247 149.711 23.0339 149.722C20.5863 149.722 18.1279 149.722 15.6375 149.722C14.3976 149.722 13.147 149.722 11.9072 149.722C10.6245 149.754 9.30985 149.432 8.17686 148.798C5.86813 147.542 4.41449 144.889 4.52138 142.247C4.52138 139.681 4.52138 137.104 4.52138 134.515C4.52138 113.757 4.52138 91.9786 4.5 69.3947C4.5 58.0974 4.5 46.6068 4.5 34.9443C4.5 29.1131 4.5 23.2389 4.5 17.3218C4.5 15.8398 4.5 14.3579 4.5 12.8759V10.6529C4.5 9.90122 4.55344 9.10654 4.78859 8.3763C5.61161 5.34793 8.58303 3.1035 11.7148 3.15719C59.375 3.15719 104.791 3.16793 146.102 3.17867C156.427 3.17867 166.496 3.17867 176.286 3.18941C181.182 3.18941 186.002 3.18941 190.748 3.18941C193.121 3.18941 195.472 3.18941 197.813 3.18941C198.978 3.18941 200.143 3.18941 201.298 3.18941C202.463 3.22163 203.585 3.12498 204.782 3.27532C207.144 3.59749 209.239 5.20832 210.212 7.33463C210.725 8.38704 210.917 9.57906 210.885 10.7174C210.885 11.845 210.885 12.9618 210.885 14.0679C210.885 18.5246 210.885 22.8846 210.885 27.1694C210.885 35.739 210.875 43.9543 210.864 51.8044C210.832 83.1835 210.8 108.592 210.778 126.15C210.778 130.542 210.757 134.44 210.757 137.812C210.757 139.498 210.757 141.055 210.746 142.484C210.725 143.923 210.297 145.211 209.677 146.189C208.416 148.175 206.653 148.959 205.53 149.238C204.953 149.389 204.504 149.432 204.216 149.443C203.916 149.443 203.767 149.443 203.767 149.443L203.735 149.464Z" fill="#014B5B"/>
<path d="M37.3351 48.9268H32.2046V125.581H37.3351V48.9268Z" fill="#014B5B"/>
<path d="M51.9679 72.1006H46.8374V125.58H51.9679V72.1006Z" fill="#FFA93D"/>
<path d="M66.6002 95.8877H61.4697V125.581H66.6002V95.8877Z" fill="#014B5B"/>
<path d="M81.233 75.3652H76.1025V125.58H81.233V75.3652Z" fill="#014B5B"/>
<path d="M95.8659 56.7656H90.7354V125.581H95.8659V56.7656Z" fill="#FFA93D"/>
<path d="M110.498 108.979H105.368V125.581H110.498V108.979Z" fill="#014B5B"/>
<path d="M125.12 91.1729H119.99V125.58H125.12V91.1729Z" fill="#FFA93D"/>
<path d="M139.753 67.6875H134.623V125.581H139.753V67.6875Z" fill="#014B5B"/>
<path d="M154.385 113.221H149.255V125.581H154.385V113.221Z" fill="#014B5B"/>
<path d="M168.505 55.5312H163.375V125.581H168.505V55.5312Z" fill="#FFA93D"/>
<path d="M183.127 113.221H177.997V125.581H183.127V113.221Z" fill="#014B5B"/>
<path d="M192.416 131.659C192.416 131.809 155.455 131.938 109.868 131.938C64.2813 131.938 27.3096 131.809 27.3096 131.659C27.3096 131.509 64.2706 131.38 109.868 131.38C155.465 131.38 192.416 131.509 192.416 131.659Z" fill="#014B5B"/>
<path d="M36.5229 35.4066C31.5848 35.4066 27.5659 31.3688 27.5659 26.4074C27.5659 21.446 31.5848 17.4082 36.5229 17.4082C41.461 17.4082 45.4799 21.446 45.4799 26.4074C45.4799 31.3688 41.461 35.4066 36.5229 35.4066ZM36.5229 22.3159C34.2783 22.3159 32.4506 24.1522 32.4506 26.4074C32.4506 28.6626 34.2783 30.4989 36.5229 30.4989C38.7675 30.4989 40.5953 28.6626 40.5953 26.4074C40.5953 24.1522 38.7675 22.3159 36.5229 22.3159Z" fill="#FFA93D"/>
<path d="M40.5953 26.4074C40.5953 27.4706 40.1891 28.4478 39.5157 29.178C38.7675 29.9942 37.7094 30.4989 36.5229 30.4989C34.2783 30.4989 32.4506 28.6626 32.4506 26.4074C32.4506 24.1522 34.2783 22.3159 36.5229 22.3159V17.4082C31.5848 17.4082 27.5659 21.446 27.5659 26.4074C27.5659 31.3688 31.5848 35.4066 36.5229 35.4066C38.9278 35.4066 41.1083 34.4508 42.7116 32.9044C44.4111 31.2614 45.4799 28.9525 45.4799 26.4074H40.5953Z" fill="#014B5B"/>
<path d="M126.457 35.4066C121.518 35.4066 117.5 31.3688 117.5 26.4074C117.5 21.446 121.518 17.4082 126.457 17.4082C131.395 17.4082 135.414 21.446 135.414 26.4074C135.414 31.3688 131.395 35.4066 126.457 35.4066ZM126.457 22.3159C124.212 22.3159 122.384 24.1522 122.384 26.4074C122.384 28.6626 124.212 30.4989 126.457 30.4989C128.701 30.4989 130.529 28.6626 130.529 26.4074C130.529 24.1522 128.701 22.3159 126.457 22.3159Z" fill="#014B5B"/>
<path d="M130.529 26.4074C130.529 27.4706 130.123 28.4478 129.449 29.178C128.701 29.9942 127.643 30.4989 126.457 30.4989C124.212 30.4989 122.384 28.6626 122.384 26.4074C122.384 24.1522 124.212 22.3159 126.457 22.3159V17.4082C121.518 17.4082 117.5 21.446 117.5 26.4074C117.5 31.3688 121.518 35.4066 126.457 35.4066C128.861 35.4066 131.042 34.4508 132.645 32.9044C134.345 31.2614 135.414 28.9525 135.414 26.4074H130.529Z" fill="#FFA93D"/>
<path d="M100.761 19.663C100.761 19.8133 91.5582 19.9422 80.2069 19.9422C68.8557 19.9422 59.6528 19.8133 59.6528 19.663C59.6528 19.5127 68.8557 19.3838 80.2069 19.3838C91.5582 19.3838 100.761 19.5127 100.761 19.663Z" fill="#014B5B"/>
<path d="M100.761 24.9892C100.761 25.1395 91.6008 25.2684 80.2923 25.2684C68.9838 25.2684 59.8237 25.1395 59.8237 24.9892C59.8237 24.8388 68.9838 24.71 80.2923 24.71C91.6008 24.71 100.761 24.8388 100.761 24.9892Z" fill="#014B5B"/>
<path d="M80.2924 30.4989C80.2924 30.6493 75.707 30.7781 70.0634 30.7781C64.4199 30.7781 59.8345 30.6493 59.8345 30.4989C59.8345 30.3486 64.4199 30.2197 70.0634 30.2197C75.707 30.2197 80.2924 30.3486 80.2924 30.4989Z" fill="#014B5B"/>
<path d="M185.671 19.663C185.671 19.8133 176.468 19.9422 165.117 19.9422C153.765 19.9422 144.562 19.8133 144.562 19.663C144.562 19.5127 153.765 19.3838 165.117 19.3838C176.468 19.3838 185.671 19.5127 185.671 19.663Z" fill="#FFA93D"/>
<path d="M185.671 24.9892C185.671 25.1395 176.51 25.2684 165.202 25.2684C153.893 25.2684 144.733 25.1395 144.733 24.9892C144.733 24.8388 153.893 24.71 165.202 24.71C176.51 24.71 185.671 24.8388 185.671 24.9892Z" fill="#FFA93D"/>
<path d="M165.213 30.4989C165.213 30.6493 160.627 30.7781 154.984 30.7781C149.34 30.7781 144.755 30.6493 144.755 30.4989C144.755 30.3486 149.34 30.2197 154.984 30.2197C160.627 30.2197 165.213 30.3486 165.213 30.4989Z" fill="#FFA93D"/>
<path d="M130.55 0H84.8779V6.86216H130.55V0Z" fill="#FFA93D"/>
<path d="M297.751 47.8631C293.134 42.3863 286.742 40.9151 279.613 40.5607C274.183 40.2922 268.454 40.8184 263.879 43.7824C257.381 47.9813 254.537 56.8409 256.75 64.2722C258.962 71.7035 265.664 78.0072 273.232 79.5644H273.862C272.708 83.9029 270.1 87.8441 266.551 90.5825C272.462 90.9476 278.234 86.2332 279.1 80.3483C286.753 81.7229 294.566 78.222 299.461 72.1545C304.357 66.0871 304.912 56.3576 297.751 47.8631Z" fill="white"/>
<path d="M297.751 47.8636C297.751 47.8636 297.815 47.9173 297.911 48.0354C298.029 48.175 298.168 48.3468 298.35 48.5723C298.553 48.8193 298.788 49.1093 299.066 49.4529C299.322 49.8288 299.621 50.2583 299.942 50.7523C301.193 52.7175 302.892 55.907 303.234 60.3314C303.384 62.5222 303.191 65.0028 302.272 67.4943C301.855 68.7507 301.193 69.9642 300.434 71.167C299.621 72.3483 298.659 73.4544 297.58 74.5175C295.389 76.6009 292.685 78.4587 289.499 79.6077C286.336 80.7676 282.701 81.2508 279.057 80.6065L279.356 80.3917C278.95 83.1945 277.389 85.9007 275.091 87.8445C272.815 89.7882 269.736 91.0554 266.54 90.8621C266.391 90.8621 266.273 90.7225 266.284 90.5722C266.284 90.4863 266.327 90.4218 266.391 90.3681C269.758 87.7693 272.419 83.9033 273.595 79.5004L273.862 79.8547C273.67 79.8547 273.445 79.8547 273.231 79.8547C273.231 79.8547 273.199 79.8547 273.189 79.8547C272.879 79.7796 272.537 79.6937 272.195 79.6077C266.615 78.115 261.976 74.3672 259.037 69.8246C257.605 67.5265 256.504 65.0458 256.066 62.447C255.595 59.8697 255.692 57.2601 256.247 54.8224C257.305 49.9469 260.234 45.748 264.029 43.4284C267.834 41.0981 272.045 40.4645 275.743 40.3356C279.474 40.2497 282.84 40.5289 285.748 41.0981C288.666 41.6565 291.071 42.6122 292.877 43.6647C294.683 44.7171 295.902 45.8124 296.661 46.6071C297.42 47.4018 297.762 47.8743 297.762 47.8743C297.762 47.8743 297.655 47.7777 297.452 47.5736C297.249 47.3803 296.992 47.0474 296.575 46.6823C295.795 45.9198 294.566 44.8567 292.759 43.8472C290.953 42.8378 288.569 41.925 285.684 41.3987C282.798 40.8725 279.441 40.6148 275.743 40.7329C272.088 40.894 267.951 41.5384 264.253 43.8257C260.587 46.0916 257.744 50.1832 256.728 54.9405C256.194 57.3138 256.108 59.8482 256.568 62.3503C256.996 64.8525 258.075 67.2902 259.475 69.5239C262.34 73.9484 266.893 77.6211 272.312 79.0601C272.644 79.146 272.975 79.2211 273.285 79.2963H273.231C273.445 79.2963 273.659 79.2963 273.862 79.2963C274.012 79.2963 274.14 79.4252 274.14 79.5755C274.14 79.597 274.14 79.6292 274.14 79.6507C272.932 84.1825 270.196 88.1452 266.733 90.8084L266.583 90.3144C269.608 90.497 272.569 89.305 274.76 87.4364C276.972 85.5678 278.469 82.9905 278.864 80.3165C278.886 80.1769 279.014 80.0803 279.153 80.1017C282.701 80.7461 286.239 80.2843 289.339 79.1675C292.46 78.0614 295.122 76.2465 297.291 74.2168C298.349 73.1752 299.322 72.0905 300.113 70.9522C300.861 69.7817 301.524 68.6004 301.941 67.3761C302.86 64.9492 303.063 62.5114 302.946 60.3636C302.657 56.0144 301.032 52.8357 299.825 50.849C299.504 50.355 299.226 49.9254 298.98 49.5388C298.713 49.1845 298.488 48.8838 298.296 48.6368C298.125 48.4005 297.997 48.2179 297.89 48.0783C297.804 47.9495 297.751 47.885 297.762 47.8743L297.751 47.8636Z" fill="#014B5B"/>
<path d="M284.593 56.9808L282.081 54.2638L279.57 51.5469L277.058 54.2638L274.546 56.9808H277.004V70.1467H282.145V56.9808H284.593Z" fill="#FFA93D"/>
<path d="M245.494 108.034L245.676 106.069L245.27 87.5332L243.271 72.1014L228.04 62.1465L216.208 65.6796C216.229 65.4326 216.261 66.7642 215.855 69.8033C215.855 69.8033 214.658 92.4302 217.287 96.7902C219.724 100.839 225.475 101.215 226.757 103.534C228.35 106.423 228.638 113.811 228.638 113.811C228.638 113.811 242.747 114.176 245.505 108.023L245.494 108.034Z" fill="white"/>
<path d="M245.494 108.034C245.494 108.034 245.366 108.463 244.874 109.161C244.372 109.838 243.442 110.74 241.999 111.481C239.124 112.995 234.442 113.994 228.617 114.004C228.521 114.004 228.435 113.929 228.435 113.833C228.361 112.297 228.211 110.686 227.976 109.011C227.719 107.357 227.431 105.574 226.693 103.942C226.362 103.126 225.592 102.61 224.769 102.181C223.946 101.741 223.048 101.365 222.151 100.935C220.376 100.108 218.474 99.0451 217.255 97.2088C217.084 96.994 216.977 96.747 216.86 96.4893C216.753 96.2315 216.614 95.9845 216.55 95.7268C216.421 95.2006 216.24 94.6744 216.154 94.1374C215.94 93.0636 215.812 91.9789 215.695 90.8728C215.492 88.6606 215.385 86.4054 215.331 84.0966C215.246 79.4896 215.331 74.7 215.566 69.7923V69.7709C215.62 69.3521 215.673 68.901 215.727 68.45L215.866 67.0325L215.908 66.3237V65.9693L215.93 65.7975V65.7116V65.6901C215.93 65.6901 215.93 65.6901 215.93 65.7223C215.951 65.7438 215.908 65.819 216.111 65.9156C216.368 65.9586 216.411 65.7975 216.432 65.7975C216.454 65.7653 216.454 65.7438 216.454 65.7438C216.454 65.7438 216.454 65.7116 216.454 65.6901L216.101 65.4001C220.152 64.1866 224.117 63.0054 227.933 61.867C228.008 61.8456 228.093 61.867 228.157 61.8993C233.566 65.4431 238.675 68.8044 243.378 71.8757C243.442 71.9187 243.474 71.9831 243.485 72.0475C244.212 77.7606 244.864 82.9475 245.43 87.4793V87.5008C245.601 96.6181 245.697 103.115 245.708 106.047C245.633 106.702 245.58 107.185 245.537 107.54C245.494 107.862 245.473 108.012 245.462 108.012C245.462 108.012 245.462 107.851 245.473 107.529C245.494 107.174 245.526 106.691 245.58 106.047C245.462 103.126 245.27 96.6289 245.035 87.5223V87.5437C244.436 83.0119 243.752 77.8251 242.993 72.1227L243.1 72.2945C238.397 69.2339 233.277 65.8941 227.858 62.361L228.083 62.3932C224.267 63.5423 220.301 64.7236 216.25 65.9371C216.101 65.98 215.951 65.9049 215.908 65.7545C215.898 65.7223 215.898 65.6794 215.898 65.6471C215.898 65.6149 215.898 65.5934 215.908 65.5612V65.5397L215.94 65.4968C215.951 65.4968 216.005 65.3357 216.261 65.3787C216.464 65.4753 216.432 65.5612 216.454 65.5827V65.6257V65.6901V65.7867V65.9693L216.432 66.3344L216.389 67.0539L216.25 68.4929C216.197 68.9547 216.144 69.4057 216.09 69.8246V69.8031C215.855 74.6893 215.769 79.4681 215.844 84.0643C215.898 86.3625 215.994 88.6069 216.186 90.7976C216.304 91.893 216.432 92.9669 216.635 94.0086C216.721 94.5348 216.892 95.0288 217.009 95.5335C217.073 95.7912 217.202 95.9953 217.298 96.2315C217.394 96.4678 217.49 96.6933 217.651 96.8973C218.773 98.6048 220.579 99.6465 222.332 100.473C223.219 100.903 224.107 101.279 224.962 101.741C225.389 101.966 225.795 102.235 226.191 102.535C226.544 102.857 226.907 103.276 227.078 103.717C227.858 105.456 228.115 107.239 228.371 108.925C228.596 110.622 228.735 112.232 228.799 113.779L228.617 113.596C234.378 113.639 239.049 112.705 241.892 111.277C243.325 110.579 244.254 109.72 244.767 109.075C245.281 108.409 245.43 108.001 245.473 108.012L245.494 108.034Z" fill="#014B5B"/>
<path d="M220.088 79.6186C220.024 79.1246 220.088 78.5232 219.746 78.1151L219.65 78.0615C219.297 77.9326 218.88 77.8682 218.559 78.0615C218.271 78.244 218.132 78.6091 218.11 78.9635C218.068 79.4468 218.207 79.9193 218.335 80.3918C218.399 80.6388 218.474 80.8858 218.602 81.1113C218.73 81.3261 218.933 81.5086 219.179 81.5516C219.575 81.616 219.949 81.2724 220.077 80.875C220.205 80.4777 220.141 80.0374 220.088 79.6186Z" fill="#014B5B"/>
<path d="M230.915 79.5971C230.851 79.1031 230.915 78.5017 230.573 78.0937L230.477 78.04C230.124 77.9111 229.707 77.8467 229.386 78.04C229.098 78.2225 228.959 78.5877 228.938 78.942C228.895 79.4253 229.034 79.8978 229.162 80.3703C229.226 80.6173 229.301 80.8643 229.429 81.0898C229.558 81.3046 229.761 81.4872 230.006 81.5301C230.402 81.5945 230.776 81.2509 230.904 80.8536C231.033 80.4562 230.968 80.0159 230.915 79.5971Z" fill="#014B5B"/>
<path d="M223.604 101.344L225.581 102.214C226.18 102.879 227.259 103.857 227.27 104.759C231.289 103.803 234.271 101.451 236.975 98.3154C232.208 100.216 228.724 101.086 223.604 101.344Z" fill="#014B5B"/>
<path d="M241.101 62.6835C239.584 58.8067 235.575 56.2723 231.46 55.7998C227.345 55.338 223.187 56.7019 219.628 58.8389C216.069 60.976 213.033 63.854 210.019 66.7105C211.89 67.5267 214.091 67.5589 215.994 66.8072C214.765 68.2032 213.055 69.159 211.227 69.4704C215.438 71.4034 220.569 71.1672 224.588 68.8476C224.278 69.7819 223.658 70.6195 222.845 71.1672C227.057 72.1874 231.738 71.0061 234.966 68.1173C234.688 69.2664 233.961 70.3081 232.989 70.9739C234.998 71.4142 237.232 70.5551 238.429 68.8691C237.67 70.1148 238.386 71.7578 239.37 72.8532C240.342 73.9378 241.604 74.8506 242.149 76.2037C243.228 78.867 241.101 82.0027 242.021 84.7304C242.17 85.1922 242.566 85.6862 243.025 85.5573C243.645 85.3855 243.496 84.4942 243.517 83.8498C243.57 82.5504 244.96 81.6376 246.253 81.6376C247.547 81.6376 249.096 82.7759 250.219 83.4095C251.234 79.5757 251.373 75.1406 251.341 70.8772C251.32 68.3321 250.742 65.4219 248.904 63.6607C247.066 61.9103 242.908 60.8901 241.123 62.6942" fill="#014B5B"/>
<path d="M246.681 58.42C245.291 58.3449 243.88 58.8818 242.908 59.8698C241.935 60.8578 241.401 62.2861 241.497 63.6714" stroke="#014B5B" stroke-width="0.05" stroke-linecap="round" stroke-linejoin="round"/>
<path d="M240.685 65.443C241.508 62.9193 241.208 60.0628 239.904 57.7539" stroke="#014B5B" stroke-width="0.05" stroke-linecap="round" stroke-linejoin="round"/>
<path d="M244.521 93.6007C246.542 93.6973 248.551 92.516 249.47 91.4636C250.721 90.0139 251.245 88.4889 251.106 86.5774C250.967 84.6659 249.887 82.7758 248.166 81.949C246.445 81.1221 244.115 81.5838 243.057 83.1839" fill="white"/>
<path d="M244.521 93.6011C245.451 93.5796 246.349 93.3326 247.172 92.9246C247.985 92.5272 248.754 91.9903 249.321 91.3137C249.898 90.6157 250.379 89.8425 250.625 88.9834C250.881 88.135 250.924 87.2115 250.817 86.3201C250.614 84.559 249.577 82.8407 247.963 82.089C246.381 81.348 244.211 81.6809 243.057 83.1844C244.03 81.5306 246.339 80.9614 248.123 81.7024C249.951 82.4649 251.095 84.3442 251.341 86.2557C251.448 87.2115 251.384 88.1995 251.095 89.123C250.806 90.0465 250.283 90.8949 249.641 91.5929C248.295 92.9675 246.392 93.7729 244.521 93.6011Z" fill="#014B5B"/>
<path d="M247.504 84.3545C245.59 84.7411 243.934 86.2231 243.335 88.0809C243.549 87.6835 243.763 87.2755 244.105 86.9855C244.447 86.6956 244.949 86.5452 245.355 86.7385C245.922 87.007 246.05 87.748 246.028 88.3708C246.028 88.8111 245.975 89.2514 245.804 89.6488C245.622 90.0461 245.291 90.4005 244.874 90.4971" fill="white"/>
<path d="M247.504 84.3545C245.633 84.9237 244.148 86.3949 243.592 88.1668L243.111 87.9628C243.378 87.4473 243.709 86.803 244.393 86.513C244.714 86.3734 245.109 86.3412 245.462 86.513C245.815 86.6741 246.039 87.0177 246.125 87.3399C246.296 87.995 246.232 88.6071 246.104 89.2192C245.954 89.8206 245.505 90.422 244.885 90.5079C245.462 90.2931 245.761 89.7239 245.826 89.1655C245.9 88.6071 245.89 87.9735 245.708 87.4902C245.537 86.9748 245.045 86.7922 244.586 87.007C244.137 87.2003 243.848 87.705 243.57 88.2205L243.089 88.0165C243.731 86.062 245.548 84.5693 247.504 84.3652V84.3545Z" fill="#014B5B"/>
<path d="M227.281 86.9317C227.281 86.9854 226.619 86.9746 225.731 86.4377C225.293 86.1692 224.823 85.7611 224.427 85.192C224.235 84.9128 224.053 84.5906 223.914 84.2362L223.818 83.957C223.786 83.8603 223.743 83.6563 223.872 83.463C224.192 83.1086 224.492 83.259 224.663 83.259C225.421 83.3771 226.138 83.4845 226.843 83.6026L226.554 83.8603C226.554 81.9488 226.619 80.6172 226.736 80.6172C226.854 80.6172 226.982 81.9381 227.067 83.8496C227.067 83.9892 226.971 84.1073 226.832 84.1073H226.79C226.084 84.0107 225.357 83.914 224.598 83.8174C224.502 83.8066 224.427 83.7959 224.374 83.7959C224.353 83.7959 224.32 83.7959 224.32 83.7959C224.32 83.7744 224.267 83.71 224.278 83.7315C224.256 83.7315 224.32 83.7422 224.353 83.7422C224.353 83.7422 224.353 83.7744 224.363 83.8066L224.438 84.0429C224.556 84.3543 224.695 84.6443 224.866 84.902C225.197 85.4175 225.603 85.8256 225.967 86.1048C226.715 86.6847 227.324 86.835 227.292 86.9317H227.281Z" fill="#014B5B"/>
<path d="M230.37 72.8964C230.562 72.6709 230.84 72.585 231.107 72.5313C231.385 72.4776 231.652 72.4883 231.93 72.5098C231.952 72.5098 231.984 72.5098 232.005 72.5098C232.144 72.5205 232.283 72.542 232.422 72.5742C232.582 72.6064 232.743 72.6601 232.892 72.7246C232.914 72.7246 232.924 72.7353 232.946 72.746C233.117 72.8212 233.277 72.9071 233.437 73.0145C233.459 73.0253 233.47 73.036 233.491 73.0467C233.491 73.0467 233.544 73.0682 233.566 73.0897C233.844 73.2937 234.1 73.5515 234.218 73.9058C234.335 74.2602 234.271 74.722 233.993 74.9368C233.812 75.0764 233.587 75.0764 233.373 75.0871C233.063 75.0871 232.753 75.0871 232.443 75.0871C232.048 75.0871 231.642 75.0871 231.257 74.9797C230.872 74.8616 230.498 74.6254 230.295 74.228C230.081 73.8199 230.081 73.2293 230.381 72.8857L230.37 72.8964Z" fill="#014B5B"/>
<path d="M218.495 72.7997C218.687 72.5742 218.965 72.4883 219.232 72.4346C219.51 72.3809 219.777 72.3916 220.055 72.4131C220.077 72.4131 220.109 72.4131 220.13 72.4131C220.269 72.4238 220.408 72.4453 220.547 72.4775C220.707 72.5098 220.868 72.5634 221.017 72.6279C221.039 72.6279 221.049 72.6386 221.071 72.6494C221.242 72.7245 221.402 72.8104 221.562 72.9178C221.584 72.9286 221.595 72.9393 221.616 72.9501C221.616 72.9501 221.669 72.9715 221.691 72.993C221.969 73.197 222.225 73.4548 222.343 73.8092C222.46 74.1636 222.396 74.6253 222.118 74.8401C221.937 74.9797 221.712 74.9797 221.498 74.9904C221.188 74.9904 220.878 74.9904 220.568 74.9904C220.173 74.9904 219.767 74.9904 219.382 74.8831C218.997 74.7649 218.623 74.5287 218.42 74.1313C218.206 73.7233 218.206 73.1326 218.506 72.789L218.495 72.7997Z" fill="#014B5B"/>
<path d="M231.888 91.0555C231.866 90.9696 232.529 90.9696 233.021 90.2286C233.256 89.8743 233.384 89.3588 233.309 88.7896C233.245 88.2097 232.978 87.6191 232.604 87.0177C232.433 86.7492 232.251 86.4808 232.08 86.2338H232.518C230.926 88.2312 229.055 88.897 229.034 88.7789C228.948 88.65 230.637 87.8017 232.091 85.9009C232.187 85.7827 232.358 85.7613 232.476 85.8472C232.497 85.8687 232.518 85.8901 232.529 85.9116C232.711 86.1586 232.892 86.4271 233.074 86.717C233.47 87.3399 233.769 88.0487 233.822 88.7252C233.886 89.4018 233.683 90.0568 233.341 90.4542C233.01 90.8622 232.604 91.0448 232.326 91.0878C232.037 91.1415 231.888 91.0878 231.888 91.0448V91.0555Z" fill="#014B5B"/>
<path d="M224.898 78.9855C224.844 78.9855 224.855 78.47 224.609 77.6002C224.374 76.741 223.786 75.4953 222.493 74.5396C221.253 73.5838 219.211 73.0469 217.245 73.7878C215.289 74.4644 213.611 76.5585 213.632 78.9962C213.611 81.4339 215.299 83.528 217.245 84.2046C219.211 84.9456 221.253 84.4086 222.493 83.4529C223.775 82.4971 224.363 81.2406 224.609 80.3923C224.855 79.5224 224.834 78.9962 224.898 79.0069C224.919 79.0069 224.93 79.1358 224.93 79.3828C224.93 79.6298 224.919 79.9949 224.812 80.4567C224.63 81.3588 224.075 82.7119 222.728 83.7858C221.435 84.8596 219.222 85.4932 217.063 84.7093C215.994 84.3334 214.979 83.6139 214.252 82.6045C213.504 81.6165 213.076 80.3278 213.065 79.0177C213.076 77.6968 213.504 76.4189 214.252 75.4309C214.979 74.4214 216.005 73.7019 217.063 73.3368C219.233 72.5529 221.435 73.1865 222.728 74.2604C224.075 75.3235 224.63 76.6766 224.812 77.5894C224.908 78.0512 224.94 78.4163 224.93 78.6633C224.93 78.9103 224.908 79.0392 224.898 79.0392V78.9855Z" fill="#014B5B"/>
<path d="M239.145 79.254C239.092 79.254 239.102 78.7386 238.857 77.8687C238.621 77.0096 238.034 75.7639 236.74 74.8081C235.5 73.8524 233.459 73.3154 231.492 74.0564C229.536 74.7329 227.858 76.827 227.879 79.2648C227.858 81.7025 229.547 83.7966 231.492 84.4731C233.459 85.2141 235.5 84.6772 236.74 83.7214C238.023 82.7656 238.611 81.5092 238.857 80.6608C239.102 79.791 239.081 79.2648 239.145 79.2755C239.167 79.2755 239.177 79.4044 239.177 79.6514C239.177 79.8984 239.167 80.2635 239.06 80.7252C238.878 81.6273 238.322 82.9804 236.975 84.0543C235.682 85.1282 233.47 85.7618 231.31 84.9779C230.242 84.602 229.226 83.8825 228.499 82.873C227.751 81.8851 227.324 80.5964 227.313 79.2862C227.324 77.9654 227.751 76.6874 228.499 75.6994C229.226 74.69 230.252 73.9705 231.31 73.6054C233.48 72.8214 235.682 73.455 236.975 74.5289C238.322 75.5921 238.878 76.9452 239.06 77.858C239.156 78.3197 239.188 78.6849 239.177 78.9319C239.177 79.1789 239.156 79.3077 239.145 79.3077V79.254Z" fill="#014B5B"/>
<path d="M208.737 368.119L208.662 379.975L211.858 387.932L219.233 388.77L226.234 380.963L226.309 369.623L208.737 368.119Z" fill="white"/>
<path d="M208.737 368.119C208.737 368.119 209.143 368.119 209.966 368.173C210.853 368.238 212.05 368.313 213.525 368.409C216.7 368.646 221.103 368.989 226.33 369.376C226.458 369.376 226.555 369.494 226.555 369.623C226.544 373.081 226.523 376.904 226.512 380.963C226.512 381.038 226.48 381.103 226.437 381.146C225.443 382.263 224.395 383.433 223.327 384.614C222.001 386.096 220.697 387.535 219.436 388.942C219.372 389.007 219.286 389.039 219.201 389.028C216.625 388.727 214.156 388.448 211.826 388.18C211.73 388.18 211.655 388.105 211.612 388.019C210.447 385.087 209.389 382.402 208.448 380.04C208.448 380.018 208.438 379.986 208.438 379.954C208.512 376.324 208.566 373.36 208.609 371.223C208.641 370.256 208.662 369.483 208.673 368.882C208.694 368.356 208.705 368.087 208.726 368.098C208.747 368.109 208.747 368.409 208.769 368.968C208.769 369.58 208.79 370.375 208.801 371.363C208.812 373.467 208.833 376.388 208.854 379.964V379.879C209.806 382.23 210.896 384.904 212.082 387.825L211.869 387.664C214.199 387.922 216.668 388.19 219.244 388.48L219.008 388.566C220.27 387.16 221.563 385.71 222.888 384.228C223.957 383.036 225.005 381.876 225.999 380.759L225.924 380.942C225.967 376.893 225.999 373.07 226.031 369.601L226.255 369.848C221.103 369.354 216.764 368.936 213.632 368.635C212.136 368.485 210.928 368.356 210.019 368.259C209.635 368.216 209.314 368.173 209.047 368.152C208.822 368.119 208.705 368.109 208.694 368.098L208.737 368.119Z" fill="#014B5B"/>
<path d="M229.333 401.56C229.536 394.247 228.585 390.069 228.799 382.756C228.831 381.425 228.767 379.857 227.677 379.105C226.693 378.418 225.304 378.761 224.331 379.47C223.358 380.179 222.664 381.188 221.777 381.994C219.682 383.905 216.528 384.571 213.856 383.658C211.173 382.745 209.068 380.297 208.565 377.505C200.207 382.413 191.849 387.32 183.49 392.228C181.78 393.237 180.006 394.29 178.883 395.933C177.761 397.576 177.472 399.981 178.776 401.485L229.355 401.571L229.333 401.56Z" fill="#FFA93D"/>
<path d="M228.093 397.748C211.473 397.641 194.863 397.522 178.242 397.415C177.9 398.736 178.049 400.164 178.926 401.174L229.504 401.26C229.547 399.863 229.536 398.994 229.504 397.759H228.083L228.093 397.748Z" fill="white"/>
<path d="M228.093 397.748C228.093 397.748 228.211 397.726 228.446 397.716C228.724 397.716 229.066 397.705 229.504 397.694C229.536 397.694 229.568 397.716 229.568 397.759C229.579 398.618 229.6 399.788 229.611 401.27C229.611 401.335 229.568 401.378 229.504 401.378C221.028 401.464 201.939 401.496 179.76 401.464H178.915C178.83 401.464 178.755 401.421 178.702 401.367C177.708 400.218 177.633 398.618 177.964 397.351C177.996 397.222 178.114 397.136 178.231 397.136C192.201 397.265 204.643 397.383 213.653 397.458C218.1 397.522 221.702 397.576 224.235 397.619C225.443 397.651 226.405 397.673 227.099 397.683C227.399 397.694 227.644 397.705 227.837 397.716C228.008 397.716 228.093 397.737 228.093 397.748C228.093 397.759 228.008 397.769 227.837 397.769C227.634 397.769 227.399 397.78 227.099 397.791C226.405 397.791 225.453 397.812 224.235 397.823C221.702 397.823 218.1 397.823 213.653 397.834C204.643 397.802 192.201 397.748 178.231 397.683L178.499 397.469C178.199 398.628 178.295 400.025 179.118 400.98L178.905 400.884H179.749C201.928 400.927 221.018 401.023 229.494 401.131L229.376 401.238C229.397 399.767 229.419 398.585 229.429 397.737L229.494 397.802C229.055 397.791 228.703 397.769 228.435 397.759C228.2 397.748 228.083 397.737 228.083 397.726L228.093 397.748Z" fill="#FFA93D"/>
<path d="M232.69 117.817C232.369 117.774 234.325 121.694 234.325 121.694L238.312 121.372L239.167 117.227L236.89 113.822L234.464 114.273L232.69 117.817Z" fill="#FFA93D"/>
<path d="M251.213 368.119L251.127 379.975L254.334 387.932L261.709 388.77L268.71 380.963L268.785 369.623L251.213 368.119Z" fill="white"/>
<path d="M251.213 368.119C251.213 368.119 251.619 368.119 252.442 368.173C253.329 368.238 254.526 368.313 256.001 368.409C259.176 368.646 263.58 368.989 268.806 369.376C268.934 369.376 269.031 369.494 269.031 369.623C269.02 373.081 268.999 376.904 268.988 380.963C268.988 381.038 268.956 381.103 268.913 381.146C267.919 382.263 266.872 383.433 265.803 384.614C264.477 386.096 263.173 387.535 261.912 388.942C261.848 389.007 261.762 389.039 261.677 389.028C259.101 388.727 256.632 388.448 254.302 388.18C254.206 388.18 254.131 388.105 254.088 388.019C252.923 385.087 251.865 382.402 250.924 380.04C250.924 380.018 250.914 379.986 250.914 379.954C250.988 376.324 251.042 373.36 251.085 371.223C251.117 370.256 251.138 369.483 251.149 368.882C251.17 368.356 251.181 368.087 251.202 368.098C251.224 368.109 251.224 368.409 251.245 368.968C251.245 369.58 251.266 370.375 251.277 371.363C251.288 373.467 251.309 376.388 251.33 379.964V379.879C252.282 382.23 253.372 384.904 254.558 387.825L254.345 387.664C256.675 387.922 259.144 388.19 261.72 388.48L261.485 388.566C262.746 387.16 264.039 385.71 265.364 384.228C266.433 383.036 267.481 381.876 268.475 380.759L268.4 380.942C268.443 376.893 268.475 373.07 268.507 369.601L268.731 369.848C263.58 369.354 259.24 368.936 256.108 368.635C254.612 368.485 253.404 368.356 252.495 368.259C252.111 368.216 251.79 368.173 251.523 368.152C251.298 368.119 251.181 368.109 251.17 368.098L251.213 368.119Z" fill="#014B5B"/>
<path d="M271.81 402C272.013 394.676 271.062 390.069 271.265 382.756C271.297 381.425 271.233 379.857 270.142 379.105C269.159 378.418 267.77 378.761 266.797 379.47C265.824 380.179 265.129 381.188 264.242 381.994C262.147 383.905 258.994 384.571 256.322 383.658C253.639 382.745 251.534 380.297 251.031 377.505C242.673 382.413 234.314 387.32 225.956 392.228C224.246 393.237 222.471 394.29 221.349 395.933C220.227 397.576 219.938 399.981 221.242 401.485L271.821 402.011L271.81 402Z" fill="#FFA93D"/>
<path d="M270.399 397.748C253.778 397.641 237.168 397.522 220.548 397.415C220.206 398.736 220.355 400.164 221.232 401.174L271.81 401.7C271.853 400.304 271.842 398.994 271.81 397.759H270.388L270.399 397.748Z" fill="white"/>
<path d="M270.399 397.748C270.399 397.748 270.516 397.726 270.762 397.716C271.029 397.716 271.382 397.705 271.82 397.694C271.852 397.694 271.884 397.716 271.884 397.759C271.895 398.704 271.917 400.025 271.938 401.711C271.938 401.775 271.884 401.829 271.82 401.829C263.195 401.829 244.244 401.7 222.3 401.474C221.948 401.474 221.595 401.474 221.242 401.464C221.157 401.464 221.082 401.421 221.039 401.367C220.045 400.218 219.97 398.618 220.301 397.351C220.334 397.222 220.451 397.136 220.569 397.136C234.549 397.265 246.991 397.383 255.991 397.458C260.437 397.522 264.028 397.576 266.562 397.619C267.769 397.651 268.721 397.673 269.415 397.683C269.715 397.694 269.96 397.705 270.153 397.716C270.324 397.716 270.409 397.737 270.409 397.748C270.409 397.759 270.324 397.769 270.153 397.769C269.95 397.769 269.715 397.78 269.415 397.791C268.721 397.791 267.769 397.812 266.562 397.823C264.028 397.823 260.437 397.823 255.991 397.834C246.991 397.802 234.539 397.748 220.569 397.683L220.836 397.479C220.537 398.639 220.633 400.035 221.456 400.991L221.253 400.894C221.605 400.894 221.958 400.894 222.311 400.905C244.265 401.131 263.205 401.399 271.831 401.582L271.713 401.7C271.735 400.014 271.756 398.704 271.778 397.759L271.842 397.823C271.403 397.812 271.051 397.791 270.784 397.78C270.548 397.769 270.431 397.759 270.431 397.748H270.399Z" fill="#FFA93D"/>
<path d="M207.454 193.172C204.803 193.172 201.169 273.606 201.501 287.234C201.832 300.862 200.731 372.265 200.731 372.265H232.903L236.901 264.961L242.78 371.985H279.58L271.511 237.019C271.511 237.019 274.012 226.108 272.964 217.753C271.938 209.506 267.342 193.161 267.342 193.161H207.465L207.454 193.172Z" fill="#014B5B"/>
<path d="M242.769 371.996C242.769 371.996 242.748 371.878 242.726 371.631C242.705 371.362 242.673 371.008 242.641 370.557C242.577 369.58 242.491 368.205 242.374 366.444C242.171 362.836 241.871 357.67 241.508 351.302C240.824 338.49 239.894 320.836 238.857 301.345C237.884 281.843 237.008 264.188 236.367 251.376C236.078 245.008 235.843 239.843 235.672 236.235C235.608 234.473 235.554 233.088 235.512 232.111C235.501 231.66 235.49 231.305 235.479 231.037C235.479 230.801 235.479 230.672 235.479 230.672C235.479 230.672 235.501 230.79 235.522 231.037C235.544 231.305 235.576 231.66 235.608 232.111C235.672 233.088 235.757 234.463 235.875 236.224C236.078 239.832 236.377 244.998 236.741 251.366C237.425 264.177 238.355 281.832 239.391 301.323C240.364 320.814 241.241 338.469 241.882 351.28C242.171 357.649 242.406 362.814 242.577 366.422C242.641 368.183 242.694 369.569 242.737 370.546C242.748 370.997 242.758 371.351 242.769 371.62C242.769 371.867 242.769 371.985 242.769 371.985V371.996Z" fill="white"/>
<path d="M231.257 220.298C231.182 220.298 230.926 218.967 230.637 216.765C230.349 214.574 230.049 211.525 229.9 208.153C229.75 204.781 229.761 201.72 229.846 199.508C229.932 197.296 230.071 195.932 230.135 195.942C230.22 195.942 230.22 197.317 230.242 199.518C230.253 201.72 230.306 204.77 230.456 208.131C230.616 211.492 230.84 214.531 231.033 216.722C231.215 218.924 231.343 220.277 231.257 220.298Z" fill="white"/>
<path d="M233.961 196.63C233.961 196.63 234.122 196.49 234.464 196.458C234.806 196.426 235.34 196.522 235.864 196.898C236.366 197.263 236.89 197.929 236.901 198.842C236.922 199.766 236.174 200.646 235.223 200.936C234.293 201.258 233.16 200.979 232.647 200.206C232.123 199.465 232.176 198.606 232.369 198.015C232.583 197.414 232.957 197.016 233.256 196.845C233.555 196.662 233.758 196.662 233.769 196.683C233.833 196.759 233.032 197.027 232.754 198.122C232.625 198.638 232.647 199.347 233.064 199.884C233.459 200.431 234.293 200.635 235.062 200.388C235.832 200.141 236.388 199.497 236.398 198.82C236.43 198.144 236.035 197.553 235.629 197.199C234.763 196.458 233.961 196.716 233.972 196.619L233.961 196.63Z" fill="white"/>
<path d="M250.048 203.921C249.898 203.932 249.599 202.117 249.385 199.851C249.172 197.585 249.129 195.738 249.279 195.728C249.428 195.717 249.727 197.532 249.941 199.798C250.155 202.064 250.198 203.911 250.048 203.921Z" fill="white"/>
<path d="M253.971 202.977C253.821 202.998 253.533 201.473 253.33 199.572C253.126 197.672 253.084 196.125 253.233 196.114C253.383 196.093 253.672 197.618 253.875 199.519C254.078 201.409 254.12 202.966 253.971 202.977Z" fill="white"/>
<path d="M214.348 203.546C214.198 203.567 213.824 201.838 213.514 199.68C213.204 197.521 213.087 195.749 213.236 195.728C213.386 195.706 213.76 197.435 214.07 199.594C214.38 201.752 214.498 203.524 214.348 203.546Z" fill="white"/>
<path d="M218.356 203.739C218.207 203.771 217.768 202.139 217.608 200.066C217.437 197.994 217.608 196.308 217.758 196.318C217.918 196.318 217.993 197.983 218.164 200.023C218.324 202.064 218.517 203.718 218.356 203.75V203.739Z" fill="white"/>
<path d="M214.861 360.742C214.861 360.742 214.84 360.634 214.819 360.43C214.808 360.194 214.786 359.893 214.765 359.518C214.722 358.712 214.648 357.531 214.626 355.995C214.551 352.935 214.541 348.499 214.872 343.033C215.203 337.567 215.887 331.07 217.191 323.94C217.833 320.374 218.645 316.659 219.628 312.836C220.088 310.924 220.708 308.991 221.157 307.047C221.552 305.104 221.798 302.988 221.125 301.109C220.772 300.185 220.12 299.412 219.265 298.972C218.41 298.521 217.405 298.445 216.39 298.317C215.385 298.209 214.316 297.952 213.429 297.382C212.542 296.824 211.804 296.072 211.249 295.224C210.105 293.527 209.667 291.508 209.603 289.597C209.538 287.674 209.774 285.817 209.987 284.023C210.842 276.828 212.007 270.406 213.162 265.058C214.316 259.71 215.481 255.425 216.326 252.483C216.753 251.012 217.095 249.873 217.352 249.111C217.469 248.757 217.566 248.467 217.64 248.241C217.704 248.048 217.747 247.951 217.758 247.951C217.769 247.951 217.747 248.059 217.694 248.263C217.63 248.488 217.555 248.789 217.459 249.143C217.234 249.959 216.924 251.098 216.539 252.537C215.759 255.49 214.658 259.775 213.557 265.133C212.446 270.481 211.334 276.903 210.5 284.077C210.297 285.87 210.062 287.707 210.137 289.575C210.201 291.433 210.629 293.334 211.708 294.923C212.232 295.718 212.916 296.416 213.718 296.91C214.53 297.425 215.46 297.662 216.454 297.758C217.437 297.887 218.517 297.951 219.511 298.467C220.494 298.961 221.253 299.874 221.638 300.894C222.375 302.988 222.087 305.157 221.691 307.155C221.232 309.174 220.622 311.053 220.152 312.964C219.169 316.766 218.346 320.471 217.694 324.026C216.368 331.124 215.642 337.6 215.257 343.055C214.872 348.51 214.819 352.935 214.829 355.995C214.829 357.52 214.861 358.712 214.861 359.518C214.861 359.893 214.861 360.194 214.861 360.43C214.861 360.634 214.861 360.742 214.84 360.742H214.861Z" fill="white"/>
<path d="M127.739 96.5439C128.316 95.5452 129.759 95.5129 130.507 96.3828C132.174 98.3373 135.905 102.547 139.838 105.833C145.043 110.182 143.387 115.197 143.387 115.197L135.424 124.948C135.424 124.948 120.363 119.235 114.474 112.427C110.306 107.616 107.687 104.77 108.221 103.696C108.756 102.622 110.925 103.062 110.925 103.062C110.925 103.062 109.942 101.108 111.118 99.7548C112.294 98.4017 114.966 101.086 114.966 101.086C114.966 101.086 114.185 98.1977 116.558 98.0258C118.931 97.854 122.095 102.923 127.151 105.114C132.206 107.304 131.586 104.577 131.586 104.577C131.586 104.577 128.166 101.226 127.535 98.4984C127.343 97.6392 127.471 97.0164 127.739 96.5439Z" fill="white"/>
<path d="M127.739 96.5435C127.739 96.5435 127.632 96.7368 127.546 97.1341C127.461 97.5315 127.461 98.1543 127.739 98.9061C128.252 100.399 129.62 102.375 131.693 104.469C131.693 104.469 131.726 104.522 131.726 104.544C131.8 104.92 131.758 105.349 131.458 105.682C131.17 106.004 130.732 106.101 130.347 106.123C129.545 106.133 128.765 105.908 127.985 105.639C126.424 105.07 124.831 104.2 123.335 103.041C121.807 101.913 120.374 100.474 118.739 99.2175C117.927 98.6161 116.965 98.004 116.013 98.4013C115.062 98.7235 114.955 100.034 115.201 101.032C115.233 101.161 115.158 101.301 115.019 101.333C114.934 101.355 114.848 101.333 114.784 101.269C114.346 100.85 113.844 100.442 113.309 100.12C112.785 99.8081 112.155 99.5397 111.663 99.69C111.214 99.8618 110.851 100.506 110.808 101.097C110.744 101.709 110.894 102.375 111.15 102.955C111.214 103.094 111.15 103.245 111.022 103.309C110.968 103.33 110.915 103.341 110.862 103.33C110.188 103.223 109.397 103.18 108.831 103.459C108.542 103.61 108.382 103.835 108.425 104.104C108.467 104.404 108.628 104.748 108.809 105.07C109.59 106.359 110.648 107.551 111.674 108.775C112.721 109.989 113.79 111.234 114.88 112.459C115.971 113.672 117.243 114.735 118.579 115.755C121.283 117.753 124.169 119.396 127.012 120.867C129.876 122.328 132.73 123.616 135.509 124.712L135.21 124.787C138.053 121.329 140.725 118.064 143.194 115.057L143.152 115.133C143.643 113.242 143.344 111.213 142.553 109.591C141.794 107.916 140.522 106.692 139.272 105.629C136.76 103.459 134.772 101.365 133.169 99.6148C132.367 98.7342 131.672 97.9396 131.074 97.2415C130.774 96.8979 130.507 96.5435 130.251 96.2858C129.973 96.0388 129.652 95.8992 129.353 95.8562C128.743 95.7596 128.284 95.9958 128.049 96.1999C127.803 96.4039 127.728 96.565 127.707 96.5542C127.707 96.5542 127.76 96.3824 127.995 96.1462C128.23 95.9206 128.711 95.6414 129.374 95.7166C129.695 95.7488 130.058 95.8884 130.368 96.1569C130.667 96.4468 130.913 96.769 131.234 97.1019C131.843 97.7892 132.559 98.5624 133.361 99.4323C134.986 101.15 136.995 103.212 139.507 105.339C140.768 106.391 142.115 107.669 142.916 109.409C143.761 111.116 144.114 113.2 143.579 115.283C143.579 115.304 143.558 115.326 143.547 115.347C141.089 118.376 138.438 121.651 135.606 125.12C135.531 125.206 135.413 125.238 135.306 125.195C132.484 124.089 129.631 122.811 126.745 121.35C123.869 119.868 120.962 118.225 118.226 116.196C116.868 115.165 115.564 114.08 114.442 112.824C113.331 111.589 112.283 110.354 111.225 109.129C110.188 107.895 109.141 106.713 108.307 105.339C108.115 104.984 107.911 104.619 107.858 104.157C107.783 103.642 108.168 103.148 108.553 102.976C109.365 102.6 110.167 102.686 110.936 102.804L110.648 103.18C110.338 102.493 110.177 101.773 110.252 101.032C110.295 100.667 110.402 100.291 110.605 99.9692C110.797 99.6685 111.054 99.3249 111.471 99.196C112.294 98.9812 112.967 99.3571 113.544 99.6793C114.122 100.034 114.624 100.452 115.105 100.914L114.688 101.15C114.549 100.549 114.506 99.9477 114.635 99.3356C114.752 98.7342 115.19 98.1329 115.8 97.9396C116.366 97.7248 117.018 97.757 117.563 97.9825C118.087 98.208 118.547 98.5087 118.974 98.8416C120.652 100.163 122.052 101.58 123.549 102.708C125.024 103.867 126.552 104.727 128.07 105.296C128.829 105.564 129.588 105.79 130.304 105.79C130.657 105.779 130.999 105.693 131.202 105.468C131.405 105.253 131.458 104.898 131.405 104.608L131.448 104.684C129.374 102.525 128.038 100.517 127.546 98.9598C127.29 98.1866 127.311 97.5315 127.429 97.1234C127.546 96.7153 127.696 96.5542 127.696 96.5542L127.739 96.5435Z" fill="#014B5B"/>
<path d="M110.926 103.062L121.123 111.664C121.123 111.664 133.981 109.645 137.177 119.654" fill="white"/>
<path d="M137.177 119.654C137.177 119.654 136.931 119.246 136.589 118.494C136.493 118.311 136.428 118.086 136.289 117.871C136.151 117.656 136.001 117.431 135.851 117.184C135.68 116.947 135.541 116.658 135.328 116.411C135.103 116.164 134.879 115.906 134.633 115.627C133.617 114.585 132.185 113.543 130.379 112.867C128.572 112.179 126.445 111.825 124.211 111.761C123.164 111.761 122.127 111.793 121.165 111.911C121.09 111.922 121.016 111.9 120.951 111.846C118.055 109.387 115.522 107.207 113.737 105.629C112.914 104.888 112.219 104.265 111.642 103.76C111.161 103.309 110.904 103.062 110.926 103.03C110.947 103.008 111.246 103.212 111.759 103.61C112.358 104.082 113.085 104.662 113.95 105.36C115.8 106.864 118.375 108.99 121.293 111.428L121.08 111.363C122.095 111.224 123.143 111.181 124.222 111.191C126.509 111.256 128.701 111.632 130.56 112.383C132.431 113.114 133.906 114.231 134.921 115.358C135.156 115.648 135.392 115.927 135.605 116.196C135.819 116.464 135.947 116.765 136.108 117.012C136.257 117.27 136.396 117.506 136.525 117.742C136.642 117.968 136.706 118.204 136.781 118.397C137.07 119.192 137.209 119.632 137.166 119.643L137.177 119.654Z" fill="#014B5B"/>
<path d="M114.966 101.086C115.49 101.408 124.222 108.26 124.222 108.26L114.966 101.086Z" fill="white"/>
<path d="M124.233 108.259C124.136 108.378 121.988 106.874 119.444 104.898C116.9 102.922 114.891 101.215 114.976 101.075C115.051 100.946 117.199 102.45 119.765 104.436C122.33 106.423 124.329 108.131 124.233 108.259Z" fill="#014B5B"/>
<path d="M304.068 138.619L275.968 117.28C274.022 115.723 271.778 114.596 269.362 113.973L248.284 108.507L245.58 104.791L235.725 112.158L226.255 106.359L221.114 110.912L200.464 116.271L174.694 132.508L145.514 110.364L132.057 126.924L168.815 156.456C173.09 159.892 179.065 160.247 183.704 157.326L204.718 144.149L207.743 163.962L205.99 188.372C205.872 190.004 205.83 193.194 207.454 193.172L267.096 193.591C268.839 193.591 268.037 189.832 267.855 188.093L264.82 159.409L267.481 144.944L290.953 156.263L279.666 168.258L272.547 174.615L281.75 189.832L289.147 185.193L310.203 165.434C318.401 156.263 313.677 146.383 304.057 138.608L304.068 138.619Z" fill="white"/>
<path d="M304.068 138.619C304.068 138.619 304.613 139.048 305.66 139.929C306.665 140.842 308.204 142.184 309.882 144.268C311.539 146.329 313.495 149.154 314.275 153.041C314.628 154.974 314.585 157.154 313.912 159.323C313.249 161.503 311.988 163.608 310.299 165.531C304.431 171.061 297.345 177.73 289.264 185.333L289.243 185.355C286.977 186.783 284.444 188.361 281.846 190.004C281.761 190.058 281.654 190.026 281.601 189.951C278.704 185.172 275.615 180.082 272.376 174.734C272.323 174.648 272.344 174.551 272.408 174.487C274.589 172.532 277.026 170.352 279.527 168.119H279.516C283.022 164.403 286.849 160.333 290.793 156.134L290.857 156.478C283.46 152.912 275.572 149.111 267.385 145.17L267.716 144.998C266.893 149.476 265.985 154.427 265.065 159.463V159.388C266.049 168.57 267.053 178.095 268.101 187.932C268.229 189.145 268.475 190.38 268.454 191.669C268.411 192.292 268.432 193.033 267.823 193.602C267.492 193.871 267.043 193.86 266.765 193.849H265.824C263.323 193.828 260.811 193.806 258.278 193.795C253.212 193.763 248.071 193.731 242.865 193.688C232.455 193.613 221.777 193.548 210.896 193.473H208.854L207.828 193.452C207.529 193.452 207.048 193.473 206.684 193.205C205.99 192.657 205.883 191.862 205.755 191.175C205.658 190.466 205.648 189.758 205.669 189.059C205.861 186.3 206.054 183.529 206.257 180.748C206.652 175.185 207.059 169.579 207.465 163.93V163.995C206.524 157.852 205.53 151.269 204.515 144.643L204.44 144.182L204.867 144.375C198.379 148.445 191.945 152.483 185.575 156.478C184.773 156.972 184.003 157.487 183.159 157.96C182.315 158.411 181.438 158.797 180.519 159.044C178.691 159.592 176.746 159.689 174.875 159.409C173.005 159.13 171.199 158.421 169.627 157.38C168.836 156.843 168.131 156.252 167.415 155.683L165.266 153.954C153.819 144.751 142.671 135.784 131.897 127.128C131.779 127.032 131.768 126.871 131.854 126.752C136.439 121.114 140.929 115.595 145.322 110.193C145.407 110.086 145.567 110.064 145.674 110.15C155.818 117.85 165.544 125.249 174.843 132.304H174.565C183.619 126.591 192.201 121.2 200.346 116.078C200.368 116.067 200.389 116.056 200.41 116.046C207.614 114.188 214.498 112.405 221.071 110.708L220.986 110.751C222.835 109.119 224.492 107.648 226.127 106.198C226.191 106.134 226.287 106.134 226.362 106.177C229.761 108.26 232.839 110.15 235.821 111.986H235.608C239.188 109.334 242.384 106.939 245.473 104.641C245.548 104.587 245.666 104.598 245.719 104.673C246.724 106.059 247.579 107.24 248.413 108.389L248.316 108.324C253.244 109.613 257.915 110.827 262.308 111.976C264.51 112.545 266.637 113.103 268.699 113.64C270.784 114.123 272.74 114.94 274.418 116.013C280.842 120.76 286.175 124.938 290.579 128.267C294.961 131.617 298.328 134.194 300.605 135.934C301.738 136.804 302.593 137.47 303.181 137.921C303.758 138.372 304.046 138.608 304.046 138.608C304.046 138.608 303.737 138.393 303.159 137.964C302.571 137.523 301.695 136.868 300.562 136.02C298.264 134.291 294.886 131.735 290.483 128.428C286.068 125.131 280.681 120.953 274.29 116.26C272.622 115.197 270.709 114.413 268.635 113.93C266.572 113.393 264.435 112.846 262.233 112.276C257.829 111.138 253.158 109.935 248.231 108.657C248.188 108.657 248.156 108.625 248.135 108.593C247.29 107.433 246.435 106.263 245.43 104.877L245.676 104.92C242.598 107.229 239.402 109.624 235.832 112.298C235.768 112.341 235.683 112.352 235.618 112.298C232.626 110.472 229.547 108.582 226.148 106.51L226.383 106.488C224.748 107.938 223.091 109.409 221.242 111.041C221.221 111.063 221.189 111.074 221.157 111.084C214.594 112.792 207.711 114.585 200.507 116.454L200.571 116.422C192.426 121.555 183.864 126.967 174.811 132.67C174.726 132.723 174.619 132.712 174.533 132.659C165.234 125.603 155.497 118.226 145.343 110.526L145.696 110.483C141.303 115.895 136.824 121.404 132.239 127.053L132.196 126.677C142.981 135.333 154.129 144.3 165.576 153.492C167.019 154.609 168.43 155.855 169.895 156.886C171.402 157.884 173.122 158.55 174.918 158.829C176.714 159.098 178.574 159.001 180.327 158.475C181.203 158.239 182.047 157.863 182.86 157.433C183.651 156.993 184.452 156.456 185.243 155.973C191.603 151.978 198.037 147.94 204.536 143.87C204.664 143.784 204.835 143.827 204.921 143.956C204.942 143.988 204.953 144.021 204.964 144.063L205.038 144.525C206.054 151.151 207.059 157.734 207.988 163.877C207.988 163.898 207.988 163.92 207.988 163.941C207.582 169.59 207.176 175.206 206.781 180.758C206.588 183.54 206.385 186.3 206.193 189.049C206.171 189.725 206.171 190.413 206.268 191.068C206.364 191.701 206.535 192.41 206.962 192.721C207.165 192.872 207.422 192.861 207.785 192.861H208.812L210.853 192.883C221.745 192.958 232.423 193.033 242.833 193.108C248.038 193.151 253.18 193.183 258.246 193.215C260.779 193.237 263.302 193.248 265.792 193.269H266.733C267.075 193.28 267.289 193.269 267.46 193.14C267.802 192.85 267.876 192.184 267.898 191.605C267.919 190.391 267.684 189.178 267.545 187.932C266.508 178.095 265.504 168.57 264.542 159.388C264.542 159.366 264.542 159.345 264.542 159.313C265.472 154.276 266.391 149.336 267.214 144.858C267.235 144.729 267.363 144.643 267.492 144.665C267.513 144.665 267.534 144.676 267.556 144.686C275.743 148.638 283.621 152.451 291.017 156.027C291.124 156.08 291.167 156.209 291.124 156.317C291.124 156.338 291.103 156.36 291.081 156.37C287.127 160.558 283.3 164.628 279.783 168.355H279.773C277.272 170.599 274.824 172.769 272.644 174.723L272.676 174.476C275.904 179.824 278.982 184.925 281.868 189.704L281.622 189.65C284.23 188.018 286.752 186.439 289.029 185.022L289.008 185.043C297.11 177.461 304.218 170.814 310.096 165.316C311.764 163.426 313.025 161.353 313.677 159.216C314.35 157.079 314.393 154.942 314.062 153.03C313.303 149.186 311.39 146.372 309.754 144.31C308.097 142.227 306.58 140.863 305.586 139.94C304.56 139.048 304.036 138.587 304.036 138.587L304.068 138.619Z" fill="#014B5B"/>
<path d="M233.876 121.157L228.19 177.955L237.008 188.286L244.105 177.912L238.269 120.996L233.876 121.157Z" fill="#FFA93D"/>
<path d="M200.731 124.024C200.731 124.024 200.902 124.411 201.094 125.131C201.297 125.85 201.554 126.913 201.853 128.213C202.451 130.833 203.168 134.463 203.852 138.5C204.546 142.538 205.07 146.2 205.391 148.874C205.733 151.537 205.797 153.213 205.69 153.213C205.647 153.213 205.615 152.805 205.498 152.064C205.359 151.205 205.198 150.163 205.006 148.928C204.546 146.147 203.959 142.56 203.307 138.597C202.623 134.57 201.971 130.93 201.468 128.299C201.233 127.074 201.041 126.033 200.88 125.184C200.741 124.443 200.688 124.035 200.72 124.024H200.731Z" fill="#014B5B"/>
<path d="M248.359 109.398C248.413 109.452 247.739 110.29 246.596 111.589C245.452 112.899 243.849 114.671 242.053 116.604C241.829 116.851 241.604 117.087 241.39 117.324C241.166 117.56 240.931 117.828 240.578 117.989C240.215 118.183 239.723 118.075 239.456 117.85C239.167 117.635 238.985 117.409 238.782 117.173C238.077 116.228 237.575 115.326 237.136 114.585C236.281 113.071 235.693 112.19 235.736 112.158C235.811 112.094 236.527 112.921 237.468 114.381C237.949 115.101 238.494 115.992 239.178 116.862C239.531 117.281 239.958 117.721 240.354 117.495C240.77 117.281 241.198 116.69 241.647 116.228C243.443 114.284 245.089 112.555 246.307 111.321C247.526 110.086 248.295 109.345 248.359 109.398Z" fill="#014B5B"/>
<path d="M235.736 112.147C235.8 112.19 235.276 113.2 234.368 114.811C233.876 115.659 233.342 116.604 232.754 117.624C232.593 117.882 232.454 118.161 232.23 118.451C232.016 118.73 231.61 118.999 231.182 118.977C230.317 118.902 229.825 118.29 229.291 117.882C227.142 116.067 225.218 114.413 223.839 113.189C222.461 111.965 221.638 111.181 221.68 111.116C221.734 111.052 222.642 111.739 224.085 112.888C225.528 114.037 227.495 115.648 229.643 117.463C230.178 117.903 230.691 118.419 231.193 118.44C231.685 118.483 231.995 117.893 232.315 117.377C232.935 116.389 233.513 115.466 234.026 114.628C235.02 113.071 235.661 112.126 235.725 112.169L235.736 112.147Z" fill="#014B5B"/>
<path d="M146.176 118.612C146.873 118.612 147.438 118.044 147.438 117.344C147.438 116.644 146.873 116.077 146.176 116.077C145.48 116.077 144.915 116.644 144.915 117.344C144.915 118.044 145.48 118.612 146.176 118.612Z" fill="#FFA93D"/>
<path d="M271.489 121.694C271.489 121.694 271.489 122.113 271.382 122.865C271.254 123.735 271.093 124.787 270.901 126.022C270.452 128.814 269.864 132.433 269.223 136.428C268.539 140.487 267.865 144.16 267.31 146.802C267.032 148.123 266.797 149.186 266.604 149.916C266.422 150.646 266.305 151.054 266.262 151.044C266.219 151.044 266.262 150.625 266.39 149.873C266.54 149.014 266.711 147.962 266.914 146.727C267.384 143.935 267.994 140.326 268.667 136.342C269.351 132.283 269.992 128.61 270.505 125.968C270.762 124.648 270.986 123.574 271.157 122.843C271.328 122.102 271.435 121.705 271.478 121.716L271.489 121.694Z" fill="#014B5B"/>
<path d="M277.849 174.647C277.849 175.345 277.282 175.914 276.587 175.914C275.893 175.914 275.326 175.345 275.326 174.647C275.326 173.949 275.893 173.38 276.587 173.38C277.282 173.38 277.849 173.949 277.849 174.647Z" fill="#014B5B"/>
<path d="M234.838 162.738C234.795 162.888 231.866 162.19 228.286 161.181C224.705 160.171 221.841 159.237 221.883 159.087C221.926 158.936 224.855 159.634 228.435 160.644C232.016 161.653 234.881 162.588 234.838 162.738Z" fill="#014B5B"/>
<path d="M153.744 116.593C153.808 116.636 153.167 117.645 152.055 119.224C150.944 120.792 149.34 122.918 147.534 125.227C145.781 127.461 144.189 129.469 142.885 131.123C141.698 132.626 140.95 133.56 140.886 133.507C140.822 133.464 141.463 132.454 142.575 130.876C143.686 129.308 145.289 127.182 147.096 124.873C148.849 122.639 150.441 120.631 151.735 118.977C152.921 117.474 153.669 116.539 153.733 116.593H153.744Z" fill="#FFA93D"/>
<path d="M289.211 182.433C289.083 182.519 286.774 179.555 284.048 175.807C281.323 172.059 279.206 168.945 279.335 168.849C279.463 168.763 281.772 171.727 284.497 175.474C287.223 179.222 289.339 182.337 289.211 182.433Z" fill="#014B5B"/>
<path d="M221.862 153.449C221.862 153.449 222.108 153.449 222.589 153.481C223.113 153.535 223.797 153.588 224.641 153.674C226.426 153.835 229.013 154.072 232.209 154.254C235.405 154.437 239.221 154.566 243.464 154.533C244.522 154.512 245.612 154.49 246.713 154.469C247.825 154.426 248.958 154.447 250.027 154.157C251.074 153.889 252.068 153.17 252.399 152.128C252.56 151.623 252.496 151.065 252.25 150.581C252.004 150.098 251.598 149.679 251.128 149.325C250.187 148.616 249.054 148.165 247.985 147.66C246.895 147.177 245.815 146.726 244.746 146.318C242.598 145.491 240.482 144.804 238.451 144.245C236.42 143.666 234.443 143.29 232.604 142.828C230.766 142.366 229.066 141.776 227.655 140.938C224.78 139.273 223.519 136.599 223.348 134.806C223.252 133.893 223.38 133.174 223.53 132.723C223.594 132.486 223.679 132.325 223.722 132.218C223.776 132.111 223.797 132.046 223.808 132.057C223.893 132.068 223.327 133.002 223.562 134.785C223.786 136.503 225.058 139.048 227.848 140.605C229.227 141.389 230.883 141.947 232.711 142.388C234.539 142.828 236.527 143.193 238.579 143.762C240.642 144.31 242.769 144.997 244.939 145.813C246.018 146.221 247.119 146.672 248.21 147.166C249.289 147.671 250.433 148.111 251.47 148.885C251.972 149.271 252.453 149.744 252.752 150.345C253.051 150.947 253.137 151.666 252.934 152.31C252.517 153.599 251.341 154.404 250.176 154.705C249.001 155.017 247.835 154.984 246.735 155.017C245.623 155.049 244.533 155.06 243.475 155.06C239.221 155.06 235.394 154.898 232.198 154.662C228.992 154.437 226.405 154.136 224.631 153.91C223.743 153.792 223.049 153.696 222.578 153.61C222.108 153.535 221.873 153.481 221.873 153.47L221.862 153.449Z" fill="#014B5B"/>
<path d="M281.023 188.694C281.023 188.694 277.111 191.508 272.761 193.559C270.41 194.665 267.599 193.624 266.423 191.293L265.268 189.017C265.268 189.017 259.229 194.944 256.739 192.818C256.739 192.818 255.745 191.143 256.899 189.661C256.899 189.661 253.736 190.219 254.836 186.751C254.836 186.751 252.111 185.666 253.618 182.552C253.618 182.552 250.989 180.876 252.774 178.149C254.559 175.421 260.747 171.512 262.992 170.954C264.926 170.47 266.027 171.942 267.62 173.982C268.774 175.453 270.185 179.029 270.185 179.029L273.873 176.968L281.023 188.694Z" fill="white"/>
<path d="M281.023 188.694C281.023 188.694 280.959 188.619 280.874 188.48C280.767 188.308 280.638 188.114 280.478 187.867C280.115 187.298 279.623 186.525 279.003 185.548C277.721 183.507 275.925 180.619 273.702 177.075L273.969 177.15C272.814 177.805 271.585 178.503 270.292 179.233C270.185 179.298 270.046 179.255 269.993 179.147V179.115C269.629 178.267 269.244 177.386 268.817 176.516C268.379 175.647 267.919 174.744 267.288 173.961C266.636 173.155 266.006 172.285 265.183 171.662C264.371 170.997 263.302 170.997 262.297 171.48C260.255 172.35 258.267 173.628 256.354 175.056C255.403 175.786 254.473 176.57 253.671 177.472C252.87 178.342 252.207 179.47 252.506 180.608C252.677 181.295 253.19 181.929 253.767 182.326H253.778C253.896 182.412 253.928 182.562 253.864 182.681C253.511 183.4 253.329 184.195 253.522 184.903C253.693 185.612 254.291 186.192 254.943 186.493H254.954C255.082 186.557 255.146 186.708 255.104 186.836C254.879 187.534 254.761 188.318 255.093 188.855C255.413 189.382 256.215 189.489 256.856 189.403H256.878C257.027 189.382 257.156 189.489 257.177 189.629C257.177 189.704 257.166 189.779 257.124 189.833C256.461 190.638 256.504 191.819 256.974 192.689L256.921 192.625C257.519 193.129 258.406 193.076 259.176 192.84C259.967 192.614 260.704 192.195 261.399 191.776C262.789 190.907 264.018 189.886 265.119 188.855C265.215 188.759 265.354 188.769 265.439 188.855C265.45 188.866 265.471 188.888 265.471 188.909C265.803 189.575 266.134 190.219 266.444 190.853C266.754 191.497 267.096 192.034 267.577 192.485C268.507 193.387 269.747 193.827 270.891 193.806C272.056 193.806 273.028 193.237 273.958 192.786C274.877 192.324 275.711 191.873 276.449 191.454C277.934 190.617 279.067 189.908 279.837 189.414C280.19 189.188 280.489 189.006 280.713 188.855C280.916 188.727 281.013 188.673 281.023 188.684C281.034 188.684 280.938 188.78 280.756 188.92C280.574 189.059 280.286 189.274 279.912 189.532C279.163 190.058 278.052 190.799 276.577 191.68C275.839 192.12 275.016 192.582 274.097 193.065C273.199 193.516 272.173 194.16 270.901 194.171C269.661 194.214 268.315 193.752 267.299 192.786C266.786 192.313 266.369 191.68 266.07 191.046C265.749 190.413 265.418 189.768 265.076 189.113L265.439 189.178C264.317 190.251 263.088 191.282 261.656 192.195C260.939 192.635 260.181 193.076 259.326 193.333C258.502 193.591 257.412 193.709 256.579 193.033C256.579 193.033 256.536 192.99 256.525 192.968C256.237 192.431 256.087 191.852 256.087 191.239C256.087 190.627 256.322 190.004 256.696 189.51L256.953 189.94C256.536 190.004 256.14 189.983 255.723 189.886C255.317 189.79 254.89 189.553 254.633 189.156C254.152 188.329 254.355 187.427 254.58 186.675L254.74 187.019C253.928 186.643 253.233 185.977 252.987 185.065C252.752 184.162 252.987 183.228 253.361 182.444L253.457 182.799C252.752 182.305 252.196 181.607 251.961 180.747C251.79 180.06 251.886 179.33 252.164 178.718C252.442 178.106 252.827 177.558 253.254 177.096C254.099 176.151 255.061 175.357 256.023 174.616C257.979 173.166 259.967 171.888 262.094 170.986C262.618 170.771 263.205 170.578 263.825 170.61C264.445 170.631 265.023 170.9 265.471 171.244C266.391 171.952 267.011 172.844 267.652 173.649C268.315 174.487 268.785 175.421 269.212 176.302C269.64 177.193 270.025 178.074 270.367 178.943L270.057 178.825C271.361 178.106 272.601 177.418 273.755 176.785C273.851 176.731 273.969 176.763 274.022 176.86C276.192 180.501 277.956 183.454 279.196 185.548C279.773 186.525 280.222 187.309 280.564 187.889C280.874 188.415 281.023 188.694 281.002 188.694H281.023Z" fill="#014B5B"/>
<path d="M268.24 186.729C268.143 186.761 268.197 185.805 267.213 184.968C266.732 184.56 266.027 184.259 265.193 184.259C264.36 184.259 263.451 184.538 262.607 185.043C261.762 185.548 261.046 186.192 260.383 186.783C259.731 187.384 259.09 187.889 258.577 188.308C257.53 189.134 256.942 189.704 256.888 189.661C256.824 189.607 257.326 188.92 258.321 188.007C258.812 187.545 259.411 187.019 260.031 186.407C260.672 185.795 261.399 185.107 262.318 184.56C263.227 184.012 264.253 183.711 265.193 183.744C266.145 183.765 266.968 184.162 267.47 184.667C267.983 185.172 268.207 185.73 268.272 186.117C268.336 186.514 268.272 186.729 268.24 186.718V186.729Z" fill="#014B5B"/>
<path d="M267.951 181.51C267.887 181.542 267.748 181.155 267.256 180.726C266.775 180.307 265.835 179.963 264.734 180.028H264.691H264.68C264.189 179.974 263.579 180.21 262.991 180.511C262.393 180.822 261.794 181.22 261.206 181.671C259.539 183.11 258.064 184.452 256.92 185.386C255.755 186.267 255.135 186.89 255.082 186.858C255.007 186.804 255.563 186.052 256.664 185.086C257.711 184.098 259.176 182.691 260.875 181.23C261.484 180.758 262.115 180.35 262.756 180.028C263.398 179.727 264.06 179.459 264.766 179.555H264.712C265.963 179.523 266.968 179.985 267.459 180.522C267.951 181.069 267.994 181.51 267.962 181.51H267.951Z" fill="#014B5B"/>
<path d="M264.274 176C264.253 176.086 263.537 175.871 262.457 176.215C261.367 176.526 260.02 177.385 258.695 178.535C257.391 179.737 256.108 180.758 255.221 181.488C254.312 182.218 253.789 182.701 253.735 182.658C253.671 182.605 254.109 182.003 254.964 181.198C255.809 180.371 257.017 179.329 258.342 178.105C259.699 176.924 261.174 176.054 262.372 175.818C263.579 175.549 264.328 175.936 264.285 175.989L264.274 176Z" fill="#014B5B"/>
</g>
<defs>
<filter id="filter0_d_18_1916" x="0.5" y="0" width="318" height="410" filterUnits="userSpaceOnUse" color-interpolation-filters="sRGB">
<feFlood flood-opacity="0" result="BackgroundImageFix"/>
<feColorMatrix in="SourceAlpha" type="matrix" values="0 0 0 0 0 0 0 0 0 0 0 0 0 0 0 0 0 0 127 0" result="hardAlpha"/>
<feOffset dy="4"/>
<feGaussianBlur stdDeviation="2"/>
<feComposite in2="hardAlpha" operator="out"/>
<feColorMatrix type="matrix" values="0 0 0 0 0 0 0 0 0 0 0 0 0 0 0 0 0 0 0.25 0"/>
<feBlend mode="normal" in2="BackgroundImageFix" result="effect1_dropShadow_18_1916"/>
<feBlend mode="normal" in="SourceGraphic" in2="effect1_dropShadow_18_1916" result="shape"/>
</filter>
<clipPath id="clip0_18_1916">
<rect width="310" height="402" fill="white" transform="translate(4.5)"/>
</clipPath>
</defs>
</svg>
