<svg width="303" height="328" viewBox="0 0 303 328" fill="none" xmlns="http://www.w3.org/2000/svg">
<g clip-path="url(#clip0_18_1598)" filter="url(#filter0_d_18_1598)">
<path d="M207.311 113.38L180.754 117.838C180.754 117.838 176.265 93.1395 173.775 83.1517C170.871 71.5392 162.345 67.2695 159.705 66.1989H159.68L147.709 62.6094L125.339 62.9872C125.339 62.9872 101.85 64.4356 96.4182 76.1867C92.1807 85.3685 81.329 105.206 76.4376 119.438C73.6713 127.499 76.249 138.469 80.8764 139.728H99.5367L99.6498 145.409L154.122 145.812L162.081 122.309C164.508 131.491 173.348 137.688 182.992 136.554L212.202 133.103L207.336 113.367L207.311 113.38Z" fill="white"/>
<path d="M207.311 113.379C207.311 113.379 207.437 113.795 207.65 114.651C207.877 115.521 208.191 116.793 208.619 118.443C209.474 121.818 210.719 126.743 212.315 133.09C212.341 133.166 212.29 133.242 212.215 133.267H212.19C205.55 134.073 197.377 135.055 187.884 136.201C185.507 136.441 183.068 136.894 180.477 136.907C177.9 136.882 175.234 136.34 172.719 135.219C170.217 134.085 167.89 132.385 165.967 130.206C164.055 128.015 162.622 125.332 161.804 122.385H162.295C159.83 129.715 157.164 137.612 154.36 145.912C154.323 146.025 154.21 146.101 154.084 146.101C137.511 145.988 119.115 145.862 99.6119 145.736C99.4358 145.736 99.2975 145.597 99.2975 145.421C99.2598 143.645 99.2221 141.705 99.1844 139.741L99.5113 140.055C93.6013 140.055 87.2765 140.055 80.851 140.055C80.851 140.055 80.8007 140.055 80.7756 140.055C78.99 139.489 77.8206 137.952 77.0158 136.403C76.2111 134.829 75.7081 133.103 75.3812 131.352C74.7399 127.838 74.8028 124.123 75.7458 120.571C77.1919 115.949 79.0654 111.591 80.9767 107.271C82.9006 102.963 84.9125 98.7566 86.9495 94.6129C89.0117 90.4818 91.0488 86.401 93.0481 82.3706C94.0415 80.3554 95.0474 78.3528 95.9779 76.3502C96.8958 74.272 98.367 72.471 100.065 71.0477C103.497 68.1761 107.609 66.4884 111.671 65.2289C115.77 64.0072 119.907 63.2389 124.006 62.8106C125.037 62.6847 126.081 62.6847 127.087 62.6721C128.105 62.6595 129.111 62.6343 130.117 62.6217C132.129 62.5839 134.128 62.5587 136.103 62.521C140.051 62.458 143.911 62.395 147.696 62.332C147.721 62.332 147.759 62.332 147.784 62.332C151.896 63.5663 155.894 64.7754 159.78 65.9342C159.868 65.9594 159.931 66.0224 159.956 66.1105L159.805 65.9468C165.438 68.3272 169.739 72.7858 172.09 77.7734C173.297 80.2546 174.002 82.887 174.555 85.4186C175.133 87.9502 175.649 90.4188 176.152 92.8118C178.101 102.384 179.647 110.785 180.917 117.8L180.729 117.674C189.33 116.264 195.994 115.18 200.508 114.437C202.734 114.085 204.431 113.808 205.601 113.619C206.745 113.442 207.311 113.367 207.311 113.367C207.311 113.367 206.707 113.493 205.55 113.694C204.381 113.896 202.671 114.198 200.433 114.588C195.931 115.369 189.317 116.503 180.766 117.989C180.678 118.002 180.603 117.939 180.578 117.863C179.27 110.848 177.686 102.46 175.699 92.9C175.196 90.5069 174.668 88.0509 174.09 85.5319C173.524 83.0004 172.832 80.4436 171.638 78.0002C169.324 73.1133 165.086 68.7555 159.591 66.4506C159.516 66.4254 159.466 66.3498 159.44 66.2868L159.616 66.4506C155.731 65.2918 151.732 64.0953 147.621 62.8736H147.709C143.936 62.9492 140.063 63.0247 136.128 63.1003C134.154 63.1381 132.167 63.1759 130.155 63.2137C129.149 63.2263 128.143 63.2515 127.124 63.2641C126.093 63.2767 125.1 63.2767 124.081 63.4026C120.02 63.8308 115.908 64.5991 111.872 65.8082C107.861 67.0551 103.812 68.7303 100.492 71.5137C97.009 74.1965 95.8019 78.7181 93.6391 82.6603C91.6272 86.6907 89.6027 90.7714 87.5405 94.9026C85.5161 99.0337 83.5042 103.24 81.5803 107.535C79.6816 111.83 77.7954 116.213 76.3871 120.747C75.4818 124.186 75.4063 127.813 76.035 131.239C76.3494 132.939 76.8398 134.614 77.6068 136.113C78.3613 137.587 79.4804 138.96 80.9516 139.438H80.8636C87.2765 139.438 93.6014 139.438 99.5239 139.438C99.6999 139.438 99.8382 139.577 99.8508 139.753C99.8885 141.718 99.9262 143.658 99.964 145.434L99.6496 145.119C119.152 145.27 137.549 145.421 154.122 145.547L153.845 145.736C156.662 137.448 159.34 129.564 161.83 122.246C161.88 122.108 162.018 122.045 162.157 122.082C162.245 122.108 162.295 122.183 162.32 122.259C163.112 125.118 164.495 127.75 166.356 129.879C168.23 132.007 170.493 133.67 172.933 134.791C175.385 135.887 177.988 136.428 180.502 136.453C183.017 136.453 185.482 136.013 187.858 135.773C197.365 134.677 205.538 133.733 212.177 132.965L212.051 133.141C210.53 126.818 209.335 121.894 208.531 118.531C208.128 116.856 207.826 115.583 207.625 114.702C207.424 113.833 207.323 113.367 207.323 113.367L207.311 113.379Z" fill="#014B5B"/>
<path d="M129.325 130.886L139.183 126.969C146.238 129.589 150.752 125.143 150.752 125.143C150.752 125.143 153.795 128.317 155.065 128.959C156.536 129.689 158.183 127.448 158.183 127.448C158.183 127.448 159.629 128.581 160.773 128.644C161.918 128.707 162.295 127.813 162.295 127.813C162.295 127.813 163.515 128.405 164.546 128.216C165.527 128.04 165.589 127.057 165.589 127.057C165.589 127.057 166.746 128.014 167.891 127.372C169.035 126.742 168.632 125.281 168.632 125.281C168.632 125.281 159.629 118.417 156.838 116.629C154.046 114.853 137.989 116.616 137.989 116.616L128.458 117.157L129.313 130.886H129.325Z" fill="white" stroke="#014B5B" stroke-width="0.5" stroke-linecap="round" stroke-linejoin="round"/>
<path d="M99.0458 138.934C99.0458 138.934 99.247 138.897 99.6368 138.884C100.077 138.871 100.643 138.846 101.334 138.821C102.881 138.783 105.031 138.745 107.697 138.683C113.217 138.62 120.887 138.519 129.828 138.405L129.526 138.733C129.212 133.884 128.872 128.581 128.507 123.052C128.369 120.924 128.243 118.833 128.118 116.805L128.445 117.107C118.737 117.133 109.998 117.145 103.183 117.17C103.145 117.17 103.107 117.17 103.07 117.145C101.045 116.112 98.9829 115.672 97.1722 115.583C95.3615 115.483 93.7897 115.735 92.5574 116.049C90.0677 116.717 88.8732 117.573 88.8354 117.498C88.8354 117.498 89.9671 116.553 92.482 115.785C93.7269 115.432 95.3238 115.13 97.1848 115.193C99.0332 115.243 101.171 115.672 103.283 116.704L103.17 116.679C109.985 116.616 118.725 116.541 128.432 116.452C128.608 116.452 128.746 116.591 128.759 116.755C128.885 118.782 129.023 120.873 129.161 123.002C129.501 128.531 129.84 133.833 130.142 138.683C130.142 138.846 130.029 138.997 129.853 139.01H129.828C120.887 139.023 113.204 139.035 107.697 139.048C105.031 139.035 102.881 139.01 101.334 138.997C100.643 138.985 100.077 138.972 99.6368 138.96C99.247 138.947 99.0458 138.934 99.0458 138.909V138.934Z" fill="#014B5B"/>
<path d="M103.17 116.944C103.095 116.919 103.485 115.432 104.352 113.09C105.207 110.76 106.54 107.586 108.074 104.135C109.608 100.671 111.004 97.5476 111.972 95.2679C112.941 92.9882 113.494 91.565 113.582 91.5902C113.657 91.6154 113.267 93.1016 112.4 95.4442C111.545 97.7743 110.212 100.948 108.678 104.412C107.144 107.875 105.748 110.999 104.78 113.279C103.812 115.558 103.258 116.982 103.17 116.956V116.944Z" fill="#014B5B"/>
<path d="M112.325 95.0156L107.559 116.943H103.17L112.325 95.0156Z" fill="#014B5B"/>
<path d="M149.456 119.841C149.456 119.765 150.123 119.627 151.255 119.765C151.82 119.841 152.512 120.093 153.103 120.584C153.707 121.062 154.222 121.705 154.725 122.36C156.737 125.017 158.246 127.259 158.108 127.36C157.957 127.473 156.221 125.408 154.21 122.763C153.707 122.095 153.229 121.491 152.713 121.05C152.21 120.596 151.657 120.345 151.154 120.219C150.135 119.979 149.444 119.941 149.444 119.841H149.456Z" fill="#014B5B"/>
<path d="M153.958 117.51C153.933 117.435 154.813 117.271 155.957 117.976C157.127 118.644 158.082 120.206 159.063 121.78C161.075 124.979 162.597 127.649 162.446 127.737C162.295 127.838 160.534 125.319 158.51 122.12C157.504 120.508 156.674 119.034 155.693 118.354C154.75 117.624 153.945 117.611 153.958 117.51Z" fill="#014B5B"/>
<path d="M160.446 121.302C160.597 121.189 161.678 122.461 163.062 123.972C164.432 125.483 165.602 126.68 165.476 126.831C165.363 126.97 163.98 125.962 162.571 124.426C161.163 122.876 160.295 121.415 160.446 121.315V121.302Z" fill="black"/>
<path d="M162.66 118.846C162.559 118.808 163.125 117.171 163.779 114.475C164.433 111.78 165.086 107.989 165.225 103.757C165.338 99.525 164.91 95.6961 164.42 92.963C163.93 90.2299 163.464 88.5674 163.565 88.5296C163.603 88.517 163.766 88.92 164.018 89.6631C164.269 90.4062 164.571 91.502 164.873 92.8623C165.489 95.5954 166.004 99.4746 165.879 103.769C165.74 108.064 165.011 111.893 164.231 114.589C163.842 115.936 163.477 117.007 163.188 117.737C162.899 118.468 162.722 118.858 162.672 118.846H162.66Z" fill="#014B5B"/>
<path d="M115.015 86.817C114.902 86.7792 115.493 85.4316 115.77 83.1393C115.883 81.9931 115.933 80.6077 115.657 79.1341C115.393 77.6605 114.789 76.0483 113.708 74.7384C112.588 73.4412 111.117 72.5595 109.759 71.9298C108.376 71.3 107.043 70.9725 105.911 70.8466C103.61 70.5569 102.29 71.3504 102.252 71.2244C102.24 71.1993 102.529 70.96 103.158 70.7332C103.774 70.4813 104.755 70.3302 105.949 70.3932C107.144 70.4688 108.552 70.7584 109.998 71.3756C111.432 72.0053 112.978 72.8996 114.211 74.3102C115.405 75.7586 116.009 77.459 116.26 79.0207C116.524 80.5951 116.424 82.0309 116.235 83.2022C116.034 84.3736 115.732 85.293 115.481 85.8976C115.229 86.5147 115.04 86.8296 115.015 86.817Z" fill="#014B5B"/>
<path d="M166.507 73.9442C166.671 74.0198 166.029 75.6319 165.086 77.5212C164.143 79.423 163.25 80.8966 163.087 80.8084C162.924 80.7329 163.565 79.1207 164.508 77.2315C165.451 75.3296 166.344 73.856 166.507 73.9442Z" fill="#014B5B"/>
<path d="M178.529 276.685C180.302 271.698 182.075 266.698 183.848 261.71L207.01 269.947L198.271 291.535L180.88 291.913L176.932 281.182L178.529 276.673V276.685Z" fill="white"/>
<path d="M178.529 276.685C178.529 276.685 178.428 277.101 178.189 277.869C177.913 278.701 177.535 279.822 177.07 281.232V281.131C178.064 283.764 179.447 287.404 181.119 291.825L180.88 291.661C185.809 291.535 191.732 291.384 198.271 291.22L197.994 291.409C199.742 287.064 201.653 282.328 203.64 277.416C204.696 274.821 205.727 272.277 206.72 269.821L206.909 270.249C198.057 267.063 190.085 264.204 183.772 261.924L184.074 261.773C182.414 266.332 181.056 270.048 180.088 272.693C179.623 273.927 179.246 274.922 178.969 275.653C178.705 276.333 178.554 276.673 178.529 276.673C178.504 276.673 178.617 276.295 178.831 275.615C179.082 274.872 179.409 273.864 179.824 272.605C180.742 269.947 182.024 266.206 183.609 261.609C183.647 261.483 183.785 261.42 183.911 261.458C190.236 263.687 198.22 266.496 207.098 269.62C207.261 269.683 207.349 269.859 207.299 270.035C206.305 272.517 205.274 275.061 204.231 277.655C202.231 282.567 200.32 287.29 198.56 291.636C198.509 291.749 198.396 291.825 198.283 291.825C191.744 291.938 185.822 292.051 180.893 292.139C180.792 292.139 180.692 292.077 180.654 291.976C179.057 287.53 177.749 283.865 176.806 281.22C176.806 281.194 176.806 281.157 176.806 281.119C177.334 279.721 177.749 278.612 178.051 277.806C178.34 277.051 178.504 276.66 178.529 276.673V276.685Z" fill="#014B5B"/>
<path d="M163.15 305.465C166.369 295.943 169.79 290.452 173.009 280.93C173.6 279.192 174.43 277.215 176.203 276.761C177.799 276.346 179.434 277.454 180.352 278.827C181.27 280.2 181.698 281.837 182.452 283.311C184.25 286.774 187.997 289.142 191.895 289.256C195.793 289.369 199.679 287.228 201.666 283.865C207.764 291.296 213.85 298.714 219.949 306.145C219.949 306.145 227.43 306.032 230.134 308.614C232.007 310.402 232.825 311.763 233.177 314.483C233.692 318.514 232.221 319.534 232.221 319.534L203.174 319.622L163.163 305.465H163.15Z" fill="#014B5B"/>
<path d="M232.434 319.117C232.774 318.462 233.038 317.719 233.214 316.901L205.613 316.12C184.011 308.286 186.614 308.223 165.024 300.389L164.37 302.089C163.967 303.16 163.565 304.293 163.163 305.477L203.174 319.634L232.221 319.546C232.221 319.546 231.957 320.075 232.447 319.13L232.434 319.117Z" fill="white"/>
<path d="M232.435 319.118C232.435 319.118 232.422 319.181 232.372 319.294C232.347 319.357 232.309 319.433 232.271 319.521C232.246 319.571 232.221 319.622 232.196 319.672V319.697C232.196 319.697 232.196 319.697 232.158 319.722C232.057 319.622 232.133 319.685 232.108 319.659L232.133 319.596L232.171 319.508L232.208 319.571C229.467 319.672 218.703 319.773 203.162 319.874C203.136 319.874 203.099 319.874 203.074 319.861C191.945 315.944 178.101 311.07 163.037 305.78C162.874 305.729 162.773 305.54 162.836 305.377C163.188 304.382 163.578 303.311 163.955 302.241C164.206 301.586 164.458 300.918 164.709 300.276C164.772 300.112 164.961 300.024 165.124 300.087C172.832 302.87 180.176 305.729 186.916 308.588C193.668 311.41 200.018 313.79 205.689 315.868H205.614C219.232 316.284 229.165 316.637 233.214 316.826C233.252 316.826 233.29 316.863 233.29 316.901C232.9 318.501 232.435 319.118 232.435 319.118C232.422 319.118 232.498 318.941 232.648 318.589C232.787 318.224 232.988 317.669 233.139 316.889L233.214 316.989C229.153 316.951 219.232 316.725 205.601 316.385C205.576 316.385 205.538 316.385 205.526 316.372C199.842 314.332 193.467 311.976 186.689 309.168C179.937 306.321 172.619 303.487 164.911 300.704L165.326 300.515C165.074 301.157 164.823 301.812 164.571 302.467C164.194 303.538 163.817 304.596 163.465 305.578L163.263 305.163C178.315 310.515 192.147 315.427 203.262 319.382H203.174C218.716 319.382 229.48 319.42 232.221 319.496C232.246 319.496 232.271 319.521 232.271 319.533V319.559L232.221 319.647L232.196 319.685C232.196 319.685 232.221 319.722 232.145 319.659C232.095 319.659 232.133 319.659 232.12 319.659C232.145 319.596 232.171 319.546 232.208 319.496C232.259 319.42 232.296 319.345 232.334 319.282C232.397 319.168 232.435 319.118 232.447 319.118H232.435Z" fill="#014B5B"/>
<path d="M173.637 229.09L183.281 319.673H178.465L164.168 229.09H173.637Z" fill="#014B5B"/>
<path d="M159.83 275.93V291.308L155.593 301.598L145.999 302.606L136.97 292.429V277.731L159.83 275.93Z" fill="white"/>
<path d="M159.83 275.93C159.83 275.93 159.667 275.968 159.377 275.993C159.038 276.031 158.623 276.069 158.12 276.132C156.963 276.245 155.391 276.396 153.43 276.572C149.368 276.925 143.71 277.429 136.995 278.021L137.259 277.731C137.259 282.215 137.284 287.177 137.297 292.429L137.209 292.215C138.491 293.664 139.85 295.188 141.233 296.737C142.943 298.664 144.615 300.553 146.25 302.392L145.973 302.291C149.331 301.939 152.55 301.611 155.567 301.296L155.316 301.485C156.888 297.707 158.334 294.256 159.604 291.208V291.308C159.641 286.661 159.692 282.87 159.717 280.149C159.742 278.865 159.767 277.832 159.78 277.051C159.792 276.333 159.818 275.943 159.83 275.93C159.843 275.917 159.868 276.257 159.88 276.95C159.893 277.719 159.918 278.726 159.943 279.986C159.981 282.744 160.019 286.598 160.082 291.308C160.082 291.346 160.082 291.371 160.069 291.409C158.824 294.457 157.428 297.933 155.882 301.724C155.844 301.825 155.743 301.901 155.63 301.913C152.6 302.241 149.393 302.581 146.036 302.946C145.935 302.946 145.822 302.908 145.759 302.845C144.137 301.019 142.452 299.13 140.742 297.203C139.372 295.654 138.014 294.13 136.731 292.669C136.681 292.606 136.643 292.53 136.643 292.455C136.656 287.203 136.668 282.24 136.681 277.756C136.681 277.605 136.794 277.479 136.945 277.467C143.748 276.988 149.481 276.585 153.593 276.308C155.53 276.182 157.089 276.094 158.233 276.018C158.724 275.993 159.113 275.968 159.44 275.955C159.704 275.955 159.843 275.955 159.83 275.955V275.93Z" fill="#014B5B"/>
<path d="M132.733 314.559C132.532 305.062 133.814 299.105 133.601 289.608C133.563 287.883 133.676 285.855 135.097 284.885C136.379 284.004 138.19 284.457 139.448 285.389C140.705 286.308 141.61 287.631 142.755 288.689C145.458 291.195 149.545 292.077 153.053 290.918C156.549 289.759 159.302 286.611 159.994 282.983C170.821 289.419 181.647 295.855 192.473 302.291C194.687 303.614 196.988 304.999 198.434 307.128C199.88 309.256 200.232 312.38 198.534 314.32L132.745 314.559H132.733Z" fill="#014B5B"/>
<path d="M134.594 314.559H198.446C198.861 316.272 198.509 318.299 197.377 319.609L132.758 319.672C132.72 317.858 132.733 316.171 132.783 314.559H134.594Z" fill="white"/>
<path d="M134.594 314.559C134.594 314.559 134.443 314.584 134.141 314.597C133.801 314.597 133.349 314.622 132.783 314.634L132.858 314.559C132.858 315.768 132.884 317.468 132.896 319.66L132.758 319.521C143.836 319.395 168.092 319.295 196.195 319.269C196.585 319.269 196.975 319.269 197.365 319.269L197.113 319.383C198.22 318.073 198.496 316.184 198.119 314.622L198.433 314.874C180.528 314.836 164.583 314.798 153.065 314.773C147.357 314.735 142.754 314.697 139.523 314.672C137.964 314.647 136.744 314.622 135.864 314.609C135.474 314.597 135.16 314.584 134.908 314.584C134.694 314.584 134.581 314.559 134.581 314.546C134.581 314.534 134.694 314.521 134.908 314.508C135.16 314.508 135.474 314.496 135.864 314.483C136.744 314.471 137.964 314.445 139.523 314.42C142.754 314.395 147.357 314.357 153.065 314.32C164.583 314.294 180.528 314.257 198.433 314.219C198.584 314.219 198.71 314.32 198.748 314.471C199.163 316.221 198.886 318.287 197.604 319.811C197.541 319.886 197.44 319.924 197.352 319.924C196.962 319.924 196.572 319.924 196.183 319.924C168.079 319.949 143.823 319.899 132.745 319.798C132.67 319.798 132.607 319.735 132.607 319.66C132.645 317.468 132.682 315.755 132.695 314.546C132.695 314.508 132.733 314.471 132.77 314.471C133.336 314.483 133.789 314.496 134.128 314.508C134.43 314.508 134.581 314.534 134.581 314.546L134.594 314.559Z" fill="#014B5B"/>
<path d="M176.039 203.245H89.2636C84.9996 203.245 81.543 206.707 81.543 210.978V221.357C81.543 225.628 84.9996 229.09 89.2636 229.09H176.039C180.303 229.09 183.76 225.628 183.76 221.357V210.978C183.76 206.707 180.303 203.245 176.039 203.245Z" fill="white"/>
<path d="M176.026 229.09C176.026 229.09 176.894 229.14 178.428 228.636C179.182 228.385 180.1 227.931 180.968 227.163C181.836 226.395 182.703 225.299 183.181 223.863C183.734 222.44 183.571 220.702 183.583 218.838C183.583 216.961 183.571 214.933 183.558 212.742C183.533 211.646 183.634 210.512 183.382 209.404C183.131 208.296 182.628 207.212 181.873 206.268C181.119 205.323 180.1 204.568 178.943 204.064C177.761 203.56 176.479 203.434 175.096 203.484C153.103 203.51 122.774 203.547 89.2634 203.585C87.2516 203.573 85.2774 204.442 83.9068 205.877C82.5236 207.313 81.7943 209.291 81.8572 211.268C81.8572 213.308 81.8572 215.336 81.8572 217.351C81.8572 218.359 81.8572 219.354 81.8572 220.362C81.8572 221.382 81.8572 222.314 82.1087 223.233C82.5739 225.072 83.781 226.684 85.3654 227.667C86.1576 228.158 87.0378 228.498 87.9431 228.662C88.8359 228.838 89.7916 228.775 90.7472 228.788C94.5446 228.788 98.2666 228.788 101.901 228.788C116.424 228.813 129.489 228.838 140.491 228.863C151.456 228.901 160.333 228.939 166.507 228.964C169.55 228.989 171.94 229.014 173.574 229.027C174.366 229.04 174.97 229.052 175.41 229.065C175.825 229.065 176.039 229.102 176.039 229.102C176.039 229.102 175.825 229.128 175.41 229.14C174.97 229.14 174.354 229.153 173.574 229.178C171.927 229.191 169.55 229.216 166.507 229.241C160.333 229.266 151.456 229.304 140.491 229.342C129.501 229.367 116.424 229.38 101.901 229.417C98.2666 229.417 94.5446 229.417 90.7472 229.417C89.8041 229.405 88.8359 229.48 87.83 229.279C86.8492 229.102 85.8935 228.737 85.0385 228.208C83.3158 227.15 82.0081 225.4 81.4925 223.397C81.2159 222.402 81.2159 221.331 81.2159 220.362C81.2159 219.367 81.2159 218.359 81.2159 217.351C81.2159 215.336 81.2159 213.308 81.2159 211.268C81.153 209.165 81.9452 206.973 83.4541 205.424C84.9379 203.85 87.0881 202.905 89.276 202.93C122.774 202.968 153.116 203.006 175.108 203.031C176.466 202.981 177.9 203.132 179.132 203.661C180.364 204.202 181.433 205.021 182.225 206.016C183.018 207.011 183.546 208.17 183.797 209.328C184.061 210.512 183.935 211.671 183.961 212.742C183.961 214.921 183.948 216.961 183.935 218.838C183.898 220.689 184.049 222.465 183.458 223.951C182.942 225.437 182.024 226.546 181.119 227.314C180.201 228.095 179.27 228.523 178.491 228.762C177.711 229.002 177.095 229.077 176.68 229.09C176.265 229.09 176.051 229.09 176.051 229.09H176.026Z" fill="#014B5B"/>
<path d="M46.7749 144.464L25.5117 319.395H32.6036L59.5755 144.464H46.7749Z" fill="white"/>
<path d="M46.7747 144.464C46.7747 144.464 47.0387 144.451 47.5668 144.439C48.1201 144.439 48.9249 144.426 49.9811 144.414C52.1565 144.401 55.3503 144.376 59.5753 144.351C59.6382 144.351 59.6885 144.401 59.6885 144.464V144.489C55.6773 170.712 45.4292 237.73 33.4207 316.234C33.2573 317.317 33.0938 318.388 32.9303 319.458C32.9052 319.622 32.7669 319.735 32.6034 319.735C30.1766 319.735 27.7875 319.735 25.5115 319.735C25.3355 319.735 25.1846 319.584 25.1846 319.408V319.37C31.1699 270.527 36.5392 226.759 40.4121 195.196C42.3611 179.465 43.9454 166.77 45.0268 157.991C45.5801 153.633 46.0076 150.258 46.2968 147.94C46.4477 146.807 46.5609 145.95 46.6363 145.346C46.7118 144.766 46.7621 144.477 46.7621 144.477C46.7621 144.477 46.7369 144.791 46.6741 145.396C46.6112 146.013 46.5106 146.895 46.3723 148.041C46.0956 150.371 45.7058 153.784 45.1903 158.167C44.1466 166.971 42.6377 179.692 40.7516 195.461C36.9541 226.986 31.6981 270.678 25.8133 319.446L25.4864 319.08C27.7372 319.08 30.0886 319.08 32.5783 319.08L32.2513 319.357C32.4022 318.337 32.5783 317.242 32.7417 316.133C44.9388 237.667 55.3503 170.661 59.4244 144.451L59.5376 144.59C55.3503 144.565 52.169 144.54 50.0063 144.527C48.9374 144.527 48.1327 144.502 47.5668 144.502C47.0261 144.502 46.7369 144.477 46.7369 144.477L46.7747 144.464Z" fill="#014B5B"/>
<path d="M271.44 144.464L292.867 319.672H285.825L258.652 144.464H271.44Z" fill="white"/>
<path d="M271.44 144.464C271.44 144.464 271.151 144.476 270.61 144.489C270.044 144.489 269.239 144.502 268.171 144.514C266.008 144.527 262.827 144.552 258.639 144.577L258.752 144.439C262.852 170.661 273.339 237.767 285.636 316.372C285.812 317.481 285.976 318.589 286.139 319.622L285.812 319.345C288.277 319.345 290.616 319.345 292.854 319.345L292.527 319.71C286.605 270.867 281.298 227.099 277.476 195.524C275.589 179.73 274.068 166.984 273.012 158.167C272.496 153.772 272.094 150.358 271.817 148.016C271.691 146.869 271.591 145.988 271.515 145.371C271.453 144.766 271.427 144.451 271.427 144.451C271.427 144.451 271.478 144.741 271.553 145.32C271.629 145.925 271.742 146.794 271.893 147.927C272.182 150.245 272.622 153.633 273.175 157.991C274.269 166.782 275.866 179.49 277.828 195.259C281.726 226.885 287.133 270.703 293.168 319.634C293.194 319.811 293.068 319.975 292.879 320H292.841C290.603 320 288.264 320 285.8 320C285.636 320 285.498 319.874 285.473 319.723C285.309 318.702 285.146 317.581 284.97 316.473C272.873 237.843 262.537 170.712 258.501 144.476C258.501 144.413 258.539 144.35 258.602 144.338H258.627C262.839 144.363 266.046 144.388 268.221 144.401C269.277 144.401 270.069 144.426 270.635 144.426C271.176 144.426 271.427 144.451 271.427 144.451L271.44 144.464Z" fill="#014B5B"/>
<path d="M298.5 132.776H4.5V144.464H298.5V132.776Z" fill="#014B5B"/>
<path d="M130.784 145.937C130.784 145.937 143.585 144.816 154.26 145.282L153.481 151.655C176.492 152.764 209.411 155.232 218.766 160.585C233.29 168.91 234.346 184.075 230.963 195.335C227.568 206.595 209.097 281.459 209.097 281.459L174.907 272.705L189.984 200.222L111.419 200.713L130.796 145.925L130.784 145.937Z" fill="#014B5B"/>
<path d="M99.738 145.371C99.738 145.371 91.6528 153.961 86.6105 167.979C83.0645 177.841 84.8123 192.615 89.9678 197.199C94.746 201.444 100.983 203.673 107.371 203.673H125.1L128.734 278.651L170.531 278.059C170.531 278.059 171.638 181.619 170.531 168.924C168.834 149.515 132.934 145.938 132.934 145.938L99.738 145.358V145.371Z" fill="#014B5B"/>
<path d="M103.85 150.799C103.85 150.799 104.013 150.774 104.327 150.761C104.68 150.761 105.145 150.749 105.723 150.723C106.993 150.711 108.804 150.686 111.105 150.66C115.82 150.635 122.573 150.597 130.91 150.56C135.097 150.547 139.674 150.534 144.578 150.509C149.52 150.459 154.889 151.177 159.981 153.532C162.509 154.716 164.923 156.416 166.822 158.671C167.752 159.817 168.544 161.089 169.198 162.449C169.789 163.835 170.267 165.283 170.544 166.795C170.682 167.55 170.77 168.306 170.846 169.074C170.883 169.843 170.934 170.598 170.971 171.367C171.059 172.903 171.072 174.452 171.122 176.001C171.198 179.112 171.235 182.274 171.26 185.473C171.424 211.041 171.172 234.19 170.996 250.941C170.871 259.292 170.783 266.055 170.707 270.779C170.657 273.096 170.619 274.897 170.594 276.169C170.569 276.761 170.556 277.227 170.544 277.567C170.531 277.882 170.519 278.046 170.506 278.046C170.506 278.046 170.481 277.882 170.481 277.567C170.481 277.215 170.481 276.749 170.468 276.169C170.468 274.897 170.468 273.083 170.468 270.779C170.481 266.055 170.519 259.292 170.544 250.941C170.607 234.19 170.783 211.053 170.619 185.485C170.569 182.299 170.531 179.138 170.481 176.027C170.431 174.477 170.418 172.928 170.33 171.404C170.292 170.649 170.242 169.88 170.204 169.125C170.129 168.382 170.053 167.638 169.915 166.908C169.651 165.447 169.198 164.049 168.632 162.714C168.016 161.404 167.249 160.182 166.357 159.074C164.521 156.895 162.207 155.232 159.73 154.074C154.763 151.756 149.444 151.013 144.59 151.051C139.674 151.051 135.097 151.026 130.91 151.026C122.573 150.988 115.82 150.95 111.105 150.925C108.791 150.9 106.993 150.875 105.723 150.862C105.132 150.849 104.667 150.837 104.327 150.824C104.013 150.824 103.85 150.799 103.85 150.786V150.799Z" fill="white"/>
<path d="M202.621 185.763C202.747 185.914 199.364 188.798 195.881 192.992C192.36 197.161 190.122 201.003 189.946 200.902C189.871 200.864 190.349 199.844 191.279 198.295C192.21 196.746 193.618 194.68 195.391 192.564C197.164 190.448 198.949 188.698 200.307 187.514C201.665 186.33 202.583 185.687 202.634 185.75L202.621 185.763Z" fill="white"/>
<path d="M205.928 193.332C206.004 193.496 202.483 195.234 198.057 197.211C193.643 199.189 189.997 200.65 189.921 200.486C189.846 200.322 193.366 198.584 197.793 196.607C202.206 194.629 205.853 193.168 205.928 193.332Z" fill="white"/>
<path d="M124.371 183.584C124.459 183.584 124.497 184.781 124.547 186.708C124.598 188.635 124.673 191.28 124.836 194.214C125 197.136 125.226 199.781 125.39 201.708C125.553 203.623 125.654 204.819 125.566 204.832C125.478 204.844 125.214 203.673 124.937 201.771C124.648 199.857 124.359 197.212 124.183 194.265C124.019 191.317 124.019 188.647 124.095 186.72C124.17 184.793 124.296 183.597 124.384 183.609L124.371 183.584Z" fill="white"/>
<path d="M245.763 132.775V125.181H294.2V132.775C294.2 132.775 245.185 132.196 245.763 132.775Z" fill="white"/>
<path d="M245.763 132.776C245.688 132.486 251.007 132.347 259.696 132.297C268.385 132.247 280.506 132.297 294.212 132.448L293.885 132.776C293.885 130.345 293.885 127.801 293.885 125.193V125.168L294.212 125.496C273.389 125.496 255.219 125.433 245.776 125.332L245.939 125.168C245.889 127.612 245.851 129.514 245.826 130.874C245.814 131.466 245.801 131.932 245.789 132.31C245.789 132.625 245.776 132.776 245.763 132.763C245.763 132.75 245.763 132.574 245.738 132.221C245.738 131.844 245.713 131.352 245.701 130.735C245.675 129.413 245.638 127.549 245.587 125.168C245.587 125.08 245.65 125.005 245.738 125.005C255.182 124.904 273.351 124.841 294.175 124.841C294.351 124.841 294.501 124.992 294.501 125.168V125.193C294.501 127.788 294.501 130.345 294.501 132.776C294.501 132.952 294.351 133.103 294.175 133.103C280.506 132.965 268.41 132.826 259.658 132.738C255.358 132.713 251.887 132.7 249.423 132.687C247.033 132.687 245.688 132.713 245.738 132.776H245.763Z" fill="#014B5B"/>
<path d="M283.575 128.002C283.575 128.179 275.074 128.33 264.587 128.33C254.1 128.33 245.6 128.179 245.6 128.002C245.6 127.826 254.1 127.675 264.587 127.675C275.074 127.675 283.575 127.826 283.575 128.002Z" fill="#014B5B"/>
<path d="M294.074 129.741C294.074 129.917 285.574 130.068 275.087 130.068C264.6 130.068 256.1 129.917 256.1 129.741C256.1 129.564 264.6 129.413 275.087 129.413C285.574 129.413 294.074 129.564 294.074 129.741Z" fill="#014B5B"/>
<path d="M290.943 123.305H243.06V125.169H290.943V123.305Z" fill="white"/>
<path d="M290.943 125.181C290.943 125.181 290.918 125.017 290.905 124.702C290.905 124.35 290.88 123.896 290.855 123.304L290.943 123.392C285.46 123.531 266.083 123.632 243.06 123.632C243.714 122.977 243.236 123.455 243.387 123.304V123.783V124.261C243.387 124.576 243.387 124.879 243.387 125.181L243.06 124.853C256.301 124.904 268.196 124.954 276.872 124.992C281.16 125.03 284.643 125.068 287.133 125.093C288.302 125.118 289.245 125.13 289.937 125.143C290.578 125.156 290.93 125.168 290.943 125.193C290.955 125.206 290.641 125.219 290.025 125.244C289.346 125.244 288.428 125.269 287.296 125.294C284.832 125.319 281.374 125.357 277.111 125.395C268.385 125.433 256.389 125.483 243.06 125.534C242.884 125.534 242.733 125.382 242.733 125.206C242.733 124.904 242.733 124.602 242.733 124.287V123.808V123.569V123.355V123.329C242.884 123.178 242.406 123.657 243.06 123.002C266.083 123.002 285.46 123.103 290.943 123.241C290.993 123.241 291.031 123.279 291.031 123.317C291.006 123.934 290.993 124.4 290.981 124.765C290.968 125.068 290.955 125.206 290.943 125.193V125.181Z" fill="#014B5B"/>
<path d="M94.381 229.09L84.749 319.673H89.565L103.849 229.09H94.381Z" fill="#014B5B"/>
<path d="M289.019 120.962H247.159V123.305H289.019V120.962Z" fill="#014B5B"/>
<path d="M289.019 108.934H247.159V111.276H289.019V108.934Z" fill="#014B5B"/>
<path d="M288.956 111.39H248.555V120.962H288.956V111.39Z" fill="white"/>
<path d="M288.969 120.962C288.969 120.962 288.944 120.723 288.931 120.282C288.931 119.803 288.906 119.173 288.881 118.393C288.856 116.705 288.818 114.35 288.78 111.39L288.969 111.579C279.991 111.667 265.229 111.717 248.568 111.717C249.221 111.062 248.744 111.541 248.895 111.39V111.692V111.994V112.611V113.833C248.895 114.639 248.895 115.445 248.895 116.251C248.895 117.851 248.895 119.425 248.895 120.962L248.568 120.634C259.998 120.697 270.044 120.748 277.3 120.786C280.871 120.823 283.763 120.861 285.825 120.874C286.793 120.886 287.561 120.912 288.139 120.912C288.667 120.924 288.956 120.937 288.969 120.949C288.981 120.962 288.73 120.975 288.214 120.987C287.649 120.987 286.894 121.012 285.964 121.025C283.914 121.05 281.06 121.075 277.514 121.113C270.195 121.151 260.086 121.201 248.555 121.264C248.379 121.264 248.228 121.126 248.228 120.949C248.228 119.4 248.228 117.826 248.228 116.226C248.228 115.433 248.228 114.627 248.228 113.808V112.586V111.969V111.377C248.379 111.213 247.901 111.692 248.555 111.037C265.216 111.037 279.978 111.087 288.956 111.176C289.057 111.176 289.145 111.264 289.145 111.365C289.095 114.375 289.069 116.768 289.044 118.481C289.019 119.249 289.007 119.854 288.994 120.332C288.981 120.748 288.969 120.949 288.956 120.937L288.969 120.962Z" fill="#014B5B"/>
<path d="M289.057 123.304H287.674C288.743 118.367 288.818 113.568 287.674 108.921H289.007C289.686 108.921 290.252 109.475 290.252 110.168V122.108C290.252 122.763 289.723 123.304 289.057 123.304Z" fill="#014B5B"/>
<path d="M285.096 114.992C285.096 115.168 276.96 115.319 266.913 115.319C256.867 115.319 248.731 115.168 248.731 114.992C248.731 114.815 256.867 114.664 266.913 114.664C276.96 114.664 285.096 114.815 285.096 114.992Z" fill="#014B5B"/>
<path d="M288.403 117.7C288.403 117.876 279.437 118.027 268.384 118.027C257.332 118.027 248.354 117.876 248.354 117.7C248.354 117.523 257.319 117.372 268.384 117.372C279.45 117.372 288.403 117.523 288.403 117.7Z" fill="#014B5B"/>
<path d="M235.54 91.4769L223.922 132.776H144.138C144.138 129.652 146.627 127.108 149.746 127.045L169.198 126.629L178.956 88.2274C179.497 86.0736 181.458 84.5874 183.671 84.6126L231.026 85.3809C234.17 85.4313 236.408 88.4415 235.553 91.4769H235.54Z" fill="#FFA93D"/>
<path d="M208.179 110.823C208.179 113.204 206.255 115.118 203.891 115.118C201.527 115.118 199.603 113.191 199.603 110.823C199.603 108.455 201.527 106.528 203.891 106.528C206.255 106.528 208.179 108.455 208.179 110.823Z" fill="white"/>
<path d="M297.821 96.3516H240.784V109.74H297.821V96.3516Z" fill="white" stroke="#014B5B" stroke-width="0.5" stroke-linecap="round" stroke-linejoin="round"/>
<path d="M257.885 109.677C256.187 111.378 253.849 112.423 251.271 112.423C246.103 112.423 241.916 108.229 241.916 103.052C241.916 97.8758 246.103 93.6816 251.271 93.6816C253.61 93.6816 255.76 94.5507 257.395 95.9739" stroke="#014B5B" stroke-width="0.5" stroke-linecap="round" stroke-linejoin="round"/>
<path d="M267.856 109.677C266.159 111.378 263.82 112.423 261.242 112.423C256.074 112.423 251.887 108.229 251.887 103.052C251.887 97.8758 256.074 93.6816 261.242 93.6816C263.581 93.6816 265.731 94.5507 267.378 95.9739" stroke="#014B5B" stroke-width="0.5" stroke-linecap="round" stroke-linejoin="round"/>
<path d="M277.828 109.677C276.13 111.378 273.791 112.423 271.214 112.423C266.046 112.423 261.858 108.229 261.858 103.052C261.858 97.8758 266.046 93.6816 271.214 93.6816C273.553 93.6816 275.703 94.5507 277.337 95.9739" stroke="#014B5B" stroke-width="0.5" stroke-linecap="round" stroke-linejoin="round"/>
<path d="M287.786 109.677C286.089 111.378 283.75 112.423 281.172 112.423C276.004 112.423 271.817 108.229 271.817 103.052C271.817 97.8758 276.004 93.6816 281.172 93.6816C283.511 93.6816 285.661 94.5507 287.296 95.9739" stroke="#014B5B" stroke-width="0.5" stroke-linecap="round" stroke-linejoin="round"/>
<path d="M297.758 109.677C296.06 111.378 293.722 112.423 291.144 112.423C285.976 112.423 281.789 108.229 281.789 103.052C281.789 97.8758 285.976 93.6816 291.144 93.6816C293.483 93.6816 295.633 94.5507 297.268 95.9739" stroke="#014B5B" stroke-width="0.5" stroke-linecap="round" stroke-linejoin="round"/>
<path d="M293.306 104.942C293.306 105.118 281.776 105.269 267.567 105.269C253.358 105.269 241.827 105.118 241.827 104.942C241.827 104.765 253.345 104.614 267.567 104.614C281.788 104.614 293.306 104.765 293.306 104.942Z" fill="#014B5B"/>
<path d="M297.783 101.692C297.783 101.868 286.252 102.019 272.043 102.019C257.834 102.019 246.304 101.868 246.304 101.692C246.304 101.515 257.822 101.364 272.043 101.364C286.265 101.364 297.783 101.515 297.783 101.692Z" fill="#014B5B"/>
<path d="M121.366 40.8706L111.96 26.3864C110.401 23.3132 106.83 21.3862 103.397 21.7766C99.9642 22.1671 96.9212 24.8372 96.0787 28.1875C95.2363 31.5377 96.6697 35.3414 99.5115 37.2936C96.3679 35.9333 92.4448 38.5279 91.8412 41.9034C91.2376 45.2788 93.413 48.7424 96.4308 50.3546C98.8451 51.6393 102.278 51.677 103.887 49.4729C104.944 52.4453 108.112 54.3975 111.256 54.3598C114.4 54.322 117.38 52.4705 119.153 49.876C120.926 47.2814 121.579 44.0193 121.353 40.8706H121.366Z" fill="#014B5B"/>
<path d="M165.124 22.7589C165.25 19.6983 162.257 16.7385 159.277 17.3682C160.736 16.1969 162.232 15.0004 163.276 13.4512C164.319 11.902 164.885 9.89942 164.307 8.12353C163.603 5.9446 161.415 4.59694 159.239 3.89162C155.505 2.66991 151.355 2.78327 147.696 4.21909C147.784 2.74548 146.59 1.43561 145.219 0.906618C143.848 0.37763 141.95 -0.0631933 140.478 0.0123764C137.574 0.188706 136.58 0.0627562 133.827 1.03257C131.085 2.00238 129.287 3.50118 128.118 6.17131C117.593 8.16131 112.312 18.3632 111.042 24.9756L153.191 36.903C154.951 37.0163 156.762 37.0541 158.422 36.4748C160.082 35.8954 161.591 34.5729 161.93 32.8474C162.27 31.1093 161.063 29.0941 159.315 28.9682C162.32 28.414 165.011 25.832 165.137 22.7715L165.124 22.7589Z" fill="#014B5B"/>
<path d="M155.077 14.9248C152.349 10.441 147.231 7.50633 141.988 7.44336L138.769 10.0757C143.585 9.849 148.212 12.6073 151.091 16.4865C153.971 20.3532 155.266 25.2022 155.706 30.0135C158.058 25.3156 157.819 19.4212 155.09 14.9248H155.077Z" fill="#014B5B"/>
<path d="M157.328 23.9424L157.303 23.829C155.756 17.2293 150.488 12.1661 143.848 10.894L140.981 10.3398L123.918 24.0935L123.377 42.7844L124.434 62.5963L124.522 63.0497C131.903 71.6521 138.768 73.4532 142.918 71.5765C146.049 70.1659 147.847 66.866 147.432 63.4528C147.206 61.6013 147.193 59.435 147.91 57.7598C149.167 54.8252 154.373 54.4978 156.548 47.1675C158.296 41.2856 157.341 23.9298 157.341 23.9298L157.328 23.9424Z" fill="white" stroke="#014B5B" stroke-width="0.5" stroke-linecap="round" stroke-linejoin="round"/>
<path d="M154.587 20.9705C154.361 20.6935 154.034 20.5675 153.719 20.4919C153.393 20.4164 153.066 20.4038 152.726 20.4164C152.701 20.4164 152.663 20.4164 152.638 20.4164C152.475 20.4164 152.299 20.4416 152.135 20.4793C151.934 20.5171 151.745 20.5675 151.557 20.6431C151.532 20.6431 151.519 20.6431 151.494 20.6683C151.293 20.7438 151.091 20.8446 150.89 20.9705C150.865 20.9831 150.84 20.9957 150.827 21.0083C150.827 21.0083 150.765 21.0335 150.727 21.0587C150.387 21.2854 150.06 21.5877 149.897 22.0033C149.733 22.419 149.796 22.9857 150.123 23.2502C150.337 23.4266 150.614 23.4392 150.865 23.4518C151.242 23.4769 151.607 23.4895 151.984 23.5147C152.462 23.5399 152.952 23.5651 153.418 23.4518C153.883 23.3384 154.348 23.0613 154.612 22.5953C154.889 22.1167 154.914 21.4114 154.575 20.9831L154.587 20.9705Z" fill="#014B5B"/>
<path d="M141.522 20.9705C141.296 20.6935 140.969 20.5675 140.655 20.4919C140.328 20.4164 140.001 20.4038 139.661 20.4164C139.636 20.4164 139.598 20.4164 139.573 20.4164C139.41 20.4164 139.234 20.4416 139.07 20.4793C138.869 20.5171 138.68 20.5675 138.492 20.6431C138.467 20.6431 138.454 20.6431 138.429 20.6683C138.228 20.7438 138.027 20.8446 137.825 20.9705C137.8 20.9831 137.775 20.9957 137.762 21.0083C137.762 21.0083 137.7 21.0335 137.662 21.0587C137.322 21.2854 136.995 21.5877 136.832 22.0033C136.668 22.419 136.731 22.9857 137.058 23.2502C137.272 23.4266 137.549 23.4392 137.8 23.4518C138.177 23.4769 138.542 23.4895 138.919 23.5147C139.397 23.5399 139.888 23.5651 140.353 23.4518C140.818 23.3384 141.283 23.0613 141.547 22.5953C141.824 22.1167 141.849 21.4114 141.51 20.9831L141.522 20.9705Z" fill="#014B5B"/>
<path d="M138.605 32.7841C138.618 32.1795 138.467 31.4868 138.831 30.9452L138.932 30.8696C139.347 30.6681 139.825 30.5422 140.24 30.7437C140.604 30.9326 140.818 31.3482 140.893 31.7639C140.994 32.3306 140.893 32.9226 140.805 33.4894C140.755 33.7917 140.705 34.1065 140.567 34.3836C140.441 34.6607 140.214 34.9 139.925 34.9756C139.46 35.1015 138.97 34.7363 138.768 34.2703C138.567 33.8043 138.592 33.2753 138.605 32.7715V32.7841Z" fill="#014B5B"/>
<path d="M151.167 32.7841C151.18 32.1795 151.029 31.4868 151.393 30.9452L151.494 30.8696C151.909 30.6681 152.387 30.5422 152.802 30.7437C153.166 30.9326 153.38 31.3482 153.456 31.7639C153.556 32.3306 153.456 32.9226 153.367 33.4894C153.317 33.7917 153.267 34.1065 153.129 34.3836C153.003 34.6607 152.777 34.9 152.487 34.9756C152.022 35.1015 151.532 34.7363 151.33 34.2703C151.129 33.8043 151.154 33.2753 151.167 32.7715V32.7841Z" fill="#014B5B"/>
<path d="M151.519 54.5107L148.401 56.9668C147.759 57.8358 147.52 58.0373 147.608 59.1079C142.667 58.453 138.655 57.9366 135.021 54.5107C140.969 56.1985 144.993 56.8534 151.519 54.5107Z" fill="#014B5B"/>
<path d="M144.641 39.435C144.603 39.3342 145.307 39.0697 146.15 38.2888C146.564 37.8984 147.005 37.3694 147.344 36.7019C147.508 36.3744 147.658 35.9966 147.759 35.6061C147.822 35.4172 147.834 35.1401 147.847 35.266C147.935 35.3038 147.746 35.2535 147.533 35.3416C146.627 35.5557 145.76 35.7572 144.917 35.9588C144.754 35.9966 144.603 35.8958 144.565 35.7447V35.6943C144.427 33.3768 144.427 31.7646 144.565 31.7646C144.703 31.7646 144.93 33.3516 145.169 35.6565L144.804 35.392C145.647 35.1779 146.502 34.9512 147.407 34.7119C147.608 34.6993 147.948 34.4726 148.375 34.863C148.551 35.0771 148.514 35.3164 148.488 35.4424L148.4 35.7824C148.275 36.2233 148.099 36.6263 147.897 36.9916C147.495 37.7221 146.967 38.2762 146.476 38.6541C145.471 39.4224 144.678 39.5231 144.666 39.4476L144.641 39.435Z" fill="#014B5B"/>
<path d="M124.66 35.8325C134.757 29.4469 140.529 18.6404 142.226 7.53165C127.188 2.50626 114.978 12.1918 111.18 23.628C107.383 35.0768 113.934 47.0924 124.472 52.9239" fill="#014B5B"/>
<path d="M128.106 47.1179C125.691 47.4832 122.384 46.2363 121.165 45.0901C119.48 43.5158 118.675 41.7525 118.612 39.4476C118.549 37.1427 119.618 34.7497 121.58 33.5531C123.541 32.3566 126.395 32.6337 127.854 34.4096" fill="white"/>
<path d="M128.106 47.1179C125.691 47.4832 122.384 46.2363 121.165 45.0901C119.48 43.5158 118.675 41.7525 118.612 39.4476C118.549 37.1427 119.618 34.7497 121.58 33.5531C123.541 32.3566 126.395 32.6337 127.854 34.4096" stroke="#014B5B" stroke-width="0.5" stroke-linecap="round" stroke-linejoin="round"/>
<path d="M126.547 43.3895C126.547 43.3895 126.295 43.4776 125.905 43.2887C125.516 43.1124 125.05 42.6086 124.824 41.8781C124.711 41.5128 124.635 41.135 124.598 40.6815C124.572 40.2407 124.572 39.7369 124.837 39.2205C125.088 38.6915 125.805 38.3515 126.408 38.49C127.024 38.5782 127.54 39.0064 127.892 39.4472C128.081 39.6739 128.232 39.9132 128.37 40.1274L127.804 40.4422C127.037 38.7041 125.616 37.5958 124.522 37.0794C123.416 36.5378 122.636 36.4622 122.649 36.3615C122.649 36.2985 123.466 36.2103 124.698 36.6763C125.905 37.1172 127.527 38.2507 128.395 40.1777C128.47 40.3415 128.395 40.5304 128.232 40.606C128.081 40.6689 127.917 40.606 127.829 40.4926C127.691 40.2785 127.54 40.0644 127.377 39.8629C126.811 39.0442 125.704 38.8301 125.352 39.5228C124.987 40.1903 125.151 41.1224 125.264 41.7521C125.402 42.407 125.729 42.8479 126.031 43.062C126.32 43.2887 126.547 43.3265 126.534 43.3769L126.547 43.3895Z" fill="#014B5B"/>
<path d="M143.459 45.0137C143.459 45.0137 142.78 45.4041 141.661 45.0515C140.579 44.7366 139.121 43.3134 139.536 41.3359C139.611 41.0966 139.775 40.8322 140.014 40.681C140.252 40.5173 140.529 40.4795 140.755 40.4795C141.233 40.4921 141.585 40.6432 141.925 40.7314C142.528 40.9203 143.119 41.1092 143.736 41.2982C144.767 41.6382 145.383 41.9027 145.358 41.9909C145.332 42.0791 144.666 41.9909 143.61 41.7516C142.981 41.6004 142.378 41.4619 141.761 41.3108C141.057 41.1218 140.29 40.9203 140.152 41.5375C139.976 42.1546 140.215 42.9607 140.542 43.4771C140.881 44.0313 141.372 44.3965 141.824 44.6106C142.755 45.0263 143.446 44.9003 143.459 45.0011V45.0137Z" fill="#014B5B"/>
<path d="M118.109 45.8459C118.084 45.9089 116.927 45.5688 115.342 44.4604C113.771 43.3647 111.834 41.3873 110.652 38.6542C109.483 35.9211 109.382 33.1376 109.671 31.2483C109.961 29.3339 110.501 28.2633 110.564 28.2885C110.677 28.3263 110.288 29.4347 110.124 31.2987C109.961 33.1502 110.124 35.7825 111.243 38.3897C112.362 40.9968 114.16 42.9365 115.606 44.0826C117.065 45.2539 118.134 45.7451 118.084 45.8459H118.109Z" fill="white"/>
<path d="M46.7749 144.464L46.272 148.658L57.8529 155.636L59.5756 144.464H46.7749Z" fill="#014B5B"/>
<path d="M258.652 143.935L259.658 150.207L272.509 154.376L271.666 143.104L258.652 143.935Z" fill="#014B5B"/>
</g>
<defs>
<filter id="filter0_d_18_1598" x="0.5" y="0" width="302" height="328" filterUnits="userSpaceOnUse" color-interpolation-filters="sRGB">
<feFlood flood-opacity="0" result="BackgroundImageFix"/>
<feColorMatrix in="SourceAlpha" type="matrix" values="0 0 0 0 0 0 0 0 0 0 0 0 0 0 0 0 0 0 127 0" result="hardAlpha"/>
<feOffset dy="4"/>
<feGaussianBlur stdDeviation="2"/>
<feComposite in2="hardAlpha" operator="out"/>
<feColorMatrix type="matrix" values="0 0 0 0 0 0 0 0 0 0 0 0 0 0 0 0 0 0 0.25 0"/>
<feBlend mode="normal" in2="BackgroundImageFix" result="effect1_dropShadow_18_1598"/>
<feBlend mode="normal" in="SourceGraphic" in2="effect1_dropShadow_18_1598" result="shape"/>
</filter>
<clipPath id="clip0_18_1598">
<rect width="294" height="320" fill="white" transform="translate(4.5)"/>
</clipPath>
</defs>
</svg>
