<svg width="103" height="111" viewBox="0 0 103 111" fill="none" xmlns="http://www.w3.org/2000/svg">
<path d="M69.905 19.0045V23.7196L63.2694 27.5356V19.5539C63.2721 16.6603 62.1255 13.8841 60.0817 11.8356C58.038 9.78722 55.2644 8.63427 52.3708 8.6303H50.6501C49.2157 8.6303 47.7954 8.91286 46.4702 9.46186C45.145 10.0108 43.941 10.8155 42.9268 11.8299C41.9127 12.8443 41.1083 14.0485 40.5596 15.3738C40.0109 16.6991 39.7287 18.1195 39.729 19.5539V46.9129C39.729 48.1865 39.0547 49.3578 37.9309 50.0046L28.1586 55.6413L21.4755 51.7753L30.3038 46.6881C31.1516 46.1963 31.8555 45.4908 32.3455 44.642C32.8354 43.7932 33.0941 42.8307 33.0959 41.8507V19.0295C33.0986 14.4998 34.8991 10.1564 38.1021 6.95345C41.305 3.75049 45.6484 1.94991 50.1781 1.94727H52.8503C55.0906 1.94628 57.3091 2.38681 59.379 3.24366C61.4489 4.10052 63.3297 5.35691 64.9138 6.94101C66.4979 8.52512 67.7543 10.4059 68.6111 12.4758C69.468 14.5457 69.906 16.7642 69.905 19.0045ZM63.2694 76.1674V83.747L54.2913 78.5599C53.4383 78.0821 52.4769 77.8312 51.4992 77.8312C50.5215 77.8312 49.5602 78.0821 48.7071 78.5599L39.729 83.747L33.0934 87.563L28.9552 89.958C25.0355 92.2207 20.3779 92.8349 16.0056 91.6656C11.6333 90.4963 7.90405 87.6392 5.63706 83.722L4.96276 82.5482L4.28846 81.4044C3.16645 79.4627 2.43833 77.3188 2.14578 75.0955C1.85322 72.8721 2.00196 70.6128 2.58349 68.447C3.16502 66.2811 4.16793 64.2512 5.53482 62.4734C6.9017 60.6956 8.60575 59.2048 10.5494 58.0862L14.7875 55.6388L21.473 59.5072L14.2406 63.6729C12.9969 64.3875 11.9063 65.3403 11.0312 66.4768C10.1562 67.6133 9.51374 68.9112 9.14075 70.2962C8.76777 71.6812 8.67152 73.1262 8.85753 74.5484C9.04354 75.9707 9.50814 77.3423 10.2248 78.5848L11.0739 80.0583C11.7909 81.3029 12.746 82.394 13.8848 83.2693C15.0236 84.1446 16.3237 84.787 17.7108 85.1597C19.098 85.5324 20.5449 85.6281 21.9691 85.4414C23.3932 85.2547 24.7666 84.7893 26.0108 84.0716L33.0934 79.9809L39.729 76.1399L49.7036 70.3809L49.7286 70.4059C50.8274 69.7565 52.1735 69.7565 53.2699 70.4059H53.2948L63.2694 76.1674Z" stroke="#24707B" stroke-width="3" stroke-linecap="round" stroke-linejoin="round"/>
<path d="M33.0936 69.4305V79.9795L26.011 84.0702C24.7667 84.7878 23.3932 85.2531 21.9689 85.4396C20.5447 85.6261 19.0976 85.5302 17.7105 85.1572C16.3234 84.7843 15.0233 84.1417 13.8846 83.2661C12.7459 82.3906 11.7909 81.2992 11.0741 80.0544L10.225 78.5834C9.50837 77.3409 9.04377 75.9693 8.85776 74.5471C8.67175 73.1248 8.768 71.6798 9.14098 70.2948C9.51397 68.9098 10.1564 67.6119 11.0315 66.4754C11.9066 65.3389 12.9971 64.3861 14.2408 63.6715L21.4733 59.5058L30.3016 64.618C31.1485 65.1044 31.8525 65.8052 32.3426 66.65C32.8328 67.4948 33.0918 68.4538 33.0936 69.4305M92.7489 78.6084L91.8998 80.1069C90.4436 82.6052 88.0569 84.4249 85.2622 85.1677C82.4675 85.9105 79.4923 85.5158 76.9879 84.0702L69.9053 79.9795V69.4305C69.9053 67.4351 70.9791 65.6145 72.6973 64.618L81.5256 59.5058L88.7581 63.6715C90.0015 64.3896 91.0912 65.3458 91.9649 66.4854C92.8385 67.6249 93.479 68.9255 93.8496 70.3127C94.2202 71.7 94.3138 73.1467 94.1249 74.5701C93.9361 75.9936 93.4685 77.3658 92.7489 78.6084M48.7074 32.7213L39.7292 27.5342V19.5525C39.7289 18.1181 40.0111 16.6977 40.5598 15.3724C41.1085 14.0471 41.9129 12.8429 42.9271 11.8285C43.9412 10.8141 45.1453 10.0095 46.4704 9.46046C47.7956 8.91147 49.2159 8.62891 50.6503 8.62891H52.3735C55.2667 8.63354 58.0397 9.78678 60.0829 11.8351C62.1261 13.8835 63.2723 16.6593 63.2697 19.5525V27.5342L54.2915 32.7213C52.5708 33.7202 50.4281 33.7202 48.7049 32.7213H48.7074ZM74.8426 55.6399L65.0653 61.2765C63.944 61.9258 63.2697 63.0971 63.2697 64.3683V76.166L53.2951 70.4045H53.2701C52.1712 69.7552 50.8252 69.7552 49.7288 70.4045L49.7038 70.3795L39.7292 76.141V64.3683C39.7292 63.0946 39.0549 61.9258 37.9311 61.2765L28.1588 55.6399L37.9361 50.0033C39.0599 49.3539 39.7317 48.1826 39.7317 46.9115V35.1363L49.7063 40.8977L49.7313 40.8728C50.8301 41.5221 52.1762 41.5221 53.2726 40.8728L53.2976 40.8977L63.2722 35.1363V46.909C63.2722 48.1827 63.9465 49.3539 65.0703 50.0008L74.8426 55.6399Z" stroke="#24707B" stroke-width="3" stroke-linecap="round" stroke-linejoin="round"/>
<path d="M33.0936 69.4305V79.9795L26.011 84.0702C24.7667 84.7878 23.3932 85.2531 21.9689 85.4396C20.5447 85.6261 19.0976 85.5302 17.7105 85.1572C16.3234 84.7843 15.0233 84.1417 13.8846 83.2661C12.7459 82.3906 11.7909 81.2992 11.0741 80.0544L10.225 78.5834C9.50837 77.3409 9.04377 75.9693 8.85776 74.5471C8.67175 73.1248 8.768 71.6798 9.14098 70.2948C9.51397 68.9098 10.1564 67.6119 11.0315 66.4754C11.9066 65.3389 12.9971 64.3861 14.2408 63.6715L21.4733 59.5058L30.3016 64.618C31.1485 65.1044 31.8525 65.8052 32.3426 66.65C32.8328 67.4948 33.0918 68.4538 33.0936 69.4305M92.7489 78.6084L91.8998 80.1069C90.4436 82.6052 88.0569 84.4249 85.2622 85.1677C82.4675 85.9105 79.4923 85.5158 76.9879 84.0702L69.9053 79.9795V69.4305C69.9053 67.4351 70.9791 65.6145 72.6973 64.618L81.5256 59.5058L88.7581 63.6715C90.0015 64.3896 91.0912 65.3458 91.9649 66.4854C92.8385 67.6249 93.479 68.9255 93.8496 70.3127C94.2202 71.7 94.3138 73.1467 94.1249 74.5701C93.9361 75.9936 93.4685 77.3658 92.7489 78.6084M48.7074 32.7213L39.7292 27.5342V19.5525C39.7289 18.1181 40.0111 16.6977 40.5598 15.3724C41.1085 14.0471 41.9129 12.8429 42.9271 11.8285C43.9412 10.8141 45.1453 10.0095 46.4704 9.46046C47.7956 8.91147 49.2159 8.62891 50.6503 8.62891H52.3735C55.2667 8.63354 58.0397 9.78678 60.0829 11.8351C62.1261 13.8835 63.2723 16.6593 63.2697 19.5525V27.5342L54.2915 32.7213C52.5708 33.7202 50.4281 33.7202 48.7049 32.7213H48.7074ZM74.8426 55.6399L65.0653 61.2765C63.944 61.9258 63.2697 63.0971 63.2697 64.3683V76.166L53.2951 70.4045H53.2701C52.1712 69.7552 50.8252 69.7552 49.7288 70.4045L49.7038 70.3795L39.7292 76.141V64.3683C39.7292 63.0946 39.0549 61.9258 37.9311 61.2765L28.1588 55.6399L37.9361 50.0033C39.0599 49.3539 39.7317 48.1826 39.7317 46.9115V35.1363L49.7063 40.8977L49.7313 40.8728C50.8301 41.5221 52.1762 41.5221 53.2726 40.8728L53.2976 40.8977L63.2722 35.1363V46.909C63.2722 48.1827 63.9465 49.3539 65.0703 50.0008L74.8426 55.6399Z" stroke="#24707B" stroke-width="3" stroke-linecap="round" stroke-linejoin="round"/>
<path d="M39.7285 64.3703V76.143L33.093 79.9815V69.4325C33.093 67.4371 32.0191 65.6165 30.3009 64.62L21.4726 59.5078L14.7871 55.6419L10.5465 53.1969C8.60333 52.0782 6.89982 50.5873 5.5334 48.8096C4.16697 47.0319 3.16444 45.0022 2.58317 42.8367C2.00189 40.6711 1.85326 38.4122 2.1458 36.1892C2.43833 33.9662 3.16628 31.8227 4.288 29.8812L4.9623 28.7324L5.6341 27.5587C7.90151 23.6419 11.631 20.7853 16.0032 19.6165C20.3755 18.4477 25.0329 19.0622 28.9523 21.3252L33.0905 23.7202V31.3023L26.0078 27.2115C24.7635 26.494 23.39 26.0287 21.9657 25.8421C20.5415 25.6556 19.0945 25.7516 17.7073 26.1245C16.3202 26.4974 15.0201 27.1401 13.8814 28.0156C12.7427 28.8912 11.7877 29.9825 11.0709 31.2273L10.2218 32.6983C9.50519 33.9408 9.04058 35.3124 8.85457 36.7347C8.66856 38.1569 8.76481 39.6019 9.1378 40.9869C9.51078 42.372 10.1532 43.6698 11.0283 44.8063C11.9034 45.9428 12.9939 46.8956 14.2376 47.6103L21.4701 51.7759L28.1556 55.6419L37.9329 61.2785C39.0567 61.9278 39.7285 63.0991 39.7285 64.3703Z" stroke="#24707B" stroke-width="3" stroke-linecap="round" stroke-linejoin="round"/>
<path d="M30.3016 46.6878L21.4733 51.775L14.2408 47.6093C12.9971 46.8947 11.9066 45.9419 11.0315 44.8054C10.1564 43.6689 9.51397 42.3711 9.14098 40.986C8.768 39.601 8.67175 38.156 8.85776 36.7338C9.04377 35.3115 9.50837 33.9399 10.225 32.6974L11.0741 31.2239C11.7911 29.9794 12.7463 28.8882 13.885 28.0129C15.0238 27.1376 16.3239 26.4952 17.7111 26.1225C19.0982 25.7498 20.5452 25.6541 21.9693 25.8408C23.3934 26.0275 24.7668 26.493 26.011 27.2106L33.0936 31.3014V41.8504C33.0936 43.8458 32.0198 45.6889 30.3016 46.6878ZM81.5256 59.5069L72.6973 64.6191C71.8504 65.1055 71.1464 65.8063 70.6563 66.6511C70.1661 67.4959 69.9071 68.4549 69.9053 69.4316V92.2753C69.9066 94.5157 69.4663 96.7345 68.6096 98.8047C67.7529 100.875 66.4965 102.756 64.9124 104.34C63.3283 105.925 61.4474 107.181 59.3773 108.038C57.3072 108.895 55.0885 109.336 52.848 109.335H50.1758C45.6462 109.332 41.3028 107.532 38.0998 104.329C34.8969 101.126 33.0963 96.7824 33.0936 92.2528V87.5627L39.7292 83.7467V91.7283C39.7289 93.1629 40.0112 94.5835 40.5601 95.909C41.1089 97.2345 41.9135 98.4388 42.9279 99.4532C43.9424 100.468 45.1467 101.272 46.4722 101.821C47.7976 102.37 49.2182 102.652 50.6528 102.652H52.3735C55.2667 102.647 58.0397 101.494 60.0829 99.4457C62.1261 97.3973 63.2723 94.6215 63.2697 91.7283V64.3694C63.2697 63.0957 63.944 61.9269 65.0678 61.2776L74.8401 55.641L81.5256 59.5069Z" stroke="#24707B" stroke-width="3" stroke-linecap="round" stroke-linejoin="round"/>
<path d="M54.2913 78.5598L63.2694 83.7469V91.7286C63.2721 94.6222 62.1255 97.3984 60.0818 99.4469C58.038 101.495 55.2644 102.648 52.3708 102.652H50.6501C49.2157 102.652 47.7954 102.37 46.4702 101.821C45.145 101.272 43.941 100.467 42.9268 99.4526C41.9127 98.4382 41.1083 97.234 40.5596 95.9087C40.0109 94.5834 39.7287 93.163 39.729 91.7286V83.7469L48.7071 78.5598C49.5605 78.0816 50.5223 77.8305 51.5005 77.8305C52.4787 77.8305 53.438 78.0816 54.2913 78.5598ZM92.449 53.1963L88.2109 55.6412L81.5254 51.7753L88.7579 47.6096C90.0013 46.8915 91.091 45.9353 91.9646 44.7958C92.8383 43.6562 93.4787 42.3556 93.8494 40.9684C94.22 39.5811 94.3136 38.1344 94.1247 36.711C93.9359 35.2876 93.4683 33.9153 92.7487 32.6727L91.8996 31.1992C90.4503 28.6936 88.0655 26.866 85.2692 26.1182C82.473 25.3703 79.4942 25.7633 76.9876 27.2109L69.905 31.3016L63.2694 35.1426L53.2949 40.9016L53.2699 40.8766C52.171 41.526 50.8249 41.526 49.7286 40.8766L49.7036 40.9016L39.729 35.1426V27.5356L48.7071 32.7227C50.4278 33.7216 52.5731 33.7216 54.2938 32.7227L63.2719 27.5356L69.905 23.7195L74.0457 21.3245C77.9654 19.0618 82.623 18.4476 86.9953 19.6169C91.3676 20.7862 95.0969 23.6433 97.3639 27.5605L98.0382 28.7343L98.71 29.8806C99.832 31.8223 100.56 33.9662 100.853 36.1896C101.145 38.4129 100.996 40.6722 100.415 42.838C99.8334 45.0039 98.8305 47.0338 97.4636 48.8116C96.0967 50.5894 94.3927 52.0778 92.449 53.1963Z" stroke="#24707B" stroke-width="3" stroke-linecap="round" stroke-linejoin="round"/>
<path d="M65.0653 50.0047L74.8426 55.6413L65.0653 61.2779C63.944 61.9272 63.2697 63.0985 63.2697 64.3697V76.1674L53.2951 70.4059H53.2701C52.1712 69.7566 50.8252 69.7566 49.7288 70.4059L49.7038 70.3809L39.7292 76.1424V64.3697C39.7292 63.096 39.0549 61.9272 37.9311 61.2779L28.1588 55.6413L37.9361 50.0047C39.0599 49.3553 39.7317 48.1841 39.7317 46.9129V35.1377L49.7063 40.8992L49.7313 40.8742C50.8301 41.5235 52.1762 41.5235 53.2726 40.8742L53.2976 40.8992L63.2722 35.1377V46.9104C63.2722 48.1841 63.9465 49.3553 65.0703 50.0022M88.7606 47.6122L81.5256 51.7753L72.6973 46.6881C71.8496 46.1963 71.1456 45.4908 70.6557 44.642C70.1658 43.7932 69.907 42.8307 69.9053 41.8507V31.3017L76.9879 27.2109C79.4947 25.7636 82.4737 25.3709 85.27 26.1193C88.0663 26.8676 90.451 28.6958 91.8998 31.2018L92.7489 32.6727C93.4689 33.9154 93.9368 35.2879 94.1259 36.7116C94.3149 38.1353 94.2215 39.5823 93.8508 40.9698C93.4801 42.3574 92.8396 43.6582 91.9657 44.798C91.0918 45.9377 90.0043 46.894 88.7606 47.6122ZM33.0936 31.3017V41.8507C33.0936 43.8461 32.0198 45.6892 30.3016 46.6881L21.4733 51.7753L14.2408 47.6097C12.9971 46.8951 11.9066 45.9423 11.0315 44.8058C10.1564 43.6693 9.51397 42.3714 9.14098 40.9864C8.768 39.6013 8.67175 38.1564 8.85776 36.7341C9.04377 35.3119 9.50837 33.9402 10.225 32.6977L11.0741 31.2243C11.7911 29.9797 12.7463 28.8885 13.885 28.0132C15.0238 27.1379 16.3239 26.4956 17.7111 26.1229C19.0982 25.7502 20.5452 25.6544 21.9693 25.8411C23.3934 26.0278 24.7668 26.4933 26.011 27.2109L33.0936 31.3017ZM63.2697 83.747V91.7286C63.2723 94.6222 62.1257 97.3985 60.082 99.4469C58.0382 101.495 55.2646 102.648 52.371 102.652H50.6503C49.2159 102.652 47.7956 102.37 46.4704 101.821C45.1453 101.272 43.9412 100.467 42.9271 99.4526C41.9129 98.4383 41.1085 97.234 40.5598 95.9087C40.0111 94.5834 39.7289 93.163 39.7292 91.7286V83.747L48.7074 78.5599C49.5607 78.0817 50.5225 77.8306 51.5007 77.8306C52.4789 77.8306 53.4407 78.0817 54.294 78.5599L63.2697 83.747Z" stroke="#24707B" stroke-width="3" stroke-linecap="round" stroke-linejoin="round"/>
<path d="M98.7096 81.4041L98.0353 82.5504L97.361 83.7241C95.0936 87.641 91.3641 90.4975 86.9919 91.6663C82.6196 92.8351 77.9622 92.2206 74.0428 89.9576L69.9046 87.5626V79.9805L76.9872 84.0713C79.492 85.5167 82.4674 85.9109 85.2622 85.1677C88.0569 84.4244 90.4434 82.6042 91.8992 80.1054L92.7483 78.6095C93.4679 77.3669 93.9355 75.9946 94.1243 74.5712C94.3132 73.1478 94.2196 71.7011 93.849 70.3138C93.4783 68.9266 92.8379 67.626 91.9642 66.4864C91.0906 65.3469 90.0009 64.3907 88.7575 63.6726L81.525 59.5069L74.842 55.6409L65.0647 50.0043C64.5194 49.693 64.0661 49.2431 63.7507 48.7001C63.4354 48.1571 63.2692 47.5404 63.269 46.9125V35.1373L69.9046 31.2988V41.8478C69.9046 43.8432 70.9785 45.6863 72.6967 46.6853L81.525 51.7725L88.2105 55.6409L92.4511 58.0859C94.3945 59.2044 96.0982 60.6951 97.4649 62.4728C98.8316 64.2504 99.8343 66.28 100.416 68.4456C100.997 70.6111 101.146 72.8701 100.854 75.0932C100.561 77.3163 99.8337 79.46 98.7121 81.4016L98.7096 81.4041Z" stroke="#24707B" stroke-width="3" stroke-linecap="round" stroke-linejoin="round"/>
<path d="M74.842 55.6413L65.0647 61.2779C63.9434 61.9272 63.2691 63.0985 63.2691 64.3697V76.1674L53.2945 70.4059H53.2695C52.1707 69.7566 50.8246 69.7566 49.7282 70.4059L49.7032 70.3809L39.7286 76.1424V64.3697C39.7286 63.096 39.0543 61.9272 37.9305 61.2779L28.1582 55.6413L37.9355 50.0047C39.0593 49.3553 39.7311 48.1841 39.7311 46.9129V35.1377L49.7057 40.8992L49.7307 40.8742C50.8296 41.5235 52.1756 41.5235 53.272 40.8742L53.297 40.8992L63.2716 35.1377V46.9104C63.2716 48.1841 63.9459 49.3553 65.0697 50.0022L74.842 55.6413ZM88.76 47.6122L81.525 51.7753L72.6967 46.6881C71.849 46.1963 71.145 45.4908 70.6551 44.642C70.1652 43.7932 69.9064 42.8307 69.9047 41.8507V31.3017L76.9873 27.2109C79.4941 25.7636 82.4732 25.3709 85.2694 26.1193C88.0657 26.8676 90.4504 28.6958 91.8992 31.2018L92.7483 32.6727C93.4683 33.9154 93.9362 35.2879 94.1253 36.7116C94.3143 38.1353 94.2209 39.5823 93.8502 40.9698C93.4795 42.3574 92.839 43.6582 91.9651 44.798C91.0913 45.9377 90.0038 46.894 88.76 47.6122Z" stroke="#24707B" stroke-width="3" stroke-linecap="round" stroke-linejoin="round"/>
<path d="M51.499 57.5137C52.5335 57.5137 53.3721 56.6751 53.3721 55.6406C53.3721 54.6062 52.5335 53.7676 51.499 53.7676C50.4646 53.7676 49.626 54.6062 49.626 55.6406C49.626 56.6751 50.4646 57.5137 51.499 57.5137Z" fill="#24707B"/>
</svg>
