<svg width="30" height="34" viewBox="0 0 30 34" fill="none" xmlns="http://www.w3.org/2000/svg">
<path fill-rule="evenodd" clip-rule="evenodd" d="M29 25V11L19 1H9C7.93913 1 6.92172 1.42143 6.17157 2.17157C5.42143 2.92172 5 3.93913 5 5V25C5 26.0609 5.42143 27.0783 6.17157 27.8284C6.92172 28.5786 7.93913 29 9 29H25C26.0609 29 27.0783 28.5786 27.8284 27.8284C28.5786 27.0783 29 26.0609 29 25Z" stroke="#014B5B" stroke-width="2" stroke-linecap="round" stroke-linejoin="round"/>
<path d="M19 1V7C19 8.06087 19.4214 9.07828 20.1716 9.82843C20.9217 10.5786 21.9391 11 23 11H29M5 5C3.93913 5 2.92172 5.42143 2.17157 6.17157C1.42143 6.92172 1 7.93913 1 9V29C1 30.0609 1.42143 31.0783 2.17157 31.8284C2.92172 32.5786 3.93913 33 5 33H21C22.0609 33 23.0783 32.5786 23.8284 31.8284C24.5786 31.0783 25 30.0609 25 29" stroke="#014B5B" stroke-width="2" stroke-linecap="round" stroke-linejoin="round"/>
</svg>
