<svg width="31" height="31" viewBox="0 0 31 31" fill="none" xmlns="http://www.w3.org/2000/svg">
<mask id="path-1-inside-1_129_9111" fill="white">
<path fill-rule="evenodd" clip-rule="evenodd" d="M4.29231 0H4.17308C3.627 0 3.15723 2.23517e-08 2.74231 0.0977617C2.09998 0.251235 1.51268 0.579527 1.04549 1.04626C0.578296 1.513 0.249449 2.09996 0.0953845 2.7421C-8.9407e-08 3.15699 0 3.62434 0 4.17276V10.1338C0 10.6799 1.49012e-08 11.1496 0.0977693 11.5645C0.251255 12.2068 0.579572 12.794 1.04634 13.2612C1.51312 13.7283 2.10012 14.0572 2.74231 14.2112C3.15723 14.3066 3.62462 14.3066 4.17308 14.3066H10.1346C10.6807 14.3066 11.1505 14.3066 11.5654 14.2088C12.2077 14.0554 12.795 13.7271 13.2622 13.2603C13.7294 12.7936 14.0582 12.2066 14.2123 11.5645C14.3077 11.1496 14.3077 10.6823 14.3077 10.1338V4.17276C14.3077 3.62672 14.3077 3.15699 14.2099 2.7421C14.0564 2.09982 13.7281 1.51256 13.2613 1.04541C12.7946 0.578251 12.2076 0.24943 11.5654 0.0953772C11.1505 -8.9407e-08 10.6831 0 10.1346 0H4.29231ZM3.29792 2.41781C3.40046 2.39397 3.56023 2.38443 4.29231 2.38443H10.0154C10.7498 2.38443 10.9072 2.39159 11.0098 2.41781C11.224 2.46903 11.4198 2.57858 11.5756 2.73431C11.7313 2.89004 11.8409 3.08586 11.8921 3.30005C11.9159 3.4002 11.9231 3.55757 11.9231 4.29198V10.0146C11.9231 10.749 11.9159 10.9064 11.8897 11.0089C11.8385 11.2231 11.7289 11.4189 11.5732 11.5747C11.4174 11.7304 11.2216 11.8399 11.0074 11.8912C10.9096 11.9126 10.7522 11.9222 10.0154 11.9222H4.29231C3.55785 11.9222 3.40046 11.915 3.29792 11.8888C3.08371 11.8376 2.88788 11.728 2.73214 11.5723C2.5764 11.4165 2.46684 11.2207 2.41562 11.0065C2.39415 10.9088 2.38462 10.7514 2.38462 10.0146V4.29198C2.38462 3.55757 2.39177 3.4002 2.418 3.29767C2.46923 3.08348 2.57878 2.88766 2.73452 2.73193C2.89026 2.5762 3.0861 2.46665 3.30031 2.41543L3.29792 2.41781ZM20.9846 0H20.8654C20.3193 0 19.8495 2.23517e-08 19.4346 0.0977617C18.7923 0.251235 18.205 0.579527 17.7378 1.04626C17.2706 1.513 16.9418 2.09996 16.7877 2.7421C16.6923 3.15699 16.6923 3.62434 16.6923 4.17276V10.1338C16.6923 10.6799 16.6923 11.1496 16.7901 11.5645C16.9436 12.2068 17.2719 12.794 17.7387 13.2612C18.2054 13.7283 18.7924 14.0572 19.4346 14.2112C19.8495 14.3066 20.3169 14.3066 20.8654 14.3066H26.8269C27.373 14.3066 27.8428 14.3066 28.2577 14.2088C28.9 14.0554 29.4873 13.7271 29.9545 13.2603C30.4217 12.7936 30.7506 12.2066 30.9046 11.5645C31 11.1496 31 10.6823 31 10.1338V4.17276C31 3.62672 31 3.15699 30.9022 2.7421C30.7487 2.09982 30.4204 1.51256 29.9537 1.04541C29.4869 0.578251 28.8999 0.24943 28.2577 0.0953772C27.8428 -8.9407e-08 27.3754 0 26.8269 0H20.9846ZM19.9902 2.41781C20.0928 2.39397 20.2525 2.38443 20.9846 2.38443H26.7077C27.4422 2.38443 27.5995 2.39159 27.7021 2.41781C27.9163 2.46903 28.1121 2.57858 28.2679 2.73431C28.4236 2.89004 28.5332 3.08586 28.5844 3.30005C28.6082 3.4002 28.6154 3.55757 28.6154 4.29198V10.0146C28.6154 10.749 28.6058 10.9064 28.582 11.0089C28.5308 11.2231 28.4212 11.4189 28.2655 11.5747C28.1097 11.7304 27.9139 11.8399 27.6997 11.8912C27.5995 11.915 27.4422 11.9222 26.7077 11.9222H20.9846C20.2502 11.9222 20.0928 11.915 19.9902 11.8888C19.776 11.8376 19.5802 11.728 19.4244 11.5723C19.2687 11.4165 19.1591 11.2207 19.1079 11.0065C19.0865 10.9088 19.0769 10.7514 19.0769 10.0146V4.29198C19.0769 3.55757 19.0841 3.4002 19.1103 3.29767C19.1615 3.08348 19.2711 2.88766 19.4268 2.73193C19.5826 2.5762 19.7784 2.46665 19.9926 2.41543L19.9902 2.41781ZM4.17308 16.691H10.1346C10.6807 16.691 11.1505 16.691 11.5654 16.7888C12.2077 16.9423 12.795 17.2705 13.2622 17.7373C13.7294 18.204 14.0582 18.791 14.2123 19.4331C14.3077 19.848 14.3077 20.3154 14.3077 20.8638V26.8249C14.3077 27.3709 14.3077 27.8406 14.2099 28.2555C14.0564 28.8978 13.7281 29.485 13.2613 29.9522C12.7946 30.4194 12.2076 30.7482 11.5654 30.9022C11.1505 30.9976 10.6831 30.9976 10.1346 30.9976H4.17308C3.627 30.9976 3.15723 30.9976 2.74231 30.8999C2.09998 30.7464 1.51268 30.4181 1.04549 29.9514C0.578296 29.4846 0.249449 28.8977 0.0953845 28.2555C-8.9407e-08 27.8406 0 27.3733 0 26.8249V20.8638C0 20.3177 1.49012e-08 19.848 0.0977693 19.4331C0.251255 18.7908 0.579572 18.2036 1.04634 17.7364C1.51312 17.2693 2.10012 16.9405 2.74231 16.7864C3.15723 16.691 3.62462 16.691 4.17308 16.691ZM4.29231 19.0755C3.55785 19.0755 3.40046 19.0826 3.29792 19.1088C3.08371 19.1601 2.88788 19.2696 2.73214 19.4253C2.5764 19.5811 2.46684 19.7769 2.41562 19.9911C2.39415 20.0888 2.38462 20.2462 2.38462 20.983V26.7056C2.38462 27.44 2.39177 27.5974 2.418 27.6999C2.46923 27.9141 2.57878 28.11 2.73452 28.2657C2.89026 28.4214 3.0861 28.531 3.30031 28.5822C3.40046 28.606 3.55785 28.6132 4.29231 28.6132H10.0154C10.7498 28.6132 10.9072 28.6036 11.0098 28.5798C11.224 28.5286 11.4198 28.419 11.5756 28.2633C11.7313 28.1076 11.8409 27.9118 11.8921 27.6976C11.9159 27.5974 11.9231 27.44 11.9231 26.7056V20.983C11.9231 20.2486 11.9159 20.0912 11.8897 19.9887C11.8385 19.7745 11.7289 19.5787 11.5732 19.423C11.4174 19.2672 11.2216 19.1577 11.0074 19.1065C10.9096 19.085 10.7522 19.0755 10.0154 19.0755H4.29231ZM20.9846 16.691H20.8654C20.3193 16.691 19.8495 16.691 19.4346 16.7888C18.7923 16.9423 18.205 17.2705 17.7378 17.7373C17.2706 18.204 16.9418 18.791 16.7877 19.4331C16.6923 19.848 16.6923 20.3154 16.6923 20.8638V26.8249C16.6923 27.3709 16.6923 27.8406 16.7901 28.2555C16.9436 28.8978 17.2719 29.485 17.7387 29.9522C18.2054 30.4194 18.7924 30.7482 19.4346 30.9022C19.8495 31 20.3193 31 20.8654 31H26.8269C27.373 31 27.8428 31 28.2577 30.9022C28.8996 30.7484 29.4864 30.4199 29.9531 29.9532C30.4199 29.4865 30.7484 28.8997 30.9022 28.2579C31 27.843 31 27.3733 31 26.8272V20.8638C31 20.3177 31 19.848 30.9022 19.4331C30.7487 18.7908 30.4204 18.2036 29.9537 17.7364C29.4869 17.2693 28.8999 16.9405 28.2577 16.7864C27.8428 16.691 27.3754 16.691 26.8269 16.691H20.9846ZM19.9902 19.1088C20.0928 19.085 20.2525 19.0755 20.9846 19.0755H26.7077C27.4422 19.0755 27.5995 19.0826 27.7021 19.1088C27.9163 19.1601 28.1121 19.2696 28.2679 19.4253C28.4236 19.5811 28.5332 19.7769 28.5844 19.9911C28.6082 20.0912 28.6154 20.2486 28.6154 20.983V26.7056C28.6154 27.44 28.6058 27.5974 28.582 27.6999C28.5308 27.9141 28.4212 28.11 28.2655 28.2657C28.1097 28.4214 27.9139 28.531 27.6997 28.5822C27.5995 28.606 27.4422 28.6132 26.7077 28.6132H20.9846C20.2502 28.6132 20.0928 28.6036 19.9902 28.5798C19.776 28.5286 19.5802 28.419 19.4244 28.2633C19.2687 28.1076 19.1591 27.9118 19.1079 27.6976C19.0865 27.5998 19.0769 27.4424 19.0769 26.7056V20.983C19.0769 20.2486 19.0841 20.0912 19.1103 19.9887C19.1615 19.7745 19.2711 19.5787 19.4268 19.423C19.5826 19.2672 19.7784 19.1577 19.9926 19.1065L19.9902 19.1088Z"/>
</mask>
<path fill-rule="evenodd" clip-rule="evenodd" d="M4.29231 0H4.17308C3.627 0 3.15723 2.23517e-08 2.74231 0.0977617C2.09998 0.251235 1.51268 0.579527 1.04549 1.04626C0.578296 1.513 0.249449 2.09996 0.0953845 2.7421C-8.9407e-08 3.15699 0 3.62434 0 4.17276V10.1338C0 10.6799 1.49012e-08 11.1496 0.0977693 11.5645C0.251255 12.2068 0.579572 12.794 1.04634 13.2612C1.51312 13.7283 2.10012 14.0572 2.74231 14.2112C3.15723 14.3066 3.62462 14.3066 4.17308 14.3066H10.1346C10.6807 14.3066 11.1505 14.3066 11.5654 14.2088C12.2077 14.0554 12.795 13.7271 13.2622 13.2603C13.7294 12.7936 14.0582 12.2066 14.2123 11.5645C14.3077 11.1496 14.3077 10.6823 14.3077 10.1338V4.17276C14.3077 3.62672 14.3077 3.15699 14.2099 2.7421C14.0564 2.09982 13.7281 1.51256 13.2613 1.04541C12.7946 0.578251 12.2076 0.24943 11.5654 0.0953772C11.1505 -8.9407e-08 10.6831 0 10.1346 0H4.29231ZM3.29792 2.41781C3.40046 2.39397 3.56023 2.38443 4.29231 2.38443H10.0154C10.7498 2.38443 10.9072 2.39159 11.0098 2.41781C11.224 2.46903 11.4198 2.57858 11.5756 2.73431C11.7313 2.89004 11.8409 3.08586 11.8921 3.30005C11.9159 3.4002 11.9231 3.55757 11.9231 4.29198V10.0146C11.9231 10.749 11.9159 10.9064 11.8897 11.0089C11.8385 11.2231 11.7289 11.4189 11.5732 11.5747C11.4174 11.7304 11.2216 11.8399 11.0074 11.8912C10.9096 11.9126 10.7522 11.9222 10.0154 11.9222H4.29231C3.55785 11.9222 3.40046 11.915 3.29792 11.8888C3.08371 11.8376 2.88788 11.728 2.73214 11.5723C2.5764 11.4165 2.46684 11.2207 2.41562 11.0065C2.39415 10.9088 2.38462 10.7514 2.38462 10.0146V4.29198C2.38462 3.55757 2.39177 3.4002 2.418 3.29767C2.46923 3.08348 2.57878 2.88766 2.73452 2.73193C2.89026 2.5762 3.0861 2.46665 3.30031 2.41543L3.29792 2.41781ZM20.9846 0H20.8654C20.3193 0 19.8495 2.23517e-08 19.4346 0.0977617C18.7923 0.251235 18.205 0.579527 17.7378 1.04626C17.2706 1.513 16.9418 2.09996 16.7877 2.7421C16.6923 3.15699 16.6923 3.62434 16.6923 4.17276V10.1338C16.6923 10.6799 16.6923 11.1496 16.7901 11.5645C16.9436 12.2068 17.2719 12.794 17.7387 13.2612C18.2054 13.7283 18.7924 14.0572 19.4346 14.2112C19.8495 14.3066 20.3169 14.3066 20.8654 14.3066H26.8269C27.373 14.3066 27.8428 14.3066 28.2577 14.2088C28.9 14.0554 29.4873 13.7271 29.9545 13.2603C30.4217 12.7936 30.7506 12.2066 30.9046 11.5645C31 11.1496 31 10.6823 31 10.1338V4.17276C31 3.62672 31 3.15699 30.9022 2.7421C30.7487 2.09982 30.4204 1.51256 29.9537 1.04541C29.4869 0.578251 28.8999 0.24943 28.2577 0.0953772C27.8428 -8.9407e-08 27.3754 0 26.8269 0H20.9846ZM19.9902 2.41781C20.0928 2.39397 20.2525 2.38443 20.9846 2.38443H26.7077C27.4422 2.38443 27.5995 2.39159 27.7021 2.41781C27.9163 2.46903 28.1121 2.57858 28.2679 2.73431C28.4236 2.89004 28.5332 3.08586 28.5844 3.30005C28.6082 3.4002 28.6154 3.55757 28.6154 4.29198V10.0146C28.6154 10.749 28.6058 10.9064 28.582 11.0089C28.5308 11.2231 28.4212 11.4189 28.2655 11.5747C28.1097 11.7304 27.9139 11.8399 27.6997 11.8912C27.5995 11.915 27.4422 11.9222 26.7077 11.9222H20.9846C20.2502 11.9222 20.0928 11.915 19.9902 11.8888C19.776 11.8376 19.5802 11.728 19.4244 11.5723C19.2687 11.4165 19.1591 11.2207 19.1079 11.0065C19.0865 10.9088 19.0769 10.7514 19.0769 10.0146V4.29198C19.0769 3.55757 19.0841 3.4002 19.1103 3.29767C19.1615 3.08348 19.2711 2.88766 19.4268 2.73193C19.5826 2.5762 19.7784 2.46665 19.9926 2.41543L19.9902 2.41781ZM4.17308 16.691H10.1346C10.6807 16.691 11.1505 16.691 11.5654 16.7888C12.2077 16.9423 12.795 17.2705 13.2622 17.7373C13.7294 18.204 14.0582 18.791 14.2123 19.4331C14.3077 19.848 14.3077 20.3154 14.3077 20.8638V26.8249C14.3077 27.3709 14.3077 27.8406 14.2099 28.2555C14.0564 28.8978 13.7281 29.485 13.2613 29.9522C12.7946 30.4194 12.2076 30.7482 11.5654 30.9022C11.1505 30.9976 10.6831 30.9976 10.1346 30.9976H4.17308C3.627 30.9976 3.15723 30.9976 2.74231 30.8999C2.09998 30.7464 1.51268 30.4181 1.04549 29.9514C0.578296 29.4846 0.249449 28.8977 0.0953845 28.2555C-8.9407e-08 27.8406 0 27.3733 0 26.8249V20.8638C0 20.3177 1.49012e-08 19.848 0.0977693 19.4331C0.251255 18.7908 0.579572 18.2036 1.04634 17.7364C1.51312 17.2693 2.10012 16.9405 2.74231 16.7864C3.15723 16.691 3.62462 16.691 4.17308 16.691ZM4.29231 19.0755C3.55785 19.0755 3.40046 19.0826 3.29792 19.1088C3.08371 19.1601 2.88788 19.2696 2.73214 19.4253C2.5764 19.5811 2.46684 19.7769 2.41562 19.9911C2.39415 20.0888 2.38462 20.2462 2.38462 20.983V26.7056C2.38462 27.44 2.39177 27.5974 2.418 27.6999C2.46923 27.9141 2.57878 28.11 2.73452 28.2657C2.89026 28.4214 3.0861 28.531 3.30031 28.5822C3.40046 28.606 3.55785 28.6132 4.29231 28.6132H10.0154C10.7498 28.6132 10.9072 28.6036 11.0098 28.5798C11.224 28.5286 11.4198 28.419 11.5756 28.2633C11.7313 28.1076 11.8409 27.9118 11.8921 27.6976C11.9159 27.5974 11.9231 27.44 11.9231 26.7056V20.983C11.9231 20.2486 11.9159 20.0912 11.8897 19.9887C11.8385 19.7745 11.7289 19.5787 11.5732 19.423C11.4174 19.2672 11.2216 19.1577 11.0074 19.1065C10.9096 19.085 10.7522 19.0755 10.0154 19.0755H4.29231ZM20.9846 16.691H20.8654C20.3193 16.691 19.8495 16.691 19.4346 16.7888C18.7923 16.9423 18.205 17.2705 17.7378 17.7373C17.2706 18.204 16.9418 18.791 16.7877 19.4331C16.6923 19.848 16.6923 20.3154 16.6923 20.8638V26.8249C16.6923 27.3709 16.6923 27.8406 16.7901 28.2555C16.9436 28.8978 17.2719 29.485 17.7387 29.9522C18.2054 30.4194 18.7924 30.7482 19.4346 30.9022C19.8495 31 20.3193 31 20.8654 31H26.8269C27.373 31 27.8428 31 28.2577 30.9022C28.8996 30.7484 29.4864 30.4199 29.9531 29.9532C30.4199 29.4865 30.7484 28.8997 30.9022 28.2579C31 27.843 31 27.3733 31 26.8272V20.8638C31 20.3177 31 19.848 30.9022 19.4331C30.7487 18.7908 30.4204 18.2036 29.9537 17.7364C29.4869 17.2693 28.8999 16.9405 28.2577 16.7864C27.8428 16.691 27.3754 16.691 26.8269 16.691H20.9846ZM19.9902 19.1088C20.0928 19.085 20.2525 19.0755 20.9846 19.0755H26.7077C27.4422 19.0755 27.5995 19.0826 27.7021 19.1088C27.9163 19.1601 28.1121 19.2696 28.2679 19.4253C28.4236 19.5811 28.5332 19.7769 28.5844 19.9911C28.6082 20.0912 28.6154 20.2486 28.6154 20.983V26.7056C28.6154 27.44 28.6058 27.5974 28.582 27.6999C28.5308 27.9141 28.4212 28.11 28.2655 28.2657C28.1097 28.4214 27.9139 28.531 27.6997 28.5822C27.5995 28.606 27.4422 28.6132 26.7077 28.6132H20.9846C20.2502 28.6132 20.0928 28.6036 19.9902 28.5798C19.776 28.5286 19.5802 28.419 19.4244 28.2633C19.2687 28.1076 19.1591 27.9118 19.1079 27.6976C19.0865 27.5998 19.0769 27.4424 19.0769 26.7056V20.983C19.0769 20.2486 19.0841 20.0912 19.1103 19.9887C19.1615 19.7745 19.2711 19.5787 19.4268 19.423C19.5826 19.2672 19.7784 19.1577 19.9926 19.1065L19.9902 19.1088Z" fill="#014B5B" stroke="#014B5B" stroke-width="2" mask="url(#path-1-inside-1_129_9111)"/>
</svg>
