<svg width="112" height="115" viewBox="0 0 112 115" fill="none" xmlns="http://www.w3.org/2000/svg">
<path d="M37.2273 53.0382C43.6166 53.0382 49.7442 50.4521 54.2621 45.849C58.78 41.2458 61.3182 35.0026 61.3182 28.4927C61.3182 21.9829 58.78 15.7396 54.2621 11.1365C49.7442 6.5333 43.6166 3.94727 37.2273 3.94727C30.838 3.94727 24.7104 6.5333 20.1924 11.1365C15.6745 15.7396 13.1364 21.9829 13.1364 28.4927C13.1364 35.0026 15.6745 41.2458 20.1924 45.849C24.7104 50.4521 30.838 53.0382 37.2273 53.0382ZM37.2273 53.0382C46.9263 53.0382 55.4015 56.7691 61.429 62.9693C65.0033 66.6603 67.6769 71.1549 69.2345 76.0913M37.2273 53.0382C17.9545 53.0382 3.5 67.7654 3.5 87.4018V111.947H51.6818M56.5 91.4469L76.6882 107.038L109.5 62.8564" stroke="#24707B" stroke-width="6"/>
</svg>
