<svg width="1040" height="603" viewBox="0 0 1040 603" fill="none" xmlns="http://www.w3.org/2000/svg">
<g clip-path="url(#clip0_46_3069)" filter="url(#filter0_d_46_3069)">
<path d="M205.139 78.103C205.139 78.103 214.845 88.0391 223.673 103.969C232.52 119.899 261.423 151.904 261.423 151.904L233.29 204.248L202.453 158.042L205.139 78.085V78.103Z" fill="#FFA93D"/>
<path d="M223.674 103.969C214.827 88.0386 205.139 78.1025 205.139 78.1025L203.707 120.655L213.86 151.111C213.86 151.111 221.954 131.491 234.615 119.899C230.12 114.031 226.127 108.379 223.674 103.969Z" fill="#E8A95A"/>
<path d="M178.582 18.8465C178.582 18.8465 185.566 6.94842 180.408 2.12437C175.233 -2.69968 147.906 0.198355 142.14 16.3625C139.955 25.2906 144.575 45.2888 151.756 51.6969C157.97 41.4548 178.6 18.8645 178.6 18.8645L178.582 18.8465Z" fill="#014B5B"/>
<g style="mix-blend-mode:overlay" opacity="0.5">
<path d="M180.409 2.12395C178.313 0.161927 172.583 -0.522079 166.118 0.43193C165.921 8.91001 157.935 19.6021 157.935 19.6021L175.269 22.5541C177.293 20.2681 178.6 18.8641 178.6 18.8641C178.6 18.8641 185.584 6.96599 180.427 2.14195L180.409 2.12395Z" fill="white"/>
</g>
<path opacity="0.27" d="M220.432 608.982C295.755 608.982 356.817 603.413 356.817 596.544C356.817 589.674 295.755 584.105 220.432 584.105C145.109 584.105 84.0474 589.674 84.0474 596.544C84.0474 603.413 145.109 608.982 220.432 608.982Z" fill="#2D333C"/>
<path d="M217.8 568.716V588.084C217.8 592.188 221.095 595.5 225.178 595.5H325.371C325.371 595.5 319.766 568.716 295.232 568.716H217.782H217.8Z" fill="#FFA93D"/>
<path d="M263.339 575.429C263.339 577.229 264.789 578.705 266.598 578.705H292.869C294.659 578.705 296.128 577.247 296.128 575.429C296.128 573.629 294.677 572.153 292.869 572.153H266.598C264.807 572.153 263.339 573.611 263.339 575.429Z" fill="white"/>
<path d="M218.14 247.341L223.96 285.231L262.264 394.528C265.416 403.511 267.816 412.745 269.463 422.141L295.089 568.716H218.14L196.651 413.249L164.256 324.418V235.587L218.14 247.341Z" fill="#054857"/>
<path d="M112.861 238.196V568.716H190.311L178.582 308.739C178.582 308.739 186.318 273.243 185.655 242.66C184.993 212.06 112.861 238.196 112.861 238.196Z" fill="#054857"/>
<path d="M137.77 568.716H112.861V238.197C112.861 238.197 124.107 234.129 137.77 231.087V568.716Z" fill="#054857"/>
<path d="M185.423 240.195L218.14 247.341C218.14 247.341 181.519 269.427 112.861 258.123V238.197C112.861 238.197 124.107 234.129 137.77 231.087L181.823 233.247C183.65 235.029 184.939 237.297 185.423 240.213V240.195Z" fill="#171905"/>
<path d="M117.141 78.1025C117.141 78.1025 103.764 92.1427 95.3114 109.981C86.859 127.801 73.2134 155.899 73.2134 155.899L38.9202 90.4327C36.6818 86.1666 31.4348 84.4926 27.1549 86.6886L27.0833 86.7246L27.0296 86.6706C23.7166 83.6646 18.7025 83.5926 15.3 86.5086L10.8052 90.3607C3.67798 96.4627 1.90512 106.831 6.63274 114.985L55.7534 199.82C65.1908 216.11 88.4528 216.542 98.4811 200.612L117.141 170.929C117.141 170.929 121.421 86.5626 117.141 78.1205V78.1025Z" fill="#FEC1B9"/>
<path d="M86.4829 128.467C89.5451 122.077 92.6969 115.543 95.3293 109.981C103.782 92.1607 117.159 78.1025 117.159 78.1025C120.382 84.4746 118.735 134.101 117.75 158.059C107.202 141.715 94.6309 132.859 86.5008 128.467H86.4829Z" fill="#E8A95A"/>
<g style="mix-blend-mode:multiply" opacity="0.18">
<path d="M57.0962 201.8C61.6985 198.326 67.411 196.256 73.607 196.256C81.8446 196.256 89.2225 199.91 94.2904 205.67C83.5637 215.66 65.9426 214.256 57.0962 201.8Z" fill="#FFA93D"/>
</g>
<path d="M73.2134 155.882L81.4509 173.684" stroke="#054857" stroke-width="1.09" stroke-miterlimit="10" stroke-linecap="round"/>
<path opacity="0.49" d="M49.1991 158.059C67.2142 186.176 86.8231 199.28 99.251 199.352L98.481 200.576C88.4527 216.506 65.1907 216.092 55.7533 199.784L13.1689 126.253C20.9588 128.161 34.4074 134.947 49.1991 158.041V158.059Z" fill="#054857"/>
<path d="M152.598 64.6748L117.141 78.1029L112.861 238.179C112.861 238.179 152.508 263.001 218.14 247.323C217.495 146.738 205.139 78.1029 205.139 78.1029L169.95 68.8508L152.58 64.6748H152.598Z" fill="#FFA93D"/>
<path d="M167.694 50.4728L169.95 68.851L166.423 86.7252L150.628 68.599L149.589 31.0146L167.694 50.4728Z" fill="#FEC1B9"/>
<path d="M169.431 64.6745C153.708 55.8184 152.831 38.7002 152.831 38.7002L157.11 39.1142L167.676 50.4723L169.431 64.6745Z" fill="#171905"/>
<path d="M142.122 35.9641C142.122 38.9341 144.522 41.3461 147.476 41.3461C150.431 41.3461 152.831 38.9341 152.831 35.9641C152.831 32.9941 150.431 30.582 147.476 30.582C144.522 30.582 142.122 32.9941 142.122 35.9641Z" fill="#FEC1B9"/>
<path d="M152.598 37.5129L144.629 35.9648" stroke="#014B5B" stroke-width="0.54" stroke-miterlimit="10"/>
<path d="M189.076 73.8729L169.968 68.8508L152.598 64.6748L136.911 70.6149C141.692 81.757 152.884 100.495 173.192 97.9751C182.163 96.6611 188.61 87.661 189.058 73.8729H189.076Z" fill="#FEC1B9"/>
<path d="M174.374 13.3386C177.06 13.1586 179.424 15.1206 179.8 17.8026C181.376 28.9088 184.474 57.583 174.248 57.583C161.57 57.583 150.521 41.9049 146.957 30.7988C153.171 21.4387 163.79 14.0406 174.356 13.3386H174.374Z" fill="#FEC1B9"/>
<g style="mix-blend-mode:overlay" opacity="0.5">
<path d="M174.374 13.3386C177.06 13.1586 179.424 15.1206 179.8 17.8026C181.358 28.7828 184.402 56.935 174.589 57.547C172.655 56.449 170.595 55.027 168.41 53.173C160.352 46.2789 158.382 29.1428 157.917 19.6027C162.949 16.0746 168.661 13.7346 174.374 13.3386Z" fill="white"/>
</g>
<path d="M169.95 25.0928C169.95 25.0928 164.274 22.9328 161.641 26.3529C162.268 22.6808 162.769 21.2948 165.796 21.0428C168.822 20.7908 169.95 23.3288 169.95 25.0928Z" fill="#014B5B"/>
<path d="M177.006 23.6882C177.006 23.6882 177.615 22.1402 180.391 22.2842L179.943 18.8281C179.943 18.8281 176.863 20.3761 176.988 23.6702L177.006 23.6882Z" fill="#014B5B"/>
<path d="M165.169 31.5546C165.169 32.9586 165.742 34.0927 166.422 34.0927C167.103 34.0927 167.676 32.9586 167.676 31.5546C167.676 30.1506 167.121 29.0166 166.422 29.0166C165.724 29.0166 165.169 30.1506 165.169 31.5546Z" fill="#014B5B"/>
<path d="M177.633 31.5541C177.633 32.5981 178.063 33.4441 178.582 33.4441C179.101 33.4441 179.531 32.5981 179.531 31.5541C179.531 30.5101 179.101 29.6641 178.582 29.6641C178.063 29.6641 177.633 30.5101 177.633 31.5541Z" fill="#014B5B"/>
<path d="M176.165 35.4248L177.006 41.5629H173.192" stroke="#014B5B" stroke-width="0.54" stroke-miterlimit="10"/>
<path d="M179.531 44.8028L168.518 44.2988C168.518 44.2988 174.176 52.0209 179.531 44.8028Z" fill="white"/>
<path d="M153.995 20.376C153.619 23.67 153.153 33.1921 155.714 36.7381C158.131 40.0682 154.389 41.0942 152.025 41.4002C149.786 37.8182 147.351 32.3281 146.294 29.0161C148.228 26.082 151.326 22.77 153.995 20.376Z" fill="#014B5B"/>
<path d="M181.411 371.47L178.582 308.739L195.738 410.746L181.411 371.47Z" fill="#171905"/>
<g style="mix-blend-mode:overlay" opacity="0.5">
<path d="M167.246 402.143C173.389 402.143 178.958 404.573 183.094 408.497L184.545 440.645C180.319 445.469 174.141 448.529 167.246 448.529C154.514 448.529 144.181 438.143 144.181 425.345C144.181 412.547 154.514 402.161 167.246 402.161V402.143Z" fill="white"/>
</g>
<g style="mix-blend-mode:multiply" opacity="0.4">
<path d="M258.593 433.93C245.861 433.93 235.528 423.544 235.528 410.746C235.528 397.948 245.861 387.562 258.593 387.562C259.005 387.562 259.417 387.598 259.847 387.634L262.264 394.528C265.416 403.51 267.816 412.744 269.463 422.14L270.896 430.348C267.332 432.616 263.124 433.948 258.593 433.948V433.93Z" fill="#054857"/>
</g>
<g style="mix-blend-mode:multiply">
<path d="M179.012 318.207L210.332 410.746L236.728 568.716" stroke="#00555E" stroke-width="1.09" stroke-miterlimit="10"/>
</g>
<path d="M112.861 568.716V585.51C112.861 591.018 117.302 595.5 122.8 595.5H220.45C220.45 595.5 214.845 568.716 190.311 568.716H112.861Z" fill="#FFA93D"/>
<path d="M159.116 575.429C159.116 577.229 160.567 578.705 162.375 578.705H188.646C190.437 578.705 191.905 577.247 191.905 575.429C191.905 573.629 190.455 572.153 188.646 572.153H162.375C160.585 572.153 159.116 573.611 159.116 575.429Z" fill="white"/>
<g style="mix-blend-mode:overlay" opacity="0.5">
<path d="M269.445 422.123L295.071 568.698H254.224C256.713 540.6 261.101 459.689 235.51 410.729C204.154 350.752 223.942 285.195 223.942 285.195L262.247 394.492C265.398 403.474 267.798 412.709 269.445 422.105V422.123Z" fill="white"/>
</g>
<path d="M342.705 179.228C337.709 210.26 326.338 232.599 308.591 246.279C290.845 259.959 267.386 264.423 238.196 259.671C209.419 254.991 188.664 243.273 175.932 224.553C163.199 205.832 159.331 180.956 164.327 149.924C169.27 119.234 180.677 97.0394 198.549 83.3412C216.421 69.6431 239.916 65.1611 269.016 69.8951C298.205 74.6471 319.032 86.2753 331.513 104.797C343.977 123.302 347.702 148.124 342.705 179.228ZM216.474 158.672C210.726 194.33 220.199 214.149 244.876 218.181C257.429 220.215 267.422 217.407 274.889 209.738C282.357 202.07 287.55 189.074 290.505 170.732C293.477 152.318 292.582 138.224 287.854 128.432C283.127 118.64 274.656 112.754 262.443 110.774C237.605 106.723 222.277 122.708 216.474 158.69V158.672Z" fill="#014B5B" stroke="white" stroke-width="4" stroke-miterlimit="10"/>
<path d="M230.281 182.594L263.787 106.399V83.4132C263.787 80.4972 266.151 78.1212 269.052 78.1212H269.141C271.594 78.1212 273.725 79.8132 274.281 82.2252L278.31 99.7214V79.0032C278.31 76.6992 280.172 74.8452 282.446 74.8452H282.518C284.345 74.8452 285.956 76.0512 286.494 77.8152L291.132 93.2593V76.4112C291.132 73.9272 293.137 71.9111 295.609 71.9111H295.698C297.829 71.9111 299.674 73.4231 300.086 75.5292L304.921 100.009C306.55 108.289 305.565 116.894 302.073 124.58L268.049 199.766C262.3 212.475 245.933 215.895 235.618 206.534L235.296 206.246C228.724 200.27 226.682 190.748 230.264 182.594H230.281Z" fill="#FEC1B9"/>
<g style="mix-blend-mode:overlay" opacity="0.5">
<path d="M305.565 105.319C303.864 105.031 280.011 101.539 270.896 126.271C262.64 148.645 246.076 192.062 233.684 204.572C234.203 205.148 234.722 205.724 235.313 206.246L235.636 206.534C245.95 215.876 262.318 212.456 268.066 199.766L302.091 124.579C303.864 120.655 304.974 116.515 305.44 112.285L305.654 106.237C305.654 105.931 305.601 105.625 305.583 105.319H305.565Z" fill="white"/>
</g>
<path opacity="0.49" d="M265.452 204.05C262.246 196.418 254.743 191.054 245.968 191.054C239.557 191.054 233.827 193.934 229.941 198.47C231.069 201.386 232.878 204.068 235.295 206.264L235.618 206.552C244.643 214.742 258.325 213.122 265.452 204.068V204.05Z" fill="#054857"/>
<path d="M249.675 138.457L230.281 182.593" stroke="#054857" stroke-width="1.09" stroke-miterlimit="10" stroke-linecap="round"/>
<path d="M77.3498 270.597C69.4704 272.991 61.7701 274.503 54.231 275.133L44.0416 241.383C46.5128 241.113 49.1273 240.843 51.9209 240.591C54.7145 240.339 57.6335 239.745 60.6957 238.809C67.8408 236.631 72.2998 232.905 74.0548 227.649C75.8097 222.393 75.1113 214.527 71.9417 204.051L27.083 55.3151L70.5091 42.085L114.257 187.076C120.83 208.839 121.062 226.767 114.956 240.825C108.849 254.883 96.314 264.819 77.3677 270.597H77.3498Z" fill="#014B5B" stroke="white" stroke-width="4" stroke-miterlimit="10"/>
<path d="M13.1689 88.3266L32.4913 74.2144C36.825 71.0464 42.9494 72.7204 45.0983 77.6344L54.1954 98.3887C55.8608 102.187 54.5177 106.651 51.0436 108.883L42.1614 114.607L13.1689 88.3266Z" fill="#FEC1B9"/>
<path d="M45.0981 77.6348L27.083 90.8289" stroke="#054857" stroke-width="1.09" stroke-miterlimit="10" stroke-linecap="round"/>
<path d="M50.8825 90.8291L36.0908 102.241" stroke="#054857" stroke-width="1.09" stroke-miterlimit="10" stroke-linecap="round"/>
<path opacity="0.27" d="M1036 595.716C1036 602.412 974.899 607.848 899.526 607.848C824.153 607.848 763.052 602.412 763.052 595.716C763.052 589.02 824.153 583.584 899.526 583.584C974.899 583.584 1036 589.02 1036 595.716Z" fill="#2D333C"/>
<path d="M894.907 254.576L881.225 306.093L853.88 434.146L834.45 579.551C834.45 579.551 815.021 581.729 815.021 594.024H888.424L908.66 444.28L938.798 254.594H894.889L894.907 254.576Z" fill="#054857"/>
<path d="M973.61 254.576C973.61 254.576 988.133 334.911 966.716 397.552L945.298 460.192L978.427 594.024H894.906C894.906 594.024 894.906 581.73 907.853 579.552L890.948 472.108C888.8 458.464 888.853 444.568 891.092 430.942L910.289 314.067C910.289 314.067 905.346 269.642 912.724 254.594C920.102 239.546 973.61 254.594 973.61 254.594V254.576Z" fill="#054857"/>
<g style="mix-blend-mode:overlay" opacity="0.5">
<path d="M945.281 460.174L966.698 397.534C988.116 334.893 973.593 254.558 973.593 254.558C973.593 254.558 961.792 251.246 948.504 249.284C952.3 271.478 961.666 338.511 947.125 391.45C929.432 455.836 925.833 465.97 925.833 465.97L958.514 594.024H978.41L945.281 460.192V460.174Z" fill="white"/>
</g>
<g style="mix-blend-mode:overlay" opacity="0.23">
<path d="M912.725 254.576C906.493 267.266 909.054 300.909 910.003 311.097C911.4 299.073 923.631 265.124 930.042 247.916C921.804 248.132 915.035 249.896 912.743 254.576H912.725Z" fill="#FFFFEB"/>
</g>
<path d="M974.847 579.533H907.872C894.925 581.711 894.925 594.005 894.925 594.005H978.446L974.865 579.533H974.847Z" fill="#FFA93D"/>
<path d="M815.021 594.005H888.424L890.376 579.533H834.45C834.45 579.533 815.021 581.711 815.021 594.005Z" fill="#FFA93D"/>
<path d="M890.305 467.374C901.873 467.068 911.167 457.546 911.167 445.846C911.167 434.758 902.84 425.65 892.149 424.426L891.093 430.906C889.105 442.966 888.854 455.242 890.305 467.374Z" fill="#054857"/>
<g style="mix-blend-mode:multiply" opacity="0.49">
<path d="M849.994 463.792C861.76 463.792 871.305 454.198 871.305 442.372C871.305 432.814 865.073 424.714 856.477 421.96L853.88 434.128L849.923 463.792C849.923 463.792 849.977 463.792 850.012 463.792H849.994Z" fill="#054857"/>
</g>
<path d="M947.143 581.711C947.143 582.917 946.176 583.889 944.976 583.889H910.02C908.821 583.889 907.854 582.917 907.854 581.711C907.854 580.505 908.821 579.533 910.02 579.533H944.976C946.176 579.533 947.143 580.505 947.143 581.711Z" fill="white"/>
<path d="M863.604 581.711C863.604 582.917 862.637 583.889 861.437 583.889H836.599C835.4 583.889 834.433 582.917 834.433 581.711C834.433 580.505 835.4 579.533 836.599 579.533H861.437C862.637 579.533 863.604 580.505 863.604 581.711Z" fill="white"/>
<path d="M909.985 311.079L892.006 417.532C887.6 443.65 888.12 470.363 893.528 496.283L898.434 519.773" stroke="#FFA93D" stroke-width="1.12" stroke-miterlimit="10"/>
<path d="M915.948 115.058C915.948 115.058 904.612 116.894 887.331 141.32C870.05 165.728 853.862 187.58 853.862 187.58L814.913 133.436C812.603 130.214 808.878 128.306 804.92 128.306H794.015C789.502 128.306 785.849 131.978 785.849 136.514V136.604L784.273 138.422C781.461 141.698 779.903 145.874 779.903 150.194V158.114C779.903 165.368 784.237 171.902 790.899 174.692L804.741 180.506L846.967 229.611C853.647 237.369 865.717 237.027 871.949 228.909L905.687 184.934L915.948 115.058Z" fill="#FEC1B9"/>
<path d="M964.961 110.449L1001.78 136.604C1001.78 136.604 965.534 195.032 973.933 257.439C935.378 269.913 894.889 254.577 894.889 254.577L903.52 191.252C903.52 191.252 892.722 177.086 898.667 157.574C904.613 138.08 915.948 115.075 915.948 115.075L951.513 107.569L964.961 110.467V110.449Z" fill="#FFA93D"/>
<path d="M987.041 126.128C981.275 134.516 965.265 161.822 980.236 187.581C988.868 157.484 1001.8 136.604 1001.8 136.604L987.041 126.128Z" fill="#FFA93D"/>
<path opacity="0.49" d="M855.223 222.104C850.871 222.104 846.788 223.257 843.225 225.255L846.967 229.611C853.647 237.369 865.717 237.027 871.948 228.909L872.02 228.819C867.633 224.661 861.723 222.104 855.205 222.104H855.223Z" fill="#054857"/>
<path d="M853.88 187.58L863.604 199.37" stroke="#FFA93D" stroke-width="1.12" stroke-miterlimit="10"/>
<path d="M902.159 201.422L894.906 254.558C894.906 254.558 935.395 269.895 973.951 257.42C971.873 241.94 972.536 226.694 974.703 212.546C943.884 215.588 913.817 205.832 902.159 201.422Z" fill="#FEC1B9"/>
<path d="M910.289 251.031C911.634 251.031 912.724 249.29 912.724 247.143C912.724 244.996 911.634 243.255 910.289 243.255C908.944 243.255 907.854 244.996 907.854 247.143C907.854 249.29 908.944 251.031 910.289 251.031Z" fill="#FFA93D"/>
<path d="M903.538 191.234C903.538 191.234 939.389 195.338 960.395 189.506C981.383 183.674 940.714 203.474 902.159 201.422L903.556 191.234H903.538Z" fill="#E8A95A"/>
<path d="M976.744 118.819L960.126 106.651L951.53 107.551L931.509 111.781C925.743 121.646 916.467 142.598 939.586 145.802C950.527 147.062 964.782 138.584 976.762 118.819H976.744Z" fill="#FEC1B9"/>
<path d="M961.523 86.6348L960.126 115.687C960.126 115.687 948.522 132.733 938.315 127.225C931.868 123.751 945.621 110.035 945.621 110.035V96.9849L961.523 86.6528V86.6348Z" fill="#FEC1B9"/>
<path d="M945.62 96.9669V106.651C956.687 101.917 961.522 86.6348 961.522 86.6348L945.62 96.9669Z" fill="#FFA93D"/>
<path d="M941.896 50.0043C941.896 50.0043 925.457 69.5345 930.829 95.1488C931.867 100.099 936.613 103.321 941.555 102.367C947.734 101.161 955.13 97.3808 959.517 90.0547C966.501 78.4086 968.936 71.6765 968.936 71.6765C968.936 71.6765 965.283 51.8223 941.896 49.9863V50.0043Z" fill="#FEC1B9"/>
<g style="mix-blend-mode:overlay" opacity="0.5">
<path d="M930.829 95.1488C931.76 99.6128 935.718 102.637 940.105 102.493C952.909 90.9187 957.565 59.1304 957.565 59.1304L952.963 52.6324C949.883 51.3003 946.23 50.3283 941.878 49.9863C941.878 49.9863 925.439 69.5165 930.811 95.1308L930.829 95.1488Z" fill="white"/>
</g>
<path d="M943.4 76.4106C943.4 76.4106 949.185 75.3666 953.124 79.3266" stroke="#FFA93D" stroke-width="0.68" stroke-miterlimit="10"/>
<path d="M945.62 69.3188C945.62 69.3188 951.834 67.2308 956.454 72.8648" stroke="#054857" stroke-width="0.98" stroke-miterlimit="10" stroke-linecap="round"/>
<path d="M935.145 74.7013C935.145 74.7013 934.249 73.2252 931.098 72.8652" stroke="#FFA93D" stroke-width="0.68" stroke-miterlimit="10"/>
<path d="M938.314 67.9871C938.314 67.9871 937.687 65.5571 933.622 64.7471" stroke="#054857" stroke-width="0.98" stroke-miterlimit="10" stroke-linecap="round"/>
<path d="M931.867 87.6074L944.17 90.6675C944.17 90.6675 935.055 97.0575 931.867 87.6074Z" fill="#FFFFEB"/>
<path d="M970.727 114.409L960.537 106.957L961.522 82.1171L964.692 78.661L965.516 71.587C965.516 71.587 948.235 59.0768 933.622 57.4388C940.624 47.0707 947.572 38.3046 966.232 45.3967C984.892 52.4708 988.939 79.345 975.669 103.357" fill="#054857"/>
<path d="M974.524 84.3132C974.524 88.3093 971.3 91.5493 967.325 91.5493C963.349 91.5493 960.126 88.3093 960.126 84.3132C960.126 80.3172 963.349 77.0771 967.325 77.0771C971.3 77.0771 974.524 80.3172 974.524 84.3132Z" fill="#FEC1B9"/>
<path d="M961.522 85.9691L971.031 83.2871" stroke="#FFA93D" stroke-width="0.9" stroke-miterlimit="10"/>
<path d="M936.595 77.0586L933.622 83.2867L938.009 84.6367" stroke="#FFA93D" stroke-width="0.9" stroke-miterlimit="10"/>
<g style="mix-blend-mode:overlay" opacity="0.5">
<path d="M952.049 63.5584C953.893 58.8604 958.281 49.4823 965.283 45.0543C947.357 38.6462 940.517 47.2503 933.622 57.4204C939.782 58.1224 946.426 60.7504 952.049 63.5584Z" fill="white"/>
</g>
<path d="M1013.11 260.121C1025.86 261.993 1031.42 252.237 1030.27 245.001C1030.27 245.001 1030.27 245.001 1030.27 244.983C1026.46 221.043 1018.83 174.476 1015.26 161.246C1010.41 143.174 1001.76 136.622 1001.76 136.622C988.814 137.864 982.904 161.246 982.904 161.246L999.057 241.707C999.057 241.707 1000.33 258.249 1013.1 260.139L1013.11 260.121Z" fill="#FFA93D"/>
<path d="M998.18 252.453C995.548 263.541 990.426 272.703 982.797 279.957C975.169 287.212 965.516 291.964 953.859 294.214C942.183 296.464 929.271 295.888 915.071 292.486C903.234 289.66 893.51 286.438 885.863 282.856C878.235 279.273 870.57 274.359 862.888 268.131L873.077 225.111C881.118 232.023 889.767 237.999 899.043 243.003C908.302 248.025 917.076 251.517 925.35 253.497C932.477 255.207 938.01 255.207 941.914 253.515C945.818 251.823 948.253 249.033 949.167 245.109C949.74 242.661 949.579 240.357 948.683 238.215C947.788 236.055 946.069 233.697 943.562 231.105C941.055 228.531 934.071 222.807 922.628 213.951C912.295 205.887 904.81 198.669 900.189 192.315C895.569 185.961 892.632 179.229 891.343 172.118C890.072 165.008 890.483 157.052 892.561 148.25C896.465 131.798 905.454 120.386 919.548 114.032C933.641 107.678 951.119 106.994 971.945 111.98C990.354 116.39 1008.1 125.156 1025.2 138.278L1001.65 172.046C986.844 160.418 973.414 153.146 961.326 150.266C955.076 148.772 950.277 148.79 946.928 150.302C943.562 151.832 941.502 154.208 940.732 157.466C939.909 160.976 940.965 164.54 943.92 168.176C946.875 171.812 955.47 179.21 969.689 190.353C983.37 200.937 992.253 210.927 996.336 220.287C1000.42 229.665 1001.03 240.375 998.162 252.435L998.18 252.453Z" fill="#014B5B" stroke="white" stroke-width="4" stroke-miterlimit="10"/>
<path d="M1024.9 228.819L944.188 177.23L935.431 171.362C933.05 169.76 929.826 170.408 928.232 172.802L928.179 172.874C926.818 174.908 927.068 177.626 928.752 179.39L938.619 189.668L923.29 181.874C921.875 181.154 920.174 181.334 918.938 182.306L918.885 182.36C916.879 183.962 916.807 187.004 918.759 188.678L927.265 195.986V196.076C928.644 202.016 932.083 207.254 936.989 210.855L995.44 253.785C1002.64 259.077 1011.56 261.363 1020.4 260.265C1023.95 259.167 1027.17 256.683 1029.07 251.751C1034.32 238.125 1024.92 228.783 1024.92 228.783L1024.9 228.819Z" fill="#FEC1B9"/>
<path opacity="0.49" d="M1005.11 258.753C1010 260.373 1015.21 260.931 1020.4 260.283C1023.95 259.185 1027.17 256.701 1029.07 251.769C1030.72 247.502 1030.91 243.65 1030.43 240.392C1028.77 239.942 1027.03 239.69 1025.22 239.69C1014.49 239.69 1005.74 248.133 1005.13 258.753H1005.11Z" fill="#054857"/>
<path d="M847.97 65.0352L857.175 163.802C859.18 185.276 854.668 202.485 843.672 215.409C832.677 228.333 815.79 235.875 793.011 238.017C770.752 240.105 753.113 236.001 740.094 225.669C727.075 215.337 719.572 199.442 717.567 177.968L708.272 78.1933L752.594 74.0172L761.566 170.318C762.64 181.91 765.595 190.136 770.394 194.96C775.193 199.784 781.801 201.819 790.218 201.027C799.225 200.18 805.511 196.958 809.093 191.378C812.656 185.798 813.91 177.104 812.799 165.278L803.846 69.1932L847.952 65.0352H847.97Z" fill="#014B5B" stroke="white" stroke-width="4" stroke-miterlimit="10"/>
<g style="mix-blend-mode:overlay" opacity="0.5">
<path d="M951.476 181.874C949.202 186.824 942.648 204.033 956.455 212.979C968.256 220.611 1007.06 243.165 1027.44 254.955C1028.05 254.019 1028.59 252.975 1029.05 251.769C1034.3 238.143 1024.9 228.801 1024.9 228.801L951.458 181.856L951.476 181.874Z" fill="white"/>
</g>
<path d="M804.867 128.305L819.39 128.827C822.595 128.935 825.192 131.437 825.479 134.641V134.767C825.819 138.583 822.757 141.805 818.96 141.679L812.388 141.445L818.369 144.325C822.327 146.233 824.655 150.463 824.171 154.855L823.706 159.013C823.061 164.737 817.904 168.842 812.227 168.158L794.964 166.087L804.903 128.287L804.867 128.305Z" fill="#FEC1B9"/>
<path d="M824.207 153.704L806.442 150.428" stroke="#FFA93D" stroke-width="1.12" stroke-miterlimit="10"/>
<path d="M822.989 161.768L805.583 159.842" stroke="#FFA93D" stroke-width="1.12" stroke-miterlimit="10"/>
<path d="M512.434 38.1744C510.644 44.0785 504.412 47.4085 498.538 45.6085C492.664 43.8085 489.351 37.5444 491.142 31.6403C492.933 25.7363 499.165 22.4062 505.039 24.2063C510.912 26.0063 514.225 32.2703 512.434 38.1744Z" fill="#014B5B"/>
<path d="M518.809 46.6344C517.019 52.5384 510.787 55.8684 504.913 54.0684C499.039 52.2684 495.726 46.0043 497.517 40.1003C499.308 34.1962 505.54 30.8662 511.414 32.6662C517.287 34.4662 520.6 40.7303 518.809 46.6344Z" fill="#FFA93D"/>
<path d="M546.925 51.0986C546.925 51.0986 545.546 43.1605 534.819 38.7325C524.111 34.3044 511.271 31.5864 501.78 42.8185C492.307 54.0326 497.822 72.8068 511.826 82.8689C525.83 92.931 546.925 51.1166 546.925 51.1166V51.0986Z" fill="#014B5B"/>
<path opacity="0.27" d="M650.842 598.412C650.825 605.162 598.624 610.472 534.246 610.31C469.868 610.13 417.703 604.532 417.721 597.782C417.739 591.032 469.939 585.721 534.317 585.883C598.695 586.063 650.86 591.662 650.842 598.412Z" fill="#2D333C"/>
<path d="M524.755 476.028L526.08 595.964H589.115C589.115 595.964 589.115 577.099 571.225 573.985L571.189 489.87L524.755 476.046V476.028Z" fill="#FEC1B9"/>
<path d="M580.394 577.783C574.932 582.355 560.767 588.889 526.08 584.443V595.963L589.133 595.945C589.133 595.945 589.133 584.281 580.412 577.801L580.394 577.783Z" fill="#014B5B"/>
<path d="M546.28 565.436C546.28 565.436 548.805 578.792 535.894 577.388" stroke="#054857" stroke-width="0.77" stroke-miterlimit="10" stroke-linecap="round"/>
<g style="mix-blend-mode:multiply" opacity="0.71">
<path d="M571.207 527.203C571.207 510.643 571.207 502.357 571.207 502.345L524.772 488.521L525.202 527.293C538.561 520.813 559.764 524.449 571.225 527.203H571.207Z" fill="#054857"/>
</g>
<g style="mix-blend-mode:overlay" opacity="0.5">
<path d="M589.079 595.963C589.079 595.963 589.079 595.945 589.079 595.909C589.079 595.819 589.079 595.711 589.079 595.549C589.079 595.387 589.061 595.189 589.043 594.973C589.043 594.973 589.043 594.955 589.043 594.937C589.025 594.703 589.007 594.451 588.972 594.163C588.972 594.163 588.972 594.145 588.972 594.127C588.9 593.533 588.81 592.831 588.649 592.057C588.649 592.057 588.649 592.039 588.649 592.021C588.488 591.229 588.291 590.365 588.022 589.429C588.022 589.429 588.022 589.429 588.022 589.411C587.342 587.089 586.232 584.461 584.441 582.013C584.441 581.995 584.423 581.977 584.405 581.959C583.707 581.005 582.883 580.087 581.952 579.205C581.934 579.187 581.898 579.151 581.88 579.133C579.319 576.793 575.881 574.885 571.189 574.075C571.189 545.905 571.171 527.148 571.171 514.656C571.171 514.656 542.018 548.335 556.165 596.107H589.133C589.133 596.107 589.133 596.053 589.133 595.999L589.079 595.963Z" fill="white"/>
</g>
<path d="M569.847 238.931C569.847 238.931 585.247 423.216 577.87 506.269C554.751 511.777 536.915 517.807 519.097 514.639L532.509 250.451L569.847 238.931Z" fill="#E8A95A"/>
<path d="M473.253 503.713L467.379 597.17L530.288 601.166C530.288 601.166 531.47 582.356 513.813 578.126L519.096 494.173L473.235 503.731L473.253 503.713Z" fill="#FEC1B9"/>
<path d="M522.731 582.481C516.983 586.693 502.442 592.31 468.095 585.668L467.379 597.17L530.288 601.166C530.288 601.166 531.005 589.52 522.731 582.499V582.481Z" fill="#014B5B"/>
<path d="M489.459 567.974C489.459 567.974 491.142 581.456 478.338 579.242" stroke="#054857" stroke-width="0.77" stroke-miterlimit="10" stroke-linecap="round"/>
<g style="mix-blend-mode:multiply" opacity="0.71">
<path d="M516.948 528.536C518.392 505.615 519.115 494.155 519.115 494.155L473.253 503.713L470.585 546.104C484.284 533.414 505.971 529.652 516.948 528.554V528.536Z" fill="#054857"/>
</g>
<path d="M480.201 261.629C480.201 261.629 456.402 460.999 467.379 520.129C491.877 525.007 510.949 524.683 527.818 518.077C548.859 292.427 546.907 250.774 546.907 250.774L480.201 261.647V261.629Z" fill="#FFA93D"/>
<g style="mix-blend-mode:overlay" opacity="0.5">
<path d="M486.971 522.973C480.828 522.451 474.328 521.497 467.38 520.111C456.42 460.98 480.201 261.61 480.201 261.61L504.538 257.65C501.1 286.793 482.673 448.344 486.971 522.973Z" fill="white"/>
</g>
<path d="M546.37 245.428C546.03 243.718 545.654 242.152 545.242 240.73C501.225 235.978 483.854 246.094 483.854 246.094C483.854 246.094 482.44 251.764 480.201 261.628C563.937 265.102 569.847 238.948 569.847 238.948C560.786 237.508 552.978 240.424 546.352 245.446L546.37 245.428Z" fill="#171905"/>
<path d="M550.31 105.999C550.31 105.999 561.054 112.533 568.844 121.731C574.145 127.995 591.891 156.112 602.654 173.392C607.56 181.258 605.823 191.572 598.624 197.386L584.782 208.564L555.037 156.49L550.31 105.999Z" fill="#FEC1B9"/>
<path d="M513.151 103.641L478.571 118.167C478.571 118.167 493.596 209.32 483.854 246.076C515.891 254.177 557.419 251.674 569.847 238.912C555.825 181.006 556.308 173.086 556.308 173.086C556.308 173.086 568.307 159.82 561.734 138.381C555.18 116.943 550.291 105.981 550.291 105.981L513.133 103.623L513.151 103.641Z" fill="#054857"/>
<path d="M486.128 183.958C508.191 155.896 492.468 126.735 484.767 115.575L478.571 118.185C478.571 118.185 483.854 150.208 486.128 183.958Z" fill="#FEC1B9"/>
<path d="M556.327 173.122C556.327 173.122 535.429 188.152 515.085 189.664C494.742 191.176 539.905 194.902 558.726 189.124C556.166 175.786 556.327 173.122 556.327 173.122Z" fill="#054857"/>
<path d="M478.572 118.186L478.464 118.222C472.053 120.148 466.663 124.576 463.511 130.498L436.113 182.014L405.813 161.296C399.939 157.282 393.063 154.906 385.971 154.816C383.428 154.78 380.832 154.996 378.558 155.626C376.462 156.688 375.406 157.318 374.349 160.738C373.669 162.916 375.263 158.65 374.349 160.738L374.152 161.512C373.472 163.06 372.97 165.094 373.042 165.616L433.051 215.477C439.927 221.183 450.224 219.473 454.898 211.84L484.428 163.726C484.428 163.726 495.53 129.706 478.572 118.186Z" fill="#FEC1B9"/>
<path d="M436.112 181.996L446.624 187.396" stroke="#054857" stroke-width="1.04" stroke-miterlimit="10" stroke-linecap="round"/>
<g style="mix-blend-mode:multiply" opacity="0.18">
<path d="M454.54 212.344C451.424 209.464 447.341 207.592 442.774 207.304C437.509 206.962 432.621 208.798 428.932 212.02L433.033 215.44C439.73 221.002 449.687 219.508 454.522 212.344H454.54Z" fill="#FFA93D"/>
</g>
<path d="M527.352 89.0065L527.782 107.349C527.782 107.349 536.521 124.017 531.059 128.841C525.597 133.665 507.027 114.963 508.817 102.669C510.787 75.5963 511.898 68.0723 511.898 68.0723L527.334 89.0065H527.352Z" fill="#FEC1B9"/>
<path d="M527.62 100.743L527.388 90.4293C524.898 85.8572 520.941 81.3572 514.709 79.8271C516.052 92.4633 523.143 98.2773 527.62 100.743Z" fill="#171905"/>
<path d="M546.925 51.0986C546.925 51.0986 551.993 71.3488 540.424 94.5331C539.601 96.1711 537.846 97.1071 536.019 96.9091C528.247 96.0451 511.289 87.135 511.826 64.1488C523.681 62.9428 544.454 55.5447 546.907 51.0986H546.925Z" fill="#FEC1B9"/>
<g style="mix-blend-mode:overlay" opacity="0.5">
<path d="M520.869 62.5103C522.911 73.1664 526.958 87.8006 534.586 96.6927C535.088 96.8007 535.571 96.8727 536.019 96.9267C537.828 97.1247 539.601 96.1887 540.424 94.5506C551.993 71.3664 546.925 51.1162 546.925 51.1162C545.009 54.5722 532.115 59.7743 520.887 62.5103H520.869Z" fill="white"/>
</g>
<path d="M541.964 85.8389L532.724 86.5049C532.724 86.5049 538.741 92.8229 541.964 85.8389Z" fill="white"/>
<path d="M537.326 82.743L540.89 82.005L540.335 78.333L542.304 82.8691L537.326 82.743Z" fill="#014B5B"/>
<path d="M534.819 64.4722C534.819 64.4722 528.336 62.9062 524.54 65.7862C527.405 62.7442 531.309 60.0262 534.819 64.4722Z" fill="#014B5B"/>
<path d="M543.737 65.1205L547.999 64.1305V61.5205C547.999 61.5205 544.257 63.6085 543.737 65.1205Z" fill="#014B5B"/>
<path d="M514.262 74.6791C513.241 78.0632 509.659 79.9712 506.293 78.9452C502.926 77.9012 501.028 74.3191 502.048 70.9351C503.087 67.5511 506.651 65.643 510.017 66.669C513.384 67.7131 515.282 71.2951 514.262 74.6791Z" fill="#FEC1B9"/>
<path d="M510.948 75.7049L504.054 71.5469" stroke="#014B5B" stroke-width="0.52" stroke-miterlimit="10" stroke-linecap="round"/>
<path d="M484.427 163.725L490.444 152.403C490.444 152.403 489.996 169.827 485.304 173.14L484.427 163.725Z" fill="#171905"/>
<path opacity="0.49" d="M399.348 171.466C391.683 167.308 383.535 168.442 378.324 169.972L433.05 215.441C439.927 221.147 450.223 219.437 454.897 211.805L470.226 186.82C466.573 189.718 461.577 193.372 455.488 197.098C441.968 205.396 411.901 178.27 399.348 171.448V171.466Z" fill="#054857"/>
<path d="M547.982 255.112C547.982 255.112 538.419 443.052 527.8 518.059" stroke="#FFA93D" stroke-width="0.99" stroke-miterlimit="10"/>
<path d="M529.912 74.2287C529.912 75.0387 530.575 75.7047 531.381 75.7047C532.186 75.7047 532.849 75.0387 532.849 74.2287V71.9067C532.849 71.0967 532.186 70.4307 531.381 70.4307C530.575 70.4307 529.912 71.0967 529.912 71.9067V74.2287Z" fill="#014B5B"/>
<path d="M543.29 74.2287C543.29 75.0387 543.953 75.7047 544.758 75.7047C545.564 75.7047 546.227 75.0387 546.227 74.2287V71.9067C546.227 71.0967 545.564 70.4307 544.758 70.4307C543.953 70.4307 543.29 71.0967 543.29 71.9067V74.2287Z" fill="#014B5B"/>
<path d="M409.323 253.024L381.691 81.5548L428.018 74.0127L455.65 245.482L409.323 253.024Z" fill="#014B5B" stroke="white" stroke-width="4" stroke-miterlimit="10"/>
<path d="M628.727 312.497L569.739 300.815L532.061 170.89L531.041 170.692C528.838 189.52 526.797 203.812 524.88 213.586L510.089 289.007L470.244 281.105L503.051 113.775L561.806 125.422L599.573 253.709L600.254 253.853C602.492 236.771 604.623 223.126 606.629 212.902L621.456 137.248L661.534 145.186L628.727 312.515V312.497Z" fill="#014B5B" stroke="white" stroke-width="4" stroke-miterlimit="10"/>
<path d="M390.161 141.208L417.578 149.668C420.998 150.73 422.807 154.474 421.5 157.822L421.446 157.948C420.246 161.008 416.88 162.61 413.764 161.548L401.586 157.444L399.599 162.034L410.737 167.848C413.083 169.072 414.104 171.898 413.083 174.346L413.047 174.436C411.991 176.992 409.09 178.252 406.511 177.244L393.886 172.312L403.144 178.558C405.096 179.872 405.687 182.482 404.505 184.516L404.47 184.588C403.341 186.514 400.978 187.306 398.936 186.46L379.453 178.306C374.295 176.146 371.573 170.422 373.167 165.04C374.904 159.154 377.322 151.648 379.918 145.852C381.673 141.928 386.078 139.948 390.161 141.208Z" fill="#FEC1B9"/>
<path d="M600.164 196.828C582.095 212.056 545.868 240.55 521.872 245.68C520.69 245.932 519.454 245.5 518.631 244.618L517.467 243.376C516.231 242.062 516.177 240.046 517.323 238.66L527.441 226.438L514.136 232.666C511.879 233.728 509.211 232.72 508.19 230.452L508.155 230.38C507.277 228.418 507.904 226.096 509.659 224.854L589.652 168.226L600.379 177.658C606.181 182.752 606.091 191.86 600.2 196.846L600.164 196.828Z" fill="#FEC1B9"/>
<path d="M517.467 243.376C517.467 243.376 527.101 239.29 530.557 235.87" stroke="#054857" stroke-width="1.04" stroke-miterlimit="10" stroke-linecap="round"/>
<g style="mix-blend-mode:multiply" opacity="0.18">
<path d="M591.21 184.84C590.87 190.312 593.592 195.244 597.89 197.98L598.624 197.386C605.823 191.572 607.56 181.258 602.653 173.392C602.331 172.888 602.009 172.366 601.686 171.826C595.956 173.446 591.604 178.522 591.21 184.822V184.84Z" fill="#FFA93D"/>
</g>
<path d="M571.118 181.33L587.002 170.08" stroke="#054857" stroke-width="1.04" stroke-miterlimit="10" stroke-linecap="round"/>
<g style="mix-blend-mode:overlay" opacity="0.5">
<path d="M584.227 186.802C593.807 181.348 600.129 181.672 604.069 183.364C605.519 188.044 604.23 193.408 600.165 196.828C584.943 209.662 556.828 231.91 533.996 241.666C531.704 219.184 566.069 197.134 584.227 186.802Z" fill="white"/>
</g>
</g>
<defs>
<filter id="filter0_d_46_3069" x="0" y="0" width="1040" height="617" filterUnits="userSpaceOnUse" color-interpolation-filters="sRGB">
<feFlood flood-opacity="0" result="BackgroundImageFix"/>
<feColorMatrix in="SourceAlpha" type="matrix" values="0 0 0 0 0 0 0 0 0 0 0 0 0 0 0 0 0 0 127 0" result="hardAlpha"/>
<feOffset dy="4"/>
<feGaussianBlur stdDeviation="2"/>
<feComposite in2="hardAlpha" operator="out"/>
<feColorMatrix type="matrix" values="0 0 0 0 0 0 0 0 0 0 0 0 0 0 0 0 0 0 0.25 0"/>
<feBlend mode="normal" in2="BackgroundImageFix" result="effect1_dropShadow_46_3069"/>
<feBlend mode="normal" in="SourceGraphic" in2="effect1_dropShadow_46_3069" result="shape"/>
</filter>
<clipPath id="clip0_46_3069">
<rect width="1032" height="609" fill="white" transform="translate(4)"/>
</clipPath>
</defs>
</svg>
