<svg width="67" height="67" viewBox="0 0 67 67" fill="none" xmlns="http://www.w3.org/2000/svg">
<circle cx="33.5" cy="33.5" r="33.5" fill="#014B5B"/>
<path fill-rule="evenodd" clip-rule="evenodd" d="M20.6667 19.0039C20.2246 19.0039 19.8007 19.1795 19.4882 19.4921C19.1756 19.8046 19 20.2285 19 20.6706V34.0039C19 35.0039 19.6667 35.6706 20.6667 35.6706H22.3333V39.0039C22.3379 39.3301 22.4381 39.6478 22.6216 39.9176C22.805 40.1874 23.0636 40.3974 23.3653 40.5216C23.6669 40.6458 23.9984 40.6788 24.3186 40.6164C24.6389 40.554 24.9337 40.399 25.1667 40.1706L29.6667 35.6706H39C40 35.6706 40.6667 35.0039 40.6667 34.0039V20.6706C40.6667 19.6706 40 19.0039 39 19.0039H20.6667Z" fill="white"/>
<path fill-rule="evenodd" clip-rule="evenodd" d="M27.334 42.6712H27.5007L31.0007 39.0046H39.0007C40.3267 39.0046 41.5985 38.4778 42.5362 37.5401C43.4739 36.6024 44.0007 35.3306 44.0007 34.0046V27.3379H47.334C48.334 27.3379 49.0007 28.0046 49.0007 29.0046V42.3379C49.0007 43.3379 48.334 44.0046 47.334 44.0046H45.6673V47.3379C45.6627 47.6641 45.5625 47.9818 45.3791 48.2516C45.1957 48.5214 44.9371 48.7314 44.6354 48.8556C44.3337 48.9798 44.0022 49.0128 43.682 48.9504C43.3618 48.888 43.0669 48.733 42.834 48.5046L38.334 44.0046H29.0007C28.6107 44.0124 28.2304 43.8833 27.9259 43.6397C27.6214 43.3961 27.4119 43.0534 27.334 42.6712Z" fill="white"/>
</svg>
