<svg width="67" height="67" viewBox="0 0 67 67" fill="none" xmlns="http://www.w3.org/2000/svg">
<circle cx="33.5" cy="33.5" r="33.5" fill="#014B5B"/>
<g clip-path="url(#clip0_600_464)">
<path d="M38.5003 43.9173C38.5005 44.6321 38.2147 45.3206 37.7 45.8448C37.1854 46.3689 36.48 46.69 35.7253 46.7436L35.5003 46.7507H32.5003C31.7434 46.7509 31.0144 46.4809 30.4594 45.9949C29.9045 45.5088 29.5645 44.8426 29.5078 44.1298L29.5003 43.9173H38.5003ZM34.0003 19.834C36.7227 19.8339 39.3388 20.8326 41.2966 22.6193C43.2544 24.4059 44.4009 26.8409 44.4943 29.4107L44.5003 29.7507V35.083L47.2333 40.2453C47.3525 40.4706 47.4122 40.7198 47.4072 40.9716C47.4022 41.2234 47.3327 41.4703 47.2045 41.6911C47.0764 41.912 46.8935 42.1002 46.6715 42.2398C46.4495 42.3793 46.195 42.4659 45.9298 42.4921L45.7573 42.5007H22.2433C21.9765 42.5007 21.7137 42.4397 21.4774 42.3229C21.2411 42.206 21.0383 42.0368 20.8864 41.8296C20.7345 41.6225 20.638 41.3838 20.6053 41.1337C20.5725 40.8837 20.6044 40.6299 20.6983 40.3941L20.7673 40.2453L23.5003 35.083V29.7507C23.5003 27.1206 24.6065 24.5982 26.5756 22.7385C28.5448 20.8788 31.2155 19.834 34.0003 19.834Z" fill="white"/>
</g>
<defs>
<clipPath id="clip0_600_464">
<rect width="36" height="34" fill="white" transform="translate(16 17)"/>
</clipPath>
</defs>
</svg>
