<svg width="882" height="722" viewBox="0 0 882 722" fill="none" xmlns="http://www.w3.org/2000/svg">
<g clip-path="url(#clip0_46_4951)">
<path d="M828.141 660.968C828.141 660.968 840.135 634.797 826.424 608.979C812.713 583.162 808.748 577.099 817.485 571.795C826.222 566.49 830.236 592.433 830.236 592.433C830.236 592.433 837.61 574.599 831.524 555.93C825.439 537.262 821.626 506.847 829.933 503.588C838.241 500.33 831.524 541.531 838.721 555.577C838.721 555.577 844.781 539.94 845.766 524.934C846.75 509.929 845.21 485.981 851.775 479.842C858.34 473.704 862.532 477.948 856.093 511.041C849.654 544.133 849.705 571.037 849.705 571.037C849.705 571.037 863.946 527.612 873.491 526.349C883.035 525.086 883.035 539.131 874.854 551.333C866.673 563.534 850.917 585.385 848.316 596.627C848.316 596.627 863.946 563.963 877.985 573.967C892.05 583.971 865.764 603.725 854.048 610.849C842.331 617.973 834.201 662.685 834.201 662.685L828.166 660.968H828.141Z" fill="#014B5B"/>
<path opacity="0.2" d="M828.141 660.968C828.141 660.968 840.135 634.797 826.424 608.979C812.713 583.162 808.748 577.099 817.485 571.795C826.222 566.49 830.236 592.433 830.236 592.433C830.236 592.433 837.61 574.599 831.524 555.93C825.439 537.262 821.626 506.847 829.933 503.588C838.241 500.33 831.524 541.531 838.721 555.577C838.721 555.577 844.781 539.94 845.766 524.934C846.75 509.929 845.21 485.981 851.775 479.842C858.34 473.704 862.532 477.948 856.093 511.041C849.654 544.133 849.705 571.037 849.705 571.037C849.705 571.037 863.946 527.612 873.491 526.349C883.035 525.086 883.035 539.131 874.854 551.333C866.673 563.534 850.917 585.385 848.316 596.627C848.316 596.627 863.946 563.963 877.985 573.967C892.05 583.971 865.764 603.725 854.048 610.849C842.331 617.973 834.201 662.685 834.201 662.685L828.166 660.968H828.141Z" fill="black"/>
<path d="M837.609 671.703C837.609 671.703 825.918 645.356 839.932 619.74C853.946 594.125 857.986 588.113 849.325 582.707C840.664 577.301 836.346 603.169 836.346 603.169C836.346 603.169 829.201 585.208 835.513 566.641C841.826 548.048 845.992 517.709 837.735 514.324C829.478 510.939 835.69 552.242 828.317 566.161C828.317 566.161 822.459 550.448 821.625 535.417C820.792 520.387 822.661 496.489 816.171 490.25C809.682 484.01 805.44 488.204 811.475 521.397C817.51 554.591 817.156 581.494 817.156 581.494C817.156 581.494 803.445 537.868 793.9 536.453C784.356 535.038 784.204 549.109 792.234 561.412C800.263 573.739 815.767 595.818 818.217 607.084C818.217 607.084 802.991 574.194 788.825 583.995C774.659 593.797 800.693 613.93 812.333 621.231C823.974 628.531 831.549 673.345 831.549 673.345L837.609 671.703Z" fill="#FFA93D"/>
<path d="M783.725 652.909H880.207L872.404 722H791.552L783.725 652.909Z" fill="#054857"/>
<path d="M425.901 710.885V719.954C425.901 721.09 424.992 721.974 423.855 721.974H167.765C158.296 721.974 151.832 712.4 155.367 703.635L236.522 502.553L367.673 503.437L363.204 529.532L334.267 698.405C333.332 703.862 337.524 708.838 343.054 708.838H423.855C424.992 708.838 425.901 709.723 425.901 710.859V710.885Z" fill="#054857"/>
<path opacity="0.5" d="M425.901 710.885V719.954C425.901 721.09 424.992 721.974 423.855 721.974H167.765C158.296 721.974 151.832 712.4 155.367 703.635L205.691 578.994L236.522 502.553L367.673 503.437L363.204 529.532L350.629 602.967L334.292 698.38C333.358 703.837 337.549 708.813 343.079 708.813H423.881C425.017 708.813 425.926 709.697 425.926 710.834L425.901 710.885Z" fill="white"/>
<path opacity="0.2" d="M343.053 708.864H176.425C172.259 708.864 169.431 704.62 171.022 700.78L242.178 529.583H363.203L334.266 698.456C333.332 703.913 337.523 708.889 343.053 708.889V708.864Z" fill="black"/>
<path opacity="0.1" d="M367.673 503.462L363.204 529.557L350.604 602.993L205.691 578.994L236.522 502.578L367.673 503.462Z" fill="black"/>
<path d="M622.677 128.632H15.5291C6.94389 128.632 0 135.579 0 144.168V555.375C0 563.964 6.94389 570.911 15.5291 570.911H622.677C631.263 570.911 638.206 563.964 638.206 555.375V144.168C638.206 135.579 631.237 128.632 622.677 128.632Z" fill="#054857"/>
<path opacity="0.6" d="M622.677 128.632H15.5291C6.94389 128.632 0 135.579 0 144.168V555.375C0 563.964 6.94389 570.911 15.5291 570.911H622.677C631.263 570.911 638.206 563.964 638.206 555.375V144.168C638.206 135.579 631.237 128.632 622.677 128.632Z" fill="white"/>
<path opacity="0.2" d="M28.4068 570.911H15.5291C6.96914 570.911 0 563.964 0 555.4V144.193C0 135.604 6.94389 128.632 15.5291 128.632H28.4068C19.8469 128.632 12.8778 135.579 12.8778 144.193V555.4C12.8778 563.964 19.8216 570.936 28.4068 570.936V570.911Z" fill="black"/>
<path d="M624.243 141.995H26.8916V538.525H624.243V141.995Z" fill="#014B5B"/>
<path opacity="0.4" d="M317.323 292.933C345.967 292.933 369.187 269.702 369.187 241.045C369.187 212.389 345.967 189.158 317.323 189.158C288.679 189.158 265.458 212.389 265.458 241.045C265.458 269.702 288.679 292.933 317.323 292.933Z" fill="white"/>
<path d="M304.95 233.164V228.314C304.95 223.59 308.788 219.775 313.484 219.775H321.135C325.857 219.775 329.67 223.615 329.67 228.314V233.164H335.2V228.314C335.2 220.559 328.887 214.243 321.135 214.243H313.484C305.733 214.243 299.42 220.559 299.42 228.314V233.164H304.95Z" fill="white"/>
<path d="M292.451 239.555V265.044C292.451 266.61 293.714 267.873 295.279 267.873H339.367C340.932 267.873 342.195 266.61 342.195 265.044V239.555C342.195 237.989 340.932 236.726 339.367 236.726H295.279C293.714 236.726 292.451 237.989 292.451 239.555ZM318.914 254.004V259.006H315.732V254.004C314.823 253.449 314.192 252.489 314.192 251.352C314.192 249.609 315.606 248.194 317.348 248.194C319.09 248.194 320.504 249.609 320.504 251.352C320.504 252.489 319.873 253.449 318.964 254.004H318.914Z" fill="white"/>
<path d="M190.793 335.902H141.807C138.892 335.902 136.529 338.266 136.529 341.182V390.189C136.529 393.105 138.892 395.469 141.807 395.469H190.793C193.707 395.469 196.07 393.105 196.07 390.189V341.182C196.07 338.266 193.707 335.902 190.793 335.902Z" fill="white"/>
<path d="M266.317 335.827H217.331C214.416 335.827 212.054 338.191 212.054 341.107V390.114C212.054 393.03 214.416 395.394 217.331 395.394H266.317C269.232 395.394 271.594 393.03 271.594 390.114V341.107C271.594 338.191 269.232 335.827 266.317 335.827Z" fill="white"/>
<path d="M341.816 335.751H292.83C289.915 335.751 287.553 338.115 287.553 341.031V390.038C287.553 392.954 289.915 395.318 292.83 395.318H341.816C344.731 395.318 347.093 392.954 347.093 390.038V341.031C347.093 338.115 344.731 335.751 341.816 335.751Z" fill="white"/>
<path d="M417.315 335.65H368.329C365.415 335.65 363.052 338.014 363.052 340.93V389.937C363.052 392.853 365.415 395.217 368.329 395.217H417.315C420.23 395.217 422.592 392.853 422.592 389.937V340.93C422.592 338.014 420.23 335.65 417.315 335.65Z" fill="white"/>
<path d="M492.814 335.574H443.828C440.914 335.574 438.551 337.938 438.551 340.854V389.861C438.551 392.777 440.914 395.141 443.828 395.141H492.814C495.729 395.141 498.091 392.777 498.091 389.861V340.854C498.091 337.938 495.729 335.574 492.814 335.574Z" fill="white"/>
<path d="M455.216 366.519C455.216 356.036 460.821 350.074 468.346 350.074C475.871 350.074 481.426 356.061 481.426 366.519C481.426 376.978 475.82 382.965 468.346 382.965C460.872 382.965 455.216 377.003 455.216 366.519ZM476.856 366.519C476.856 358.284 473.371 354.167 468.346 354.167C463.321 354.167 459.811 358.309 459.811 366.519C459.811 374.729 463.296 378.872 468.346 378.872C473.396 378.872 476.856 374.729 476.856 366.519Z" fill="#054857"/>
<path d="M178.269 366.115C178.269 377.104 172.057 382.965 163.068 382.965C160.038 382.965 157.134 382.358 155.089 381.07L156.831 377.483C158.523 378.594 160.694 378.999 163.042 378.999C169.557 378.999 173.698 374.906 173.698 366.873V365.736C171.804 368.54 168.421 369.955 164.431 369.955C158.043 369.955 153.447 366.14 153.447 360.204C153.447 354.267 158.396 350.049 164.785 350.049C173.42 350.049 178.294 355.834 178.294 366.09L178.269 366.115ZM172.612 360.002C172.612 356.693 169.961 353.788 164.936 353.788C160.745 353.788 157.866 356.213 157.866 360.027C157.866 363.842 160.669 366.241 165.164 366.241C169.658 366.241 172.612 363.538 172.612 360.002Z" fill="#054857"/>
<path d="M228.802 366.681C228.802 356.197 234.407 350.235 241.932 350.235C249.457 350.235 255.012 356.222 255.012 366.681C255.012 377.139 249.406 383.126 241.932 383.126C234.458 383.126 228.802 377.164 228.802 366.681ZM250.441 366.681C250.441 358.445 246.957 354.328 241.932 354.328C236.907 354.328 233.397 358.471 233.397 366.681C233.397 374.891 236.882 379.033 241.932 379.033C246.982 379.033 250.441 374.891 250.441 366.681Z" fill="#054857"/>
<path d="M329.046 378.755V382.747H305.942V379.614L319.022 366.984C322.431 363.674 323.062 361.653 323.062 359.633C323.062 356.323 320.714 354.302 316.219 354.302C312.785 354.302 309.982 355.414 307.988 357.788L304.856 355.085C307.331 352.004 311.598 350.21 316.623 350.21C323.34 350.21 327.658 353.645 327.658 359.178C327.658 362.31 326.749 365.114 322.38 369.282L312.558 378.755H329.046Z" fill="#054857"/>
<path d="M396.509 350.428V382.586H391.964V354.419H384.717V350.428H396.509Z" fill="#054857"/>
<g opacity="0.6">
<path d="M260.837 321.352V322.489H252.075V310.11H260.559V311.247H253.388V315.643H259.802V316.754H253.388V321.352H260.837Z" fill="white"/>
<path d="M272.199 317.083V322.489H270.937V317.209C270.937 315.239 269.902 314.229 268.134 314.229C266.139 314.229 264.877 315.466 264.877 317.588V322.464H263.614V313.168H264.826V314.885C265.508 313.749 266.745 313.092 268.361 313.092C270.634 313.092 272.174 314.405 272.174 317.083H272.199Z" fill="white"/>
<path d="M280.508 321.908C280.003 322.337 279.27 322.565 278.538 322.565C276.796 322.565 275.811 321.579 275.811 319.862V314.228H274.145V313.167H275.811V311.121H277.074V313.167H279.902V314.228H277.074V319.786C277.074 320.872 277.629 321.478 278.69 321.478C279.195 321.478 279.725 321.327 280.078 320.998L280.508 321.908Z" fill="white"/>
<path d="M290.532 318.22H282.755C282.906 320.165 284.371 321.453 286.416 321.453C287.552 321.453 288.562 321.049 289.269 320.241L289.976 321.049C289.143 322.034 287.855 322.565 286.391 322.565C283.487 322.565 281.518 320.594 281.518 317.816C281.518 315.037 283.437 313.092 286.063 313.092C288.689 313.092 290.583 315.012 290.583 317.816C290.583 317.917 290.583 318.068 290.583 318.195L290.532 318.22ZM282.755 317.285H289.345C289.194 315.466 287.855 314.178 286.037 314.178C284.219 314.178 282.906 315.441 282.755 317.285Z" fill="white"/>
<path d="M297.804 313.092V314.304C297.804 314.304 297.602 314.304 297.501 314.304C295.557 314.304 294.37 315.542 294.37 317.74V322.489H293.107V313.193H294.319V315.012C294.9 313.774 296.087 313.117 297.804 313.117V313.092Z" fill="white"/>
<path d="M312.651 313.168L308.005 323.575C307.223 325.394 306.238 325.975 304.9 325.975C304.041 325.975 303.208 325.697 302.627 325.116L303.208 324.182C303.662 324.636 304.243 324.889 304.9 324.889C305.733 324.889 306.288 324.51 306.819 323.323L307.223 322.413L303.056 313.117H304.369L307.879 321.024L311.389 313.117H312.626L312.651 313.168Z" fill="white"/>
<path d="M313.207 317.816C313.207 315.062 315.227 313.092 317.954 313.092C320.681 313.092 322.676 315.062 322.676 317.816C322.676 320.569 320.681 322.565 317.954 322.565C315.227 322.565 313.207 320.594 313.207 317.816ZM321.388 317.816C321.388 315.643 319.924 314.178 317.929 314.178C315.934 314.178 314.47 315.618 314.47 317.816C314.47 320.013 315.959 321.453 317.929 321.453C319.898 321.453 321.388 320.013 321.388 317.816Z" fill="white"/>
<path d="M333.609 313.167V322.463H332.397V320.771C331.741 321.907 330.529 322.564 329.064 322.564C326.691 322.564 325.125 321.225 325.125 318.573V313.167H326.388V318.447C326.388 320.417 327.423 321.428 329.19 321.428C331.135 321.428 332.347 320.164 332.347 318.042V313.167H333.609Z" fill="white"/>
<path d="M341.816 313.092V314.304C341.816 314.304 341.614 314.304 341.513 314.304C339.568 314.304 338.382 315.542 338.382 317.74V322.489H337.119V313.193H338.331V315.012C338.912 313.774 340.099 313.117 341.816 313.117V313.092Z" fill="white"/>
<path d="M348.002 316.3C348.002 312.687 350.754 310.01 354.517 310.01C358.279 310.01 361.006 312.687 361.006 316.3C361.006 319.912 358.228 322.59 354.517 322.59C350.805 322.59 348.002 319.912 348.002 316.3ZM359.693 316.3C359.693 313.344 357.471 311.172 354.517 311.172C351.562 311.172 349.29 313.344 349.29 316.3C349.29 319.255 351.512 321.428 354.517 321.428C357.521 321.428 359.693 319.255 359.693 316.3Z" fill="white"/>
<path d="M366.157 311.223H361.813V310.086H371.813V311.223H367.47V322.464H366.157V311.223Z" fill="white"/>
<path d="M383.605 314.33C383.605 316.957 381.686 318.549 378.555 318.549H375.222V322.464H373.909V310.086H378.53C381.686 310.086 383.58 311.677 383.58 314.33H383.605ZM382.292 314.33C382.292 312.359 380.979 311.223 378.505 311.223H375.222V317.412H378.505C380.979 317.412 382.292 316.275 382.292 314.33Z" fill="white"/>
</g>
<g opacity="0.6">
<path d="M268.211 427.704L268.716 426.693C269.6 427.552 271.165 428.184 272.807 428.184C275.13 428.184 276.14 427.224 276.14 425.986C276.14 422.601 268.514 424.672 268.514 420.1C268.514 418.281 269.928 416.715 273.084 416.715C274.473 416.715 275.938 417.119 276.922 417.801L276.493 418.837C275.433 418.155 274.195 417.801 273.11 417.801C270.837 417.801 269.827 418.812 269.827 420.049C269.827 423.434 277.453 421.388 277.453 425.91C277.453 427.729 276.013 429.295 272.832 429.295C270.963 429.295 269.145 428.638 268.236 427.678L268.211 427.704Z" fill="white"/>
<path d="M288.083 424.949H280.306C280.457 426.895 281.922 428.183 283.967 428.183C285.103 428.183 286.113 427.779 286.82 426.97L287.527 427.779C286.694 428.764 285.406 429.294 283.942 429.294C281.038 429.294 279.068 427.324 279.068 424.545C279.068 421.766 280.987 419.821 283.613 419.821C286.24 419.821 288.133 421.741 288.133 424.545C288.133 424.646 288.133 424.798 288.133 424.924L288.083 424.949ZM280.306 424.015H286.896C286.745 422.196 285.406 420.908 283.588 420.908C281.77 420.908 280.457 422.171 280.306 424.015Z" fill="white"/>
<path d="M299.219 423.813V429.219H297.956V423.939C297.956 421.969 296.921 420.958 295.154 420.958C293.159 420.958 291.896 422.196 291.896 424.318V429.193H290.634V419.897H291.846V421.615C292.528 420.478 293.765 419.821 295.381 419.821C297.653 419.821 299.194 421.135 299.194 423.813H299.219Z" fill="white"/>
<path d="M311.162 416.083V429.219H309.95V427.375C309.193 428.638 307.905 429.295 306.365 429.295C303.714 429.295 301.719 427.375 301.719 424.546C301.719 421.716 303.688 419.822 306.365 419.822C307.855 419.822 309.117 420.453 309.9 421.666V416.083H311.162ZM309.925 424.571C309.925 422.398 308.435 420.933 306.466 420.933C304.496 420.933 303.007 422.373 303.007 424.571C303.007 426.769 304.496 428.209 306.466 428.209C308.435 428.209 309.925 426.769 309.925 424.571Z" fill="white"/>
<path d="M326.312 423.459V429.219H325.1V427.779C324.545 428.739 323.434 429.32 321.893 429.32C319.798 429.32 318.51 428.234 318.51 426.617C318.51 425.177 319.419 423.99 322.095 423.99H325.05V423.434C325.05 421.842 324.141 420.984 322.424 420.984C321.212 420.984 320.101 421.413 319.318 422.07L318.762 421.135C319.697 420.327 321.085 419.872 322.55 419.872C324.949 419.872 326.312 421.085 326.312 423.484V423.459ZM325.05 426.44V424.924H322.121C320.328 424.924 319.722 425.632 319.722 426.592C319.722 427.678 320.58 428.335 322.07 428.335C323.56 428.335 324.519 427.653 325.024 426.44H325.05Z" fill="white"/>
<path d="M338.357 419.922V428.107C338.357 431.315 336.792 432.755 333.711 432.755C332.019 432.755 330.353 432.25 329.368 431.315L329.999 430.355C330.883 431.164 332.221 431.618 333.66 431.618C336.009 431.618 337.095 430.532 337.095 428.233V427.046C336.312 428.233 334.999 428.84 333.458 428.84C330.807 428.84 328.787 426.97 328.787 424.318C328.787 421.665 330.807 419.821 333.458 419.821C335.024 419.821 336.362 420.453 337.145 421.691V419.897H338.357V419.922ZM337.145 424.343C337.145 422.322 335.655 420.958 333.61 420.958C331.565 420.958 330.1 422.347 330.1 424.343C330.1 426.339 331.565 427.753 333.61 427.753C335.655 427.753 337.145 426.364 337.145 424.343Z" fill="white"/>
<path d="M348.886 423.459V429.219H347.674V427.779C347.119 428.739 346.008 429.32 344.468 429.32C342.372 429.32 341.084 428.234 341.084 426.617C341.084 425.177 341.993 423.99 344.67 423.99H347.624V423.434C347.624 421.842 346.715 420.984 344.998 420.984C343.786 420.984 342.675 421.413 341.892 422.07L341.336 421.135C342.271 420.327 343.66 419.872 345.124 419.872C347.523 419.872 348.886 421.085 348.886 423.484V423.459ZM347.624 426.44V424.924H344.695C342.902 424.924 342.296 425.632 342.296 426.592C342.296 427.678 343.155 428.335 344.644 428.335C346.134 428.335 347.094 427.653 347.599 426.44H347.624Z" fill="white"/>
<path d="M352.018 416.967C352.018 416.487 352.422 416.083 352.927 416.083C353.432 416.083 353.836 416.462 353.836 416.942C353.836 417.447 353.457 417.851 352.927 417.851C352.396 417.851 352.018 417.447 352.018 416.942V416.967ZM352.295 419.897H353.558V429.194H352.295V419.897Z" fill="white"/>
<path d="M365.602 423.813V429.219H364.339V423.939C364.339 421.969 363.304 420.958 361.536 420.958C359.542 420.958 358.279 422.196 358.279 424.318V429.193H357.017V419.897H358.229V421.615C358.91 420.478 360.148 419.821 361.764 419.821C364.036 419.821 365.577 421.135 365.577 423.813H365.602Z" fill="white"/>
</g>
<path opacity="0.4" d="M387.671 492.372H246.95C235.36 492.372 225.967 482.975 225.967 471.38C225.967 459.785 235.36 450.388 246.95 450.388H387.671C399.261 450.388 408.654 459.785 408.654 471.38C408.654 482.975 399.261 492.372 387.671 492.372Z" fill="white"/>
<path d="M262.429 470.319C262.429 466.151 265.61 463.095 269.928 463.095C272.1 463.095 274.019 463.853 275.306 465.292L273.993 466.556C272.908 465.419 271.569 464.888 270.029 464.888C266.848 464.888 264.474 467.187 264.474 470.319C264.474 473.452 266.848 475.751 270.029 475.751C271.595 475.751 272.908 475.195 273.993 474.058L275.306 475.321C274.019 476.786 272.125 477.544 269.928 477.544C265.636 477.544 262.454 474.488 262.454 470.319H262.429Z" fill="white"/>
<path d="M276.746 470.319C276.746 466.177 279.928 463.095 284.271 463.095C288.614 463.095 291.77 466.177 291.77 470.319C291.77 474.462 288.589 477.544 284.271 477.544C279.953 477.544 276.746 474.462 276.746 470.319ZM289.75 470.319C289.75 467.187 287.402 464.888 284.271 464.888C281.14 464.888 278.766 467.187 278.766 470.319C278.766 473.452 281.114 475.751 284.271 475.751C287.427 475.751 289.75 473.452 289.75 470.319Z" fill="white"/>
<path d="M307.021 463.246V477.393H305.355L296.871 466.858V477.393H294.851V463.246H296.517L305.001 473.78V463.246H307.021Z" fill="white"/>
<path d="M314.066 464.989H309.218V463.221H320.909V464.989H316.061V477.367H314.066V464.989Z" fill="white"/>
<path d="M323.105 463.246H325.125V477.393H323.105V463.246Z" fill="white"/>
<path d="M341.539 463.246V477.393H339.872L331.388 466.858V477.393H329.368V463.246H331.035L339.519 473.78V463.246H341.539Z" fill="white"/>
<path d="M345.654 471.279V463.246H347.674V471.203C347.674 474.336 349.113 475.751 351.639 475.751C354.164 475.751 355.628 474.336 355.628 471.203V463.246H357.598V471.279C357.598 475.372 355.35 477.544 351.613 477.544C347.876 477.544 345.629 475.372 345.629 471.279H345.654Z" fill="white"/>
<path d="M372.016 475.624V477.393H361.765V463.246H371.739V465.014H363.785V469.359H370.88V471.077H363.785V475.649H372.016V475.624Z" fill="white"/>
<path opacity="0.1" d="M562.083 144C479.489 226.782 267.36 411.014 27 397.398V144H562.083Z" fill="white"/>
<path opacity="0.1" d="M624.326 296.15V540.53H264.708C278.495 491.169 306.068 423.569 359.549 375.269C455.753 288.369 567.411 288.622 624.351 296.15H624.326Z" fill="white"/>
<path d="M700.196 104.86L708.579 141.894L716.963 104.86H700.196Z" fill="#FFA93D"/>
<path opacity="0.7" d="M700.196 104.86L708.579 141.894L716.963 104.86H700.196Z" fill="#FFA93D"/>
<path d="M802.411 0H614.774C602.795 0 593.084 9.71527 593.084 21.6997V91.371C593.084 103.355 602.795 113.071 614.774 113.071H802.411C814.39 113.071 824.101 103.355 824.101 91.371V21.6997C824.101 9.71527 814.39 0 802.411 0Z" fill="#FFA93D"/>
<path opacity="0.7" d="M802.411 0H614.774C602.795 0 593.084 9.71527 593.084 21.6997V91.371C593.084 103.355 602.795 113.071 614.774 113.071H708.592H802.411C814.39 113.071 824.101 103.355 824.101 91.371V21.6997C824.101 9.71527 814.39 0 802.411 0Z" fill="#FFA93D"/>
<g opacity="0.5">
<path d="M639.217 41.5055V46.4062H637.222V41.4802L631.616 32.2598H633.788L638.308 39.7119L642.853 32.2598H644.847L639.242 41.5055H639.217Z" fill="#014B5B"/>
<path d="M644.393 41.0249C644.393 37.8419 646.766 35.5684 649.973 35.5684C653.18 35.5684 655.528 37.8419 655.528 41.0249C655.528 44.2078 653.18 46.5066 649.973 46.5066C646.766 46.5066 644.393 44.2331 644.393 41.0249ZM653.558 41.0249C653.558 38.7513 652.018 37.2609 649.973 37.2609C647.928 37.2609 646.362 38.7261 646.362 41.0249C646.362 43.3237 647.928 44.8141 649.973 44.8141C652.018 44.8141 653.558 43.3237 653.558 41.0249Z" fill="#014B5B"/>
<path d="M668.178 35.6699V46.3808H666.335V44.7641C665.552 45.8756 664.214 46.5071 662.699 46.5071C659.922 46.5071 658.104 44.9914 658.104 41.8337V35.6699H660.048V41.6064C660.048 43.7031 661.108 44.7641 662.926 44.7641C664.946 44.7641 666.234 43.501 666.234 41.2022V35.6699H668.178Z" fill="#014B5B"/>
<path d="M677.648 35.5684V37.4377C677.496 37.4377 677.345 37.4377 677.193 37.4377C675.123 37.4377 673.81 38.7008 673.81 41.0501V46.3803H671.865V35.6694H673.734V37.463C674.416 36.1999 675.754 35.5684 677.622 35.5684H677.648Z" fill="#014B5B"/>
<path d="M684.743 39.3068C684.743 35.1639 687.925 32.082 692.268 32.082C696.611 32.082 699.767 35.1387 699.767 39.3068C699.767 43.475 696.586 46.5316 692.268 46.5316C687.95 46.5316 684.743 43.4497 684.743 39.3068ZM697.747 39.3068C697.747 36.1744 695.399 33.8756 692.268 33.8756C689.137 33.8756 686.763 36.1744 686.763 39.3068C686.763 42.4393 689.112 44.7381 692.268 44.7381C695.424 44.7381 697.747 42.4393 697.747 39.3068Z" fill="#014B5B"/>
<path d="M705.474 34.0027H700.626V32.2344H712.317V34.0027H707.469V46.3808H705.474V34.0027Z" fill="#014B5B"/>
<path d="M725.927 37.1856C725.927 40.2675 723.705 42.1116 720.044 42.1116H716.559V46.3808H714.539V32.2344H720.044C723.73 32.2344 725.927 34.1037 725.927 37.1604V37.1856ZM723.907 37.1856C723.907 35.1647 722.543 34.0027 719.968 34.0027H716.534V40.3433H719.968C722.543 40.3433 723.907 39.1813 723.907 37.1604V37.1856Z" fill="#014B5B"/>
<path d="M733.376 39.3068C733.376 35.1134 736.558 32.082 740.875 32.082C743.047 32.082 744.966 32.8399 746.254 34.2798L744.941 35.5429C743.855 34.3808 742.517 33.8756 740.976 33.8756C737.795 33.8756 735.421 36.1744 735.421 39.3068C735.421 42.4393 737.795 44.7381 740.976 44.7381C742.542 44.7381 743.855 44.1823 744.941 43.0455L746.254 44.3086C744.966 45.7738 743.072 46.5316 740.875 46.5316C736.583 46.5316 733.401 43.475 733.401 39.3068H733.376Z" fill="#014B5B"/>
<path d="M747.415 41.0249C747.415 37.8419 749.789 35.5684 752.995 35.5684C756.202 35.5684 758.551 37.8419 758.551 41.0249C758.551 44.2078 756.202 46.5066 752.995 46.5066C749.789 46.5066 747.415 44.2331 747.415 41.0249ZM756.581 41.0249C756.581 38.7513 755.041 37.2609 752.995 37.2609C750.95 37.2609 749.385 38.7261 749.385 41.0249C749.385 43.3237 750.95 44.8141 752.995 44.8141C755.041 44.8141 756.581 43.3237 756.581 41.0249Z" fill="#014B5B"/>
<path d="M771.327 31.4004V46.3805H769.459V44.688C768.6 45.9005 767.211 46.5068 765.646 46.5068C762.515 46.5068 760.242 44.309 760.242 41.025C760.242 37.741 762.515 35.5685 765.646 35.5685C767.161 35.5685 768.499 36.1243 769.383 37.2863V31.4004H771.327ZM769.408 41.025C769.408 38.7515 767.843 37.2611 765.823 37.2611C763.803 37.2611 762.212 38.7262 762.212 41.025C762.212 43.3238 763.777 44.8143 765.823 44.8143C767.868 44.8143 769.408 43.3238 769.408 41.025Z" fill="#014B5B"/>
<path d="M784.634 41.6818H775.948C776.201 43.5511 777.716 44.8142 779.837 44.8142C781.099 44.8142 782.135 44.3848 782.917 43.5259L783.978 44.7889C783.018 45.9257 781.529 46.532 779.761 46.532C776.302 46.532 774.004 44.2585 774.004 41.0502C774.004 37.842 776.276 35.5938 779.382 35.5938C782.488 35.5938 784.685 37.8168 784.685 41.1008C784.685 41.2523 784.685 41.5049 784.634 41.6818ZM775.948 40.2924H782.816C782.614 38.4988 781.251 37.2105 779.382 37.2105C777.514 37.2105 776.15 38.4736 775.948 40.2924Z" fill="#014B5B"/>
</g>
<g opacity="0.5">
<path d="M679.39 68.5089C679.39 76.4662 674.896 80.7102 668.381 80.7102C666.184 80.7102 664.089 80.2807 662.599 79.346L663.861 76.7441C665.099 77.5525 666.664 77.8304 668.356 77.8304C673.078 77.8304 676.057 74.8748 676.057 69.0393V68.2057C674.694 70.2266 672.244 71.2624 669.341 71.2624C664.72 71.2624 661.387 68.5089 661.387 64.2144C661.387 59.9199 664.972 56.8633 669.593 56.8633C675.855 56.8633 679.365 61.0567 679.365 68.4836L679.39 68.5089ZM675.3 64.0881C675.3 61.6882 673.381 59.5915 669.745 59.5915C666.715 59.5915 664.619 61.3598 664.619 64.1133C664.619 66.8668 666.639 68.6099 669.896 68.6099C673.153 68.6099 675.274 66.6395 675.274 64.0881H675.3Z" fill="#014B5B"/>
<path d="M682.597 68.8122C682.597 61.2338 686.662 56.9141 692.116 56.9141C697.57 56.9141 701.585 61.2338 701.585 68.8122C701.585 76.3907 697.52 80.7104 692.116 80.7104C686.713 80.7104 682.597 76.3907 682.597 68.8122ZM698.252 68.8122C698.252 62.8505 695.727 59.8697 692.091 59.8697C688.455 59.8697 685.905 62.8758 685.905 68.8122C685.905 74.7487 688.43 77.7548 692.091 77.7548C695.752 77.7548 698.252 74.7487 698.252 68.8122Z" fill="#014B5B"/>
<path d="M721.053 77.5525V80.4576H704.337V78.184L713.806 69.0393C716.256 66.6395 716.735 65.1743 716.735 63.7092C716.735 61.3093 715.044 59.8441 711.786 59.8441C709.287 59.8441 707.266 60.6525 705.827 62.3703L703.555 60.3999C705.347 58.1769 708.453 56.8633 712.064 56.8633C716.912 56.8633 720.043 59.3642 720.043 63.3555C720.043 65.629 719.387 67.65 716.23 70.6813L709.11 77.5272H721.053V77.5525Z" fill="#014B5B"/>
<path d="M731.002 57.166V80.4572H727.72V60.0711H722.468V57.166H731.002Z" fill="#014B5B"/>
<path d="M736.078 68.8122C736.078 61.2338 740.143 56.9141 745.598 56.9141C751.052 56.9141 755.066 61.2338 755.066 68.8122C755.066 76.3907 751.001 80.7104 745.598 80.7104C740.194 80.7104 736.078 76.3907 736.078 68.8122ZM751.733 68.8122C751.733 62.8505 749.208 59.8697 745.572 59.8697C741.936 59.8697 739.386 62.8758 739.386 68.8122C739.386 74.7487 741.911 77.7548 745.572 77.7548C749.234 77.7548 751.733 74.7487 751.733 68.8122Z" fill="#014B5B"/>
</g>
<path d="M687.824 213.485L690.425 215.203L693.278 217.021C695.222 218.234 697.217 219.396 699.212 220.533C703.227 222.781 707.317 224.954 711.484 226.848C719.842 230.663 728.427 233.77 737.164 235.715L737.568 235.816C737.719 235.841 737.896 235.892 737.719 235.867C737.593 235.867 737.441 235.867 737.088 235.867C736.507 235.892 735.346 236.069 733.957 236.902C732.593 237.736 731.684 239.024 731.381 239.757C731.053 240.54 731.078 240.894 731.078 240.944C731.154 241.096 731.23 240.439 731.204 239.681C731.204 238.923 731.078 237.988 730.927 237.003C730.245 233.012 729.008 228.414 727.543 223.918C724.665 214.874 721.23 205.578 717.822 196.433L727.568 191.204C733.401 199.641 738.603 208.281 743.173 217.628C745.395 222.352 747.592 227.126 749.183 232.785C749.587 234.224 749.94 235.74 750.218 237.433C750.47 239.15 750.698 240.995 750.445 243.622C750.319 244.885 750.016 246.476 749.132 248.371C748.299 250.215 746.582 252.514 744.158 253.979C741.709 255.469 739.285 255.848 737.467 255.924C736.507 255.949 735.724 255.924 734.992 255.823L734.234 255.722L733.729 255.646C722.897 254.181 712.418 251.226 702.621 247.057C697.697 244.986 692.874 242.738 688.203 240.161C685.88 238.847 683.582 237.508 681.309 236.069C680.173 235.336 679.037 234.629 677.926 233.871C676.764 233.088 675.754 232.355 674.416 231.345L687.774 213.46L687.824 213.485Z" fill="#DC897C"/>
<path d="M684.996 210.605C699.541 212.273 709.313 220.483 709.313 220.483L699.162 251.756C699.162 251.756 650.151 206.614 685.022 210.605H684.996Z" fill="#FFA93D"/>
<path opacity="0.6" d="M684.895 237.029C691.839 245.062 699.111 251.756 699.111 251.756L703.277 238.898L709.262 220.482C709.262 220.482 699.49 212.247 684.971 210.605C663.533 208.155 673.785 224.246 684.87 237.003L684.895 237.029Z" fill="#FFA93D"/>
<path opacity="0.2" d="M684.895 237.029C691.839 245.062 699.111 251.757 699.111 251.757L703.278 238.898C694.364 232.027 684.946 232.583 684.946 232.583C684.769 234.099 684.769 235.614 684.87 237.029H684.895Z" fill="black"/>
<path d="M575.914 164.478C575.914 164.478 552.431 242.586 601.897 253.07C651.363 263.553 656.539 227.606 656.539 227.606C656.539 227.606 616.012 166.069 575.914 164.478Z" fill="#054857"/>
<path d="M564.299 189.739C564.299 189.739 566.723 185.243 571.066 184.965" stroke="#054857" stroke-width="0.48" stroke-linecap="round" stroke-linejoin="round"/>
<path d="M571.369 200.046C571.369 200.046 570.838 205.351 569.323 208.963C569.323 208.963 571.672 210.656 574.5 209.064L571.369 200.071V200.046Z" fill="#DE5753"/>
<path d="M566.597 196.636C567.127 198.025 568.289 198.859 569.223 198.505C570.157 198.151 570.46 196.737 569.93 195.372C569.4 193.983 568.238 193.149 567.304 193.503C566.37 193.857 566.067 195.271 566.597 196.636Z" fill="#054857"/>
<path d="M567.733 193.428H564.273C564.273 193.428 566.748 195.348 567.733 193.428Z" fill="#054857"/>
<path d="M616.871 209.721C616.77 209.948 616.669 210.175 616.517 210.352C616.29 210.782 616.037 211.186 615.785 211.615C614.295 214.142 612.452 216.642 609.977 218.562C602.326 224.6 595.812 226.419 590.08 224.676C589.802 224.6 589.524 224.499 589.246 224.398H589.221C580.712 220.962 574.172 210.782 568.794 197.317C566.294 191.154 564.678 185.545 564.425 180.695C564.425 180.645 564.349 180.493 564.349 180.443C564.349 180.241 564.299 179.988 564.299 179.786C564.097 172.94 566.47 167.332 572.278 162.684C574.298 161.067 576.722 159.551 579.601 158.162C604.977 145.834 629.521 185.899 616.871 209.721Z" fill="#E4897B"/>
<path opacity="0.2" d="M615.784 211.615C614.294 214.141 612.451 216.642 609.977 218.562C602.326 224.6 595.811 226.419 590.079 224.675C594.725 223.438 600.28 220.962 604.447 215.96C607.174 212.752 611.315 211.64 615.784 211.615Z" fill="black"/>
<path d="M564.324 180.544C564.324 180.544 571.368 199.086 591.948 198.757C591.948 198.757 608.007 213.889 618.839 209.089C633.611 202.547 636.666 175.668 621.592 156.874C602.048 132.522 559.425 149.952 564.324 180.519V180.544Z" fill="#171714"/>
<path d="M580.939 197.696C579.626 194.892 579.651 189.158 584.297 187.743C589.095 186.278 596.821 196.181 586.948 203.86C585.534 204.972 583.691 203.532 580.939 197.696Z" fill="#E4897B"/>
<path d="M586.468 146.794C586.468 146.794 567.379 150.558 561.193 161.875C553.971 175.087 553.719 185.369 572.833 192.063C572.833 192.063 597.074 169.226 607.527 166.7C617.981 164.174 626.112 163.719 626.112 163.719C619.168 143.839 594.195 138.433 586.494 146.819L586.468 146.794Z" fill="#171714"/>
<path d="M604.977 219.067C604.977 219.067 618.107 228.161 621.541 243.167L662.472 219.269C662.472 219.269 630.429 211.943 624.899 199.54C624.899 199.54 603.487 202.193 604.977 219.042V219.067Z" fill="#E4897B"/>
<path d="M645.63 317.461C645.63 317.461 592.705 265.321 586.897 248.952C586.897 248.952 609.194 214.217 653.761 212.752C698.328 211.287 728.654 296.115 728.654 296.115L645.63 317.436V317.461Z" fill="#FFA93D"/>
<path d="M596.039 189.866C596.039 189.866 603.791 215.632 631.011 224.196C658.231 232.76 651.388 260.522 677.775 257.263C691.814 255.52 703.833 226.924 660.781 201.713C635.682 187.036 645.429 138.787 592.15 143.309C592.15 143.309 603.185 176.376 596.039 189.866Z" fill="#171714"/>
<path d="M622.527 710.228L609.927 707.348C611.821 644.244 620.936 567.828 628.991 510.459C630.253 501.466 631.491 492.978 632.677 485.046C633.258 481.282 633.788 477.67 634.319 474.184C636.92 456.981 639.167 443.39 640.556 434.978C641.566 428.839 642.172 425.479 642.172 425.479L687.547 436.569L684.289 448.038L673.558 485.88L672.346 490.2L665.225 515.183L653.156 557.724C653.964 621.964 622.527 710.228 622.527 710.228Z" fill="#E4897B"/>
<path d="M730.598 699.669L717.67 699.012C707.822 631.109 703.681 546.205 701.889 487.143C701.611 477.999 701.409 469.435 701.232 461.705C701.232 461.301 701.232 460.922 701.232 460.568C700.904 445.184 700.752 432.957 700.676 425.202C700.651 419.139 700.626 415.805 700.626 415.805L747.264 418.861L745.269 438.313L742.34 466.884L741.759 472.492L739.739 491.943L734.361 544.133C746.279 607.262 730.624 699.669 730.624 699.669H730.598Z" fill="#E4897B"/>
<path d="M735.447 697.143C735.396 695.526 715.499 696.789 715.499 696.789C715.499 696.789 703.253 709.243 691.36 712.047C679.467 714.851 686.107 721.975 699.414 721.975H732.291C741.734 721.975 735.826 713.916 735.447 697.143Z" fill="#FFA93D"/>
<path d="M703.277 701.411C702.899 701.083 702.495 700.477 702.798 699.289C702.949 698.708 703.303 698.254 703.858 697.951C704.919 697.344 706.636 697.294 708.327 697.471C706.711 696.612 705.297 695.551 705.222 694.515C705.171 693.833 705.626 693.277 706.535 692.848C707.393 692.444 708.252 692.418 709.11 692.772C711.812 693.883 713.479 698.532 713.554 698.734C713.605 698.86 713.58 699.012 713.554 699.138C713.554 699.188 713.504 699.214 713.479 699.239C713.479 699.239 713.378 699.34 713.302 699.365C712.267 699.871 707.848 701.891 705.045 701.891C704.313 701.891 703.707 701.765 703.303 701.411H703.277ZM704.388 698.86C704.085 699.037 703.883 699.264 703.808 699.567C703.606 700.35 703.858 700.553 703.934 700.628C704.868 701.411 708.529 700.3 711.459 699.062C709.237 698.557 705.802 698.052 704.388 698.885V698.86ZM706.989 693.783C706.711 693.909 706.257 694.161 706.282 694.439C706.333 695.323 709.186 696.89 712.14 698.001C711.459 696.485 710.196 694.338 708.731 693.732C708.454 693.631 708.201 693.555 707.923 693.555C707.62 693.555 707.317 693.631 707.014 693.783H706.989Z" fill="#FFA93D"/>
<path d="M628.94 697.143C628.89 695.526 608.992 696.789 608.992 696.789C608.992 696.789 596.746 709.243 584.853 712.047C572.96 714.851 579.601 721.975 592.908 721.975H625.784C635.227 721.975 629.319 713.916 628.94 697.143Z" fill="#FFA93D"/>
<path d="M596.77 701.411C596.392 701.083 595.988 700.477 596.291 699.289C596.442 698.708 596.796 698.254 597.351 697.951C598.412 697.344 600.129 697.294 601.821 697.471C600.205 696.612 598.791 695.551 598.715 694.515C598.664 693.833 599.119 693.277 600.028 692.848C600.886 692.444 601.745 692.418 602.603 692.772C605.305 693.883 606.972 698.532 607.047 698.734C607.098 698.86 607.073 699.012 607.047 699.138C607.047 699.188 606.997 699.214 606.972 699.239C606.972 699.239 606.871 699.34 606.795 699.365C605.76 699.871 601.316 701.891 598.538 701.891C597.806 701.891 597.2 701.765 596.77 701.411ZM597.882 698.86C597.579 699.037 597.377 699.264 597.301 699.567C597.099 700.35 597.351 700.553 597.427 700.628C598.361 701.411 602.023 700.3 604.952 699.062C602.73 698.557 599.296 698.052 597.882 698.885V698.86ZM600.482 693.783C600.205 693.909 599.75 694.161 599.775 694.439C599.826 695.323 602.679 696.89 605.633 698.001C604.952 696.485 603.689 694.338 602.225 693.732C601.947 693.631 601.694 693.555 601.417 693.555C601.114 693.555 600.811 693.631 600.508 693.783H600.482Z" fill="#FFA93D"/>
<path d="M634.874 444.451L645.656 368.742V317.461C674.012 296.141 728.68 296.141 728.68 296.141C728.68 296.141 770.697 354.394 750.269 450.337L697.546 458.042L694.188 440.157L687.572 458.042L634.899 444.476L634.874 444.451Z" fill="#054857"/>
<path opacity="0.2" d="M634.874 444.451L645.656 368.742V317.461C674.012 296.141 728.68 296.141 728.68 296.141C728.68 296.141 770.697 354.394 750.269 450.337L697.546 458.042L694.188 440.157L687.572 458.042L634.899 444.476L634.874 444.451Z" fill="white"/>
<path opacity="0.2" d="M694.162 440.156L704.313 408.605C704.313 408.605 714.969 405.371 728.654 384.202C728.654 384.202 726.281 420.25 694.162 440.156Z" fill="black"/>
<path opacity="0.2" d="M671.689 332.012L695.349 329.738C695.349 329.738 701.081 341.055 699.137 357.854L683.961 366.974L672.977 359.168C672.977 359.168 672.649 339.11 671.689 332.012Z" fill="black"/>
<path opacity="0.2" d="M728.654 326.202C728.654 326.202 733.073 336.231 735.649 350.428L744.057 353.99L748.577 348.357C748.577 348.357 745.496 331.836 740.345 323.777L728.679 326.202H728.654Z" fill="black"/>
<path d="M633.889 440.157L689.845 456.577L686.335 464.105L633.157 447.736L633.889 440.157Z" fill="#054857"/>
<path d="M695.349 455.491L696.283 462.387L751.152 455.491L751.985 446.775L695.349 455.491Z" fill="#054857"/>
<path d="M706.864 306.65C723.05 304.073 734.008 303.998 734.008 303.998L730.625 298.415C721.408 298.137 712.52 298.794 704.162 300.006L706.864 306.65Z" fill="#054857"/>
<path d="M656.539 313.597C649.318 316.729 645.126 319.104 645.126 319.104L645.176 326C649.242 323.929 653.358 322.059 657.423 320.367L656.539 313.622V313.597Z" fill="#054857"/>
<path d="M660.024 319.306C675.628 313.092 690.905 309.404 703.48 307.206L700.955 300.486C683.683 303.316 668.962 308.418 658.988 312.561L660.024 319.306Z" fill="#054857"/>
<path d="M508.318 339.086L493.976 333.326L491.552 346.866C491.552 346.866 504.48 354.723 509.858 345.376L508.293 339.086H508.318Z" fill="#E4897B"/>
<path d="M486.855 334.16L482.26 344.618L491.552 346.866L493.976 333.326L486.855 334.16Z" fill="#E4897B"/>
<path d="M728.427 193.553L726.735 178.194L713.655 182.464C713.655 182.464 712.847 197.57 723.629 197.898L728.427 193.553Z" fill="#E4897B"/>
<path d="M722.619 172.309L711.231 173.193L713.655 182.438L726.735 178.195L722.619 172.309Z" fill="#E4897B"/>
<path opacity="0.2" d="M621.163 292.276C617.173 287.956 613.007 283.409 608.992 278.913C607.452 269.515 606.467 261.255 606.467 261.255C606.467 261.255 622.223 271.764 621.163 292.276Z" fill="black"/>
<path d="M607.932 256.91C606.442 263.2 604.675 268.909 602.831 274.846C600.963 280.707 598.816 286.466 596.62 292.226C594.448 297.985 592.024 303.669 589.373 309.277C588.085 312.081 586.721 314.885 585.282 317.664C584.6 319.054 583.818 320.418 583.085 321.807L581.974 323.878L581.394 324.939C581.065 325.52 580.712 326.127 580.358 326.657C577.379 330.977 573.945 333.478 570.738 335.448C567.481 337.393 564.299 338.833 561.168 340.046C554.881 342.42 548.694 343.936 542.533 345.149C530.186 347.422 518.116 348.61 505.693 348.66L504.683 337.646C510.313 336.433 516.121 335.145 521.752 333.68C527.408 332.291 533.014 330.75 538.443 328.956C543.846 327.213 549.149 325.243 553.845 322.919C556.194 321.782 558.365 320.519 560.133 319.205C561.875 317.917 563.188 316.527 563.466 315.82C563.516 315.719 563.516 315.668 563.542 315.618L563.971 314.658L564.855 312.713C565.435 311.399 566.041 310.136 566.597 308.797C567.708 306.17 568.844 303.543 569.905 300.84C572.026 295.51 574.046 290.079 575.99 284.622C577.934 279.166 579.677 273.633 581.419 268.076C583.186 262.594 584.802 256.86 586.292 251.555L607.957 256.935L607.932 256.91Z" fill="#DC897C"/>
<path d="M595.559 237.863C583.186 245.947 576.596 266.964 574.5 277.246L600.154 296.141L613.108 283.51C618.36 254.51 600.256 234.806 595.559 237.863Z" fill="#FFA93D" fill-opacity="0.79"/>
<path d="M720.801 198.48L702.494 200.425C701.459 200.526 700.601 199.667 700.575 198.455L699.464 159.628C699.439 158.44 700.247 157.379 701.257 157.278L719.564 155.333C720.599 155.232 721.458 156.091 721.483 157.304L722.594 196.131C722.619 197.318 721.811 198.379 720.801 198.48Z" fill="#054857"/>
<path opacity="0.6" d="M720.801 198.48L702.494 200.425C701.459 200.526 700.601 199.667 700.575 198.455L699.464 159.628C699.439 158.44 700.247 157.379 701.257 157.278L719.564 155.333C720.599 155.232 721.458 156.091 721.483 157.304L722.594 196.131C722.619 197.318 721.811 198.379 720.801 198.48Z" fill="white"/>
<path d="M719.185 198.657L700.878 200.602C699.843 200.703 698.985 199.844 698.959 198.631L697.848 159.804C697.823 158.617 698.631 157.556 699.641 157.455L717.948 155.51C718.983 155.409 719.841 156.268 719.867 157.48L720.978 196.307C721.003 197.495 720.195 198.556 719.185 198.657Z" fill="#054857"/>
<path opacity="0.7" d="M719.185 198.657L700.878 200.602C699.843 200.703 698.985 199.844 698.959 198.631L697.848 159.804C697.823 158.617 698.631 157.556 699.641 157.455L717.948 155.51C718.983 155.409 719.841 156.268 719.867 157.48L720.978 196.307C721.003 197.495 720.195 198.556 719.185 198.657Z" fill="white"/>
<path d="M717.973 156.268L713.175 156.773L712.569 158.238L705.146 159.021L704.439 157.682L699.641 158.187C698.984 158.263 698.454 158.945 698.479 159.728L699.59 198.555C699.59 199.338 700.171 199.894 700.853 199.818L719.16 197.873C719.816 197.797 720.346 197.115 720.321 196.332L719.21 157.505C719.21 156.722 718.629 156.166 717.947 156.242L717.973 156.268Z" fill="#014B5B"/>
<path opacity="0.8" d="M715.523 170.288L702.065 171.728C701.408 171.804 700.853 171.248 700.828 170.49L700.727 166.752C700.727 165.994 701.232 165.312 701.888 165.261L715.347 163.821C716.003 163.746 716.559 164.301 716.584 165.059L716.685 168.798C716.685 169.556 716.18 170.238 715.523 170.288Z" fill="white"/>
</g>
<defs>
<clipPath id="clip0_46_4951">
<rect width="882" height="722" fill="white"/>
</clipPath>
</defs>
</svg>
