<svg width="36" height="36" viewBox="0 0 36 36" fill="none" xmlns="http://www.w3.org/2000/svg">
<path fill-rule="evenodd" clip-rule="evenodd" d="M26.8221 22.863C28.2374 21.6561 29.3878 20.3847 30.176 19.4279C30.7409 18.742 31.0234 18.399 31.0234 17.8768C31.0234 17.3546 30.7409 17.0117 30.176 16.3258C28.1092 13.8165 23.5506 9.14453 18.2592 9.14453C16.7846 9.14453 15.3669 9.50737 14.0442 10.0851L17.5303 13.5713C17.7674 13.5314 18.0109 13.5107 18.2592 13.5107C20.6706 13.5107 22.6254 15.4655 22.6254 17.8768C22.6254 18.1252 22.6047 18.3687 22.5648 18.6057L26.8221 22.863ZM14.8568 15.1404C14.2539 15.889 13.8931 16.8408 13.8931 17.8768C13.8931 20.2882 15.8479 22.243 18.2592 22.243C19.2953 22.243 20.247 21.8821 20.9957 21.2793L24.3782 24.6618C22.5519 25.794 20.4695 26.6091 18.2592 26.6091C12.9679 26.6091 8.40928 21.9372 6.3425 19.4279C5.77758 18.742 5.49512 18.399 5.49512 17.8768C5.49512 17.3546 5.77758 17.0117 6.34251 16.3258C7.41662 15.0217 9.16374 13.1335 11.337 11.6205L14.8568 15.1404Z" fill="white"/>
<path d="M8.07129 3.32324L31.3574 26.6094" stroke="white" stroke-width="2"/>
</svg>
