<svg width="113" height="113" viewBox="0 0 113 113" fill="none" xmlns="http://www.w3.org/2000/svg">
<path d="M56.5 0.947266C45.4243 0.947266 34.5972 4.23161 25.3881 10.385C16.1789 16.5383 9.00128 25.2843 4.76277 35.517C0.524264 45.7496 -0.584723 57.0094 1.57605 67.8723C3.73682 78.7353 9.0703 88.7135 16.902 96.5452C24.7338 104.377 34.712 109.71 45.575 111.871C56.4379 114.032 67.6976 112.923 77.9303 108.685C88.1629 104.446 96.909 97.2683 103.062 88.0592C109.216 78.85 112.5 68.023 112.5 56.9473C112.484 42.0999 106.579 27.8652 96.0807 17.3666C85.582 6.86796 71.3473 0.962945 56.5 0.947266ZM56.5 91.4088C55.222 91.4088 53.9728 91.0298 52.9102 90.3198C51.8476 89.6098 51.0194 88.6007 50.5303 87.42C50.0413 86.2393 49.9133 84.9401 50.1626 83.6867C50.412 82.4333 51.0274 81.2819 51.931 80.3783C52.8347 79.4746 53.986 78.8592 55.2394 78.6099C56.4928 78.3605 57.792 78.4885 58.9727 78.9776C60.1534 79.4666 61.1626 80.2948 61.8726 81.3574C62.5826 82.42 62.9616 83.6693 62.9616 84.9473C62.9616 86.661 62.2808 88.3045 61.069 89.5162C59.8572 90.728 58.2137 91.4088 56.5 91.4088ZM60.8077 65.1749V65.5626C60.8077 66.7051 60.3539 67.8008 59.546 68.6086C58.7382 69.4165 57.6425 69.8703 56.5 69.8703C55.3575 69.8703 54.2619 69.4165 53.454 68.6086C52.6462 67.8008 52.1923 66.7051 52.1923 65.5626V61.2549C52.1923 60.1125 52.6462 59.0168 53.454 58.2089C54.2619 57.4011 55.3575 56.9473 56.5 56.9473C63.6239 56.9473 69.4231 52.1011 69.4231 46.178C69.4231 40.255 63.6239 35.4088 56.5 35.4088C49.3762 35.4088 43.5769 40.255 43.5769 46.178V48.3319C43.5769 49.4743 43.1231 50.57 42.3152 51.3779C41.5074 52.1857 40.4117 52.6396 39.2692 52.6396C38.1268 52.6396 37.0311 52.1857 36.2233 51.3779C35.4154 50.57 34.9616 49.4743 34.9616 48.3319V46.178C34.9616 35.4896 44.6216 26.7934 56.5 26.7934C68.3785 26.7934 78.0385 35.4896 78.0385 46.178C78.0385 55.5365 70.6292 63.3711 60.8077 65.1749Z" fill="#FFA93D"/>
</svg>
