<svg width="26" height="26" viewBox="0 0 26 26" fill="none" xmlns="http://www.w3.org/2000/svg">
<path d="M2.6 7.80078H0V23.4008C0 24.0903 0.273928 24.7517 0.761522 25.2393C1.24912 25.7269 1.91044 26.0008 2.6 26.0008H18.2V23.4008H2.6V7.80078Z" fill="#014B5B"/>
<path d="M23.4002 0H7.8002C7.11063 0 6.44931 0.273928 5.96172 0.761522C5.47412 1.24912 5.2002 1.91044 5.2002 2.6V18.2C5.2002 18.8896 5.47412 19.5509 5.96172 20.0385C6.44931 20.5261 7.11063 20.8 7.8002 20.8H23.4002C24.0898 20.8 24.7511 20.5261 25.2387 20.0385C25.7263 19.5509 26.0002 18.8896 26.0002 18.2V2.6C26.0002 1.91044 25.7263 1.24912 25.2387 0.761522C24.7511 0.273928 24.0898 0 23.4002 0ZM11.7002 15.6V5.2L20.8002 10.4L11.7002 15.6Z" fill="#014B5B"/>
</svg>
