<svg width="984" height="719" viewBox="0 0 984 719" fill="none" xmlns="http://www.w3.org/2000/svg">
<g clip-path="url(#clip0_46_3231)" filter="url(#filter0_d_46_3231)">
<path d="M32.8525 41.174C195.632 -9.83382 356.455 0.956709 356.455 0.956709C365.918 64.3135 363.09 107.089 363.09 107.089C201.977 117.019 62.3071 151.455 62.3071 151.455C44.8752 114.515 32.8525 41.174 32.8525 41.174Z" fill="#FFE9B1"/>
<path d="M65.1247 145.586C63.1997 145.844 63.6084 148.832 65.5333 148.574C67.4582 148.316 67.0496 145.328 65.1247 145.586Z" fill="#014B5B"/>
<path d="M37.7887 41.3136C35.8638 41.5716 36.2724 44.5594 38.1974 44.3014C40.1223 44.0435 39.7136 41.0557 37.7887 41.3136Z" fill="#014B5B"/>
<path d="M360.004 102.499C358.079 102.757 358.487 105.745 360.412 105.487C362.337 105.229 361.928 102.241 360.004 102.499Z" fill="#014B5B"/>
<path d="M354.96 2.95539C354.852 2.7082 354.702 2.51474 354.486 2.35353C354.379 2.28904 354.261 2.22456 354.153 2.16007C353.906 2.0526 353.637 2.02036 353.368 2.06335L353.11 2.09559C352.906 2.11708 352.723 2.18157 352.551 2.29979C352.379 2.38577 352.228 2.51474 352.11 2.67596C351.981 2.82642 351.906 3.00913 351.863 3.20259C351.798 3.39604 351.777 3.5895 351.809 3.7937C351.841 3.92267 351.884 4.05164 351.916 4.18061C352.024 4.42781 352.174 4.62126 352.389 4.78247L352.723 4.97593C352.97 5.08341 353.239 5.11565 353.508 5.07266L353.766 5.04042C353.97 5.01892 354.153 4.95444 354.325 4.83621C354.497 4.75023 354.648 4.62126 354.766 4.46005C354.895 4.30958 354.97 4.12687 355.013 3.93342C355.078 3.73996 355.099 3.54651 355.067 3.3423C355.035 3.21333 354.992 3.08436 354.96 2.95539Z" fill="#014B5B"/>
<path d="M108.903 45.3759L121.034 41.6787L122.926 47.8908L121.41 48.3529L122.851 73.341L111.517 76.7909L103.075 61.4757L102.698 61.5939L104.053 79.0694L92.719 82.5194L79.5994 61.0888L78.0831 61.5509L76.1904 55.3388L90.2241 51.0721L92.1167 57.2841L90.6757 57.7248L95.0955 66.9354L95.4719 66.8172L94.2352 49.8468L105.15 46.5259L113.323 61.3897L113.7 61.2715L112.237 51.158L110.796 51.5987L108.903 45.3866V45.3759Z" fill="#014B5B" fill-opacity="0.95"/>
<path d="M131.476 71.5352L130.261 65.1511L132.207 64.775L128.863 47.2672L126.916 47.6434L125.701 41.2593L151.983 36.251L154.231 47.998L145.51 49.6639L144.488 44.2901L139.778 45.1929L140.95 51.3405L144.38 50.6849L145.23 55.1237L141.8 55.7793L143.122 62.7007L147.832 61.7979L146.66 55.6503L155.382 53.9844L157.769 66.5161L131.487 71.5244L131.476 71.5352Z" fill="#014B5B" fill-opacity="0.95"/>
<path d="M158.941 65.4526L158.349 58.9826L160.328 58.7998L158.704 41.0449L156.725 41.2276L156.134 34.7576L172.791 33.2422L173.383 39.7122L169.748 40.0454L171.372 57.8003L174.921 57.4779L174.587 53.8452L182.437 53.1251L183.362 63.2278L158.93 65.4526H158.941Z" fill="#014B5B" fill-opacity="0.95"/>
<path d="M188.825 58.3157C185.804 56.1662 183.911 52.3293 183.158 46.8158C181.728 36.2725 186.137 30.2968 196.407 28.9104C198.891 28.5772 201.246 28.5557 203.461 28.8674C205.677 29.1791 207.354 29.6305 208.505 30.2216L209.838 40.0341L200.418 41.3131L200.031 38.4865C199.891 37.4869 199.568 36.7884 199.063 36.3799C198.558 35.9715 197.859 35.8211 196.966 35.95C196.073 36.0683 195.439 36.4014 195.063 36.9281C194.686 37.4547 194.557 38.2178 194.697 39.2173L196.31 51.0718C196.45 52.0714 196.772 52.77 197.278 53.1784C197.783 53.5868 198.482 53.7372 199.375 53.6083C200.267 53.49 200.902 53.1569 201.278 52.6302C201.655 52.1036 201.784 51.3405 201.644 50.341L201.214 47.1597L210.645 45.8808L212.032 56.048C211.053 56.9293 209.559 57.8106 207.537 58.7026C205.515 59.5946 203.268 60.1965 200.805 60.5404C195.858 61.2175 191.869 60.4759 188.847 58.3264L188.825 58.3157Z" fill="#014B5B" fill-opacity="0.95"/>
<path d="M217.505 54.9731C214.537 52.8451 212.644 49.0297 211.827 43.5162C211.01 38.0027 211.72 33.8004 213.956 30.9093C216.193 28.0182 219.699 26.2234 224.484 25.514C229.27 24.8047 233.141 25.514 236.12 27.6421C239.088 29.7701 240.981 33.5855 241.798 39.0989C242.615 44.6124 241.905 48.8147 239.669 51.7058C237.432 54.5969 233.926 56.3917 229.151 57.1011C224.366 57.8104 220.495 57.1011 217.516 54.9731H217.505ZM230.001 49.1264C230.377 48.589 230.485 47.826 230.345 46.8372L228.603 35.0041C228.452 34.0154 228.13 33.3168 227.614 32.9084C227.097 32.5 226.398 32.371 225.506 32.5C224.613 32.6289 223.99 32.9621 223.613 33.4995C223.237 34.0369 223.119 34.7999 223.269 35.7887L225.011 47.6217C225.162 48.6428 225.495 49.3521 226.001 49.739C226.517 50.1259 227.216 50.2656 228.098 50.1259C228.99 49.997 229.614 49.6638 229.99 49.1264H230.001Z" fill="#014B5B" fill-opacity="0.95"/>
<path d="M286.491 27.4593L284.512 27.599L285.77 45.3755L287.749 45.2357L288.211 51.7165L273.264 52.7698L272.801 46.289L274.694 46.16L273.715 32.3279L268.424 53.1137L262.574 53.5221L254.23 33.8971L255.197 47.525L257.09 47.396L257.552 53.8768L244.583 54.7903L244.121 48.3095L246.1 48.1698L244.841 30.3934L242.863 30.5331L242.4 24.0523L260.51 22.7734L265.489 34.8106L268.575 22.2037L286.007 20.9678L286.469 27.4485L286.491 27.4593Z" fill="#014B5B" fill-opacity="0.95"/>
<path d="M290.609 50.9538L290.695 44.4623L292.674 44.4838L292.9 26.6644L290.921 26.6429L291.007 20.1514L317.763 20.4953L317.612 32.4573L308.729 32.3391L308.805 26.8686L304.009 26.8041L303.933 33.0592L307.417 33.1022L307.364 37.6161L303.88 37.5731L303.793 44.6235L308.59 44.688L308.665 38.4329L317.548 38.5512L317.386 51.3085L290.631 50.9646L290.609 50.9538Z" fill="#014B5B" fill-opacity="0.95"/>
<path d="M145.358 108.346L147.272 107.852L142.82 90.5915L140.906 91.0859L139.282 84.7986L156.897 80.2631C160.091 79.4355 162.758 79.4463 164.887 80.2953C167.016 81.1337 168.393 82.778 169.016 85.207C169.403 86.7116 169.371 88.0766 168.93 89.3018C168.479 90.527 167.844 91.5158 167.016 92.2896C166.188 93.0634 165.36 93.6545 164.511 94.0629L164.607 94.4499C166.468 94.1597 168.253 94.3101 169.963 94.912C171.673 95.5031 172.845 97.0615 173.501 99.5657C174.189 102.253 173.683 104.477 171.984 106.24C170.285 108.003 167.823 109.292 164.597 110.131L146.982 114.666L145.358 108.379V108.346ZM157.263 93.5793C158.005 93.3859 158.51 93.0527 158.779 92.5583C159.048 92.0639 159.069 91.3976 158.854 90.5593L158.499 89.1836C158.284 88.3453 157.94 87.7649 157.467 87.464C156.994 87.163 156.381 87.1093 155.649 87.3028L153.574 87.8401L155.198 94.1274L157.273 93.5901L157.263 93.5793ZM160.36 104.477C161.102 104.284 161.607 103.94 161.876 103.456C162.145 102.962 162.166 102.296 161.951 101.457L161.521 99.7699C161.306 98.9208 160.962 98.3512 160.489 98.0503C160.015 97.7494 159.403 97.6956 158.671 97.8891L156.327 98.4909L158.026 105.09L160.37 104.488L160.36 104.477Z" fill="#014B5B" fill-opacity="0.95"/>
<path d="M204.375 97.1365L205.945 96.9001L206.902 103.327L191.535 105.616L190.578 99.1893L192.933 98.8346L191.836 95.7931L186.502 96.5884L186.341 99.8126L188.696 99.458L189.653 105.885L176.243 107.884L175.286 101.457L176.856 101.221L179.9 76.1788L194.17 74.0508L204.386 97.115L204.375 97.1365ZM186.75 92.3109L190.352 91.7735L187.578 84.218L187.191 84.2717L186.75 92.3109Z" fill="#014B5B" fill-opacity="0.95"/>
<path d="M210.848 99.609C207.859 97.4165 206.02 93.5582 205.353 88.0232C204.073 77.4584 208.579 71.558 218.86 70.3112C221.355 70.0103 223.699 70.0318 225.914 70.3757C228.129 70.7196 229.796 71.1925 230.936 71.8051L232.13 81.6391L222.688 82.7784L222.344 79.9518C222.226 78.9523 221.914 78.2537 221.408 77.8345C220.903 77.4154 220.204 77.2649 219.311 77.3724C218.419 77.4798 217.784 77.8023 217.386 78.3182C216.999 78.8448 216.859 79.6079 216.988 80.5966L218.429 92.4727C218.548 93.4722 218.86 94.1815 219.365 94.5899C219.87 95.0091 220.569 95.1596 221.462 95.0521C222.355 94.9446 222.989 94.6222 223.387 94.1063C223.774 93.5797 223.914 92.8166 223.785 91.8278L223.398 88.6466L232.84 87.5073L234.065 97.696C233.076 98.5558 231.571 99.4156 229.527 100.275C227.484 101.135 225.237 101.716 222.774 102.006C217.817 102.608 213.838 101.812 210.848 99.6198V99.609Z" fill="#014B5B" fill-opacity="0.95"/>
<path d="M266.489 89.6244L268.446 89.3235L269.424 95.7505L258.724 97.3734L251.003 86.1207L249.422 87.8833L250.068 92.1179L251.95 91.8384L252.928 98.2654L238.12 100.512L237.142 94.0847L239.099 93.7837L236.432 76.1577L234.475 76.4587L233.496 70.0317L248.304 67.7854L249.283 74.2124L247.401 74.4919L248.186 79.6615L253.477 73.5676L251.003 73.9438L250.025 67.5167L264.607 65.3135L265.585 71.7405L263.628 72.0414L257.907 78.4362L266.499 89.6352L266.489 89.6244Z" fill="#014B5B" fill-opacity="0.95"/>
<path d="M563.454 714.507H662.141L656.076 681.34C635.3 684.801 618.857 676.729 618.857 676.729L563.454 714.507Z" fill="#014B5B"/>
<path d="M591.446 691.54L598.081 697.301" stroke="#FFA93D" stroke-width="1.43" stroke-linecap="round" stroke-linejoin="round"/>
<path d="M596.759 687.337L603.405 693.108" stroke="#FFA93D" stroke-width="1.43" stroke-linecap="round" stroke-linejoin="round"/>
<path d="M602.082 683.135L608.717 688.906" stroke="#FFA93D" stroke-width="1.43" stroke-linecap="round" stroke-linejoin="round"/>
<path d="M572.874 709.316H658.7" stroke="white" stroke-width="1.43" stroke-linecap="round" stroke-linejoin="round"/>
<path d="M686.671 714.507H785.358L779.293 681.34C758.517 684.801 742.074 676.729 742.074 676.729L686.671 714.507Z" fill="#FFA93D"/>
<path d="M714.652 691.54L721.287 697.301" stroke="#FFA93D" stroke-width="1.43" stroke-linecap="round" stroke-linejoin="round"/>
<path d="M726.611 693.108L719.976 687.337" stroke="#FFA93D" stroke-width="1.43" stroke-linecap="round" stroke-linejoin="round"/>
<path d="M725.299 683.135L731.934 688.906" stroke="#FFA93D" stroke-width="1.43" stroke-linecap="round" stroke-linejoin="round"/>
<path d="M696.091 709.316H781.917" stroke="white" stroke-width="1.43" stroke-linecap="round" stroke-linejoin="round"/>
<path d="M588.188 302.693C556.69 461.972 605.404 682.264 605.404 682.264C626.923 686.864 660.077 683.146 660.077 683.146L649.592 404.784C664.604 496.45 728.621 680.985 728.621 680.985C745.935 686.714 785.358 681.856 785.358 681.856L715.587 302.704H588.198L588.188 302.693Z" fill="#FFA93D"/>
<path d="M639.44 323.415C636.364 357.829 643.29 387.245 643.29 387.245" stroke="#FFA93D" stroke-width="1.43" stroke-linecap="round" stroke-linejoin="round"/>
<path d="M631.644 322.651C628.665 350.917 639.247 358.011 639.247 358.011" stroke="#FFA93D" stroke-width="1.43" stroke-linecap="round" stroke-linejoin="round"/>
<path d="M664.938 383.666C674.143 377.088 683.95 371.338 694.188 366.513" stroke="#FFA93D" stroke-width="1.43" stroke-linecap="round" stroke-linejoin="round"/>
<path d="M631.31 392.704C621.901 384.643 610.803 378.56 598.941 374.971" stroke="#FFA93D" stroke-width="1.43" stroke-linecap="round" stroke-linejoin="round"/>
<path d="M628.031 399.324C623.45 397.658 618.74 396.336 613.954 395.38" stroke="#FFA93D" stroke-width="1.43" stroke-linecap="round" stroke-linejoin="round"/>
<path d="M686.907 325.328C687.907 332.787 692.08 339.762 698.177 344.179C704.275 348.597 712.211 350.381 719.62 348.994" stroke="#FFA93D" stroke-width="1.43" stroke-linecap="round" stroke-linejoin="round"/>
<path d="M601.856 320.223C599.726 327.563 594.188 333.84 587.166 336.871" stroke="#FFA93D" stroke-width="1.43" stroke-linecap="round" stroke-linejoin="round"/>
<path d="M709.156 349.746C728.373 503.694 774.012 676.729 774.012 676.729" stroke="#FFA93D" stroke-width="1.43" stroke-linecap="round" stroke-linejoin="round"/>
<path d="M635.182 408.374C637.504 559.527 648.559 676.729 648.559 676.729" stroke="#FFA93D" stroke-width="1.43" stroke-linecap="round" stroke-linejoin="round"/>
<path d="M841.567 391.415L840.417 386.417C853.977 373.445 852.149 363.342 850.611 356.904L811.08 365.266C811.951 367.953 804.445 381.796 805.596 391.802C806.747 401.797 815.403 416.983 820.984 408.912C826.856 411.695 829.448 405.548 829.448 405.548C836.47 408.331 836.76 403.237 836.76 403.237C848.202 405.064 849.934 385.547 841.567 391.415Z" fill="#FEC1B9"/>
<path d="M820.211 408.374C818.802 407.923 817.597 406.848 816.984 405.505" stroke="#014B5B" stroke-width="1.43" stroke-linecap="round" stroke-linejoin="round"/>
<path d="M828.728 404.774C827.211 404.441 825.856 403.441 825.082 402.098" stroke="#014B5B" stroke-width="1.43" stroke-linecap="round" stroke-linejoin="round"/>
<path d="M835.663 402.7C834.717 402.431 833.9 401.722 833.513 400.809" stroke="#014B5B" stroke-width="1.43" stroke-linecap="round" stroke-linejoin="round"/>
<path d="M841.298 391.77C840.954 392.597 840.46 393.371 839.847 394.027" stroke="#014B5B" stroke-width="1.43" stroke-linecap="round" stroke-linejoin="round"/>
<path d="M725.083 176.668L714.404 248.967C768.894 281.403 802.456 359.505 808.188 365.277C813.92 371.048 844.718 367.792 850.601 356.904C856.483 346.028 811.253 203.44 725.083 176.668Z" fill="#014B5B"/>
<path d="M550.947 34.3704C550.947 34.3704 563.787 18.5393 565.68 20.1192C567.562 21.6991 560.346 31.2644 560.346 31.2644C560.346 31.2644 573.078 18.3458 575.025 19.3561C576.96 20.3556 566.669 34.8111 566.669 34.8111C566.669 34.8111 580.939 18.8295 583.359 20.5276C585.779 22.2257 572.272 37.498 572.272 37.498C572.272 37.498 585.768 23.6229 588.306 25.9121C590.833 28.2121 570.616 50.0619 570.616 50.0619C577.219 47.1278 583.058 49.0408 585.434 51.0936C586.252 51.803 585.972 53.1356 584.95 53.4903C581.735 54.6188 574.734 57.2627 573.681 59.1543C572.304 61.6262 566.777 65.1514 562.991 64.4421L526.59 53.888C537.806 30.641 550.958 34.3812 550.958 34.3812L550.947 34.3704Z" fill="#FEC1B9"/>
<path d="M562.088 44.2364C557.883 41.8934 552.367 42.1298 548.366 44.8167" stroke="#014B5B" stroke-width="1.43" stroke-linecap="round" stroke-linejoin="round"/>
<path d="M618.502 165.029C597.135 160.536 550.259 146.038 550.259 146.038C550.259 146.038 568.584 70.0312 565.82 66.0439C563.056 62.0566 530.515 49.4389 524.988 53.523C519.46 57.6071 488.511 135.366 499.555 168.586C510.61 201.807 599.017 229.009 599.017 229.009L618.492 165.029H618.502Z" fill="#014B5B"/>
<path d="M638.526 168.983C632.536 156.011 682.52 126.509 708.726 137.138C728.89 145.306 712.082 163.642 712.082 163.642C723.072 162.459 723.524 170.359 715.082 174.077C706.64 177.796 638.515 168.983 638.515 168.983H638.526Z" fill="#014B5B"/>
<path d="M725.093 328.004C711.361 335.764 598.274 329.81 584.843 325.177C571.411 320.567 574.121 316.536 581.95 309.637C581.95 309.637 578.573 304.725 584.843 299.824C584.843 299.824 589.005 226.042 618.513 165.028C630.471 167.35 643.171 168.156 655.775 168.586H655.785C667.797 168.994 679.723 169.08 690.843 169.822C703.736 170.692 715.523 172.455 725.093 176.657C725.093 176.657 715.017 257.178 725.093 298.9C725.093 298.9 730.212 301.974 725.771 311.184C725.771 311.184 738.815 320.234 725.093 328.004Z" fill="#014B5B"/>
<path d="M690.843 169.821C683.939 180.096 655.011 189.371 655.011 189.371C652.946 176.721 655.764 168.585 655.764 168.585H655.775C667.787 168.993 679.713 169.079 690.832 169.821H690.843Z" fill="#FEC1B9"/>
<path d="M700.177 307.917C693.628 300.361 689.574 290.764 688.724 280.812C688.66 280.049 687.456 280.038 687.52 280.812C688.402 291.108 692.564 300.963 699.328 308.766C699.833 309.346 700.683 308.497 700.177 307.917Z" fill="white"/>
<path d="M605.243 276.2C604.479 286.625 600.339 296.717 593.532 304.66C593.027 305.24 593.876 306.1 594.381 305.509C599.823 299.146 603.651 291.473 605.426 283.283C605.931 280.951 606.264 278.576 606.436 276.2C606.49 275.427 605.286 275.437 605.232 276.2H605.243Z" fill="white"/>
<path d="M717.05 248.966C711.792 246.032 706.533 243.098 701.264 240.153" stroke="#014B5B" stroke-width="1.43" stroke-linecap="round" stroke-linejoin="round"/>
<path d="M600.06 223.742C602.888 207.524 607.759 191.672 614.534 176.668" stroke="#014B5B" stroke-width="1.43" stroke-linecap="round" stroke-linejoin="round"/>
<path d="M670.164 223.656C659.055 235.135 642.86 240.261 627.03 242.454" stroke="#014B5B" stroke-width="1.43" stroke-linecap="round" stroke-linejoin="round"/>
<path d="M700.435 170.177C698.887 175.916 695.145 181.032 690.133 184.256C689.359 184.75 688.531 185.213 687.628 185.374C686.724 185.535 685.703 185.352 685.058 184.697C684.402 184.041 684.262 182.88 684.875 182.203C685.649 181.354 687.208 181.72 687.778 182.719C688.337 183.719 688.036 185.03 687.316 185.922C686.606 186.814 685.552 187.373 684.509 187.835C682.122 188.888 679.595 189.598 677.175 190.543C674.755 191.489 672.368 192.736 670.594 194.66C668.819 196.583 667.755 199.27 668.282 201.828" stroke="white" stroke-width="1.43" stroke-linecap="round" stroke-linejoin="round"/>
<path d="M652.216 166.619C652.452 170.972 651.56 175.368 649.646 179.291C649.323 179.968 648.947 180.634 648.377 181.118C647.807 181.601 646.968 181.838 646.29 181.526C645.602 181.225 645.237 180.269 645.677 179.667C646.086 179.119 646.957 179.108 647.527 179.484C648.097 179.86 648.409 180.526 648.602 181.182C649.237 183.267 648.979 185.513 648.538 187.652C648.097 189.791 647.484 191.908 647.398 194.079C647.323 196.261 647.86 198.572 649.42 200.098" stroke="white" stroke-width="1.43" stroke-linecap="round" stroke-linejoin="round"/>
<path d="M549.711 147.349L547.108 159.612" stroke="#014B5B" stroke-width="1.43" stroke-linecap="round" stroke-linejoin="round"/>
<path d="M697.371 112.43C695.532 103.682 684.176 101.693 684.176 101.693C684.176 101.693 677.735 86.0448 662.228 86.9691C646.721 87.8934 641.258 101.93 641.204 107.83C641.118 116.514 647.194 122.253 647.194 122.253L680.348 138.772C680.498 138.665 699.231 121.179 697.382 112.441L697.371 112.43Z" fill="#014B5B"/>
<path d="M685.111 101.016C685.111 101.016 686.283 98.6949 684.391 95.5996L683.337 102.457L685.251 102.843L692.112 100.844C692.112 100.844 688.66 97.6524 685.101 101.027L685.111 101.016Z" fill="#014B5B"/>
<path d="M659.572 154.012L656.958 173.1C673.057 175.884 686.757 174.444 686.757 174.444L678.401 111.592L648.366 109.464C638.344 131.013 639.408 151.422 659.572 154.012Z" fill="#FEC1B9"/>
<path d="M647.022 110.065C642.311 121.318 671.787 113.032 671.787 113.032C668.819 118.04 673.325 118.652 673.325 118.652L680.079 130.206L682.326 110.054L648.387 104.638L647.022 110.054V110.065Z" fill="#014B5B"/>
<path d="M659.571 154.012C664.174 154.292 668.206 152.701 668.206 152.701C666.109 158.172 658.808 159.558 658.808 159.558L659.571 154.002V154.012Z" fill="#014B5B"/>
<path d="M686.994 132.109C686.789 135.022 684.251 137.225 681.337 137.01C678.423 136.795 676.218 134.269 676.433 131.357C676.638 128.444 679.176 126.241 682.09 126.456C685.004 126.66 687.209 129.197 686.994 132.109Z" fill="#FEC1B9"/>
<path d="M654.528 128.659C654.184 128.498 653.754 128.627 653.506 128.917C653.259 129.207 653.195 129.616 653.27 129.992C653.345 130.357 653.56 130.69 653.818 130.97" stroke="#014B5B" stroke-width="1.43" stroke-linecap="round" stroke-linejoin="round"/>
<path d="M651.528 134.162L659.916 131.743C660.464 131.582 661.034 131.991 661.013 132.56C660.862 137.977 652.894 140.288 650.958 135.301C650.775 134.839 651.044 134.301 651.528 134.172V134.162Z" fill="white"/>
<path d="M661.185 124.941C661.776 124.092 662.841 123.608 663.873 123.705C664.905 123.801 665.852 124.478 666.282 125.424" stroke="#014B5B" stroke-width="1.43" stroke-linecap="round" stroke-linejoin="round"/>
<path d="M645.85 123.941C646.441 123.092 647.506 122.608 648.538 122.705C649.57 122.801 650.517 123.478 650.947 124.424" stroke="#014B5B" stroke-width="1.43" stroke-linecap="round" stroke-linejoin="round"/>
<path d="M654.818 111.302C654.356 115.805 652.162 119.276 649.925 119.051C647.688 118.825 646.258 114.977 646.721 110.474C647.183 105.971 649.377 102.5 651.614 102.725C653.85 102.951 655.281 106.799 654.818 111.302Z" stroke="white" stroke-width="1.43" stroke-miterlimit="10"/>
<path d="M668.196 112.689C667.734 117.202 665.54 120.663 663.303 120.437C661.066 120.212 659.636 116.364 660.099 111.861C660.561 107.358 662.755 103.886 664.991 104.112C667.228 104.338 668.659 108.185 668.196 112.689Z" stroke="white" stroke-width="1.43" stroke-miterlimit="10"/>
<path d="M668.196 112.688L693.532 124.425" stroke="white" stroke-width="1.43" stroke-miterlimit="10"/>
<path d="M654.808 110.636L660.12 110.99" stroke="white" stroke-width="1.43" stroke-miterlimit="10"/>
<path d="M350.67 714.508L251.682 679.546L269.522 648.432C289.137 659.265 308.494 656.987 308.494 656.987L350.67 714.508Z" fill="#014B5B"/>
<path d="M330.743 681.545L322.043 684.984" stroke="#014B5B" stroke-width="1.43" stroke-linecap="round" stroke-linejoin="round"/>
<path d="M326.904 675.451L318.193 678.89" stroke="#014B5B" stroke-width="1.43" stroke-linecap="round" stroke-linejoin="round"/>
<path d="M323.054 669.357L314.344 672.786" stroke="#014B5B" stroke-width="1.43" stroke-linecap="round" stroke-linejoin="round"/>
<path d="M343.056 705.963L256.973 675.559" stroke="white" stroke-width="1.43" stroke-linecap="round" stroke-linejoin="round"/>
<path d="M350.67 714.507H245.681L252.122 679.223C274.221 682.91 291.717 674.312 291.717 674.312L350.659 714.507H350.67Z" fill="#014B5B"/>
<path d="M349.454 713.679L295.61 676.966" stroke="#014B5B" stroke-width="1.43" stroke-linecap="round" stroke-linejoin="round"/>
<path d="M320.892 690.067L313.838 696.204" stroke="#014B5B" stroke-width="1.43" stroke-linecap="round" stroke-linejoin="round"/>
<path d="M315.236 685.597L308.171 691.734" stroke="#014B5B" stroke-width="1.43" stroke-linecap="round" stroke-linejoin="round"/>
<path d="M309.58 681.137L302.515 687.274" stroke="#014B5B" stroke-width="1.43" stroke-linecap="round" stroke-linejoin="round"/>
<path d="M340.647 708.983H249.348" stroke="white" stroke-width="1.43" stroke-linecap="round" stroke-linejoin="round"/>
<path d="M214.785 317.815H292.857L296.793 675.698C270.705 683.06 248.444 679.685 248.444 679.685C248.444 679.685 188.17 430.31 214.774 317.815H214.785Z" fill="#FF9827"/>
<path d="M338.808 317.815C338.808 317.815 381.371 438.08 374.005 481.447C366.639 524.813 311.709 662.865 311.709 662.865C291.739 664.703 262.671 647.733 262.671 647.733L304.418 487.175L251.208 317.815H338.797H338.808Z" fill="#FF9827"/>
<path d="M293.643 389.405L294.374 455.18" stroke="#014B5B" stroke-width="1.43" stroke-linecap="round" stroke-linejoin="round"/>
<path d="M281.264 375.54C269.306 367.866 254.66 364.492 240.551 366.158" stroke="#014B5B" stroke-width="1.43" stroke-linecap="round" stroke-linejoin="round"/>
<path d="M262.445 375.863C254.488 374.992 246.358 375.745 238.69 378.066" stroke="#014B5B" stroke-width="1.43" stroke-linecap="round" stroke-linejoin="round"/>
<path d="M297.857 378.936C309.966 372.079 324.064 368.769 337.969 369.543" stroke="#014B5B" stroke-width="1.43" stroke-linecap="round" stroke-linejoin="round"/>
<path d="M308.311 388.48C317.795 388.459 327.28 388.448 336.754 388.427" stroke="#014B5B" stroke-width="1.43" stroke-linecap="round" stroke-linejoin="round"/>
<path d="M302.17 421.723L346.174 484.306" stroke="#014B5B" stroke-width="1.43" stroke-linecap="round" stroke-linejoin="round"/>
<path d="M292.448 329.369L293.061 362.611" stroke="#014B5B" stroke-width="1.43" stroke-linecap="round" stroke-linejoin="round"/>
<path d="M297.858 329.369C297.858 329.369 304.321 355.238 292.965 356.98" stroke="#014B5B" stroke-width="1.43" stroke-linecap="round" stroke-linejoin="round"/>
<path d="M243.132 331.927C240.067 353.4 215.807 347.371 215.807 347.371" stroke="#014B5B" stroke-width="1.43" stroke-linecap="round" stroke-linejoin="round"/>
<path d="M256.972 675.559C230.335 511.712 222.355 348.146 222.355 348.146" stroke="#014B5B" stroke-width="1.43" stroke-linecap="round" stroke-linejoin="round"/>
<path d="M294.008 527.21L296.32 656.761" stroke="#014B5B" stroke-width="1.43" stroke-linecap="round" stroke-linejoin="round"/>
<path d="M502.491 280.296C502.491 280.296 477.392 305.069 448.722 324.963C425.881 340.815 400.771 353.551 384.296 348.156C366.09 342.191 353.573 327.918 345.153 313.162C341.819 307.326 339.131 301.415 336.969 295.901C331.259 281.338 329.323 269.602 329.323 269.602L329.463 268.753L330.409 263.293L342.69 192.478C355.057 197.765 365.327 208.491 373.618 220.905C377.005 225.967 380.07 231.308 382.812 236.671C384.06 239.122 385.254 241.583 386.372 244.023C396.717 266.496 401.502 287.282 401.502 287.282L429.172 272.912L482.037 245.452L502.502 280.285L502.491 280.296Z" fill="#FEC1B9"/>
<path d="M448.722 324.963C425.881 340.816 400.771 353.551 384.296 348.156C366.09 342.191 353.573 327.919 345.153 313.162C341.819 307.326 339.131 301.415 336.969 295.902C331.259 281.339 329.323 269.602 329.323 269.602L329.463 268.753L330.409 263.294L373.607 220.916C376.995 225.978 380.059 231.32 382.802 236.683C384.049 239.133 385.243 241.594 386.361 244.034C396.706 266.507 401.492 287.293 401.492 287.293L429.161 272.923C446.614 299.266 448.722 324.963 448.722 324.963Z" fill="#014B5B" fill-opacity="0.95"/>
<path d="M344.002 311.098C352.068 265.818 378.941 247.902 378.941 247.902L331.958 283.154C331.958 283.154 338.55 302.113 344.002 311.098Z" fill="#014B5B"/>
<path d="M520.729 230.287L522.17 253.416L513.019 258.456C517.267 266.506 510.46 282.08 502.48 280.295L480.854 246.065L520.729 230.276V230.287Z" fill="#FEC1B9"/>
<path d="M486.446 243.851C489.188 232.813 505.975 229.804 509.943 223.076C510.61 221.936 512.341 222.055 512.782 223.301C514.686 228.632 509.545 238.391 509.545 238.391C513.148 249.708 503.749 255.447 503.749 255.447L486.446 243.872V243.851Z" fill="#FEC1B9"/>
<path d="M487.393 199.883L539.021 198.163L517.385 222.356L518.116 263.207L531.139 268.248L501.523 269.355L513.073 263.702L513.212 222.732L487.393 199.883Z" fill="white"/>
<path d="M498.748 204.708L514.072 221.335H516.115L529.224 204.708C517.632 210.275 507.555 200.248 498.737 204.708H498.748Z" fill="#FFA93D"/>
<path d="M524.794 231.566C528.655 236.94 510.599 244.42 509.287 240.024C507.975 235.629 521.407 226.848 524.794 231.566Z" fill="#FEC1B9"/>
<path d="M525.719 237.552C529.579 242.926 511.524 250.406 510.212 246.011C508.9 241.615 522.331 232.834 525.719 237.552Z" fill="#FEC1B9"/>
<path d="M526.009 243.893C529.547 248.826 512.997 255.683 511.793 251.653C510.588 247.623 522.901 239.573 526.009 243.893Z" fill="#FEC1B9"/>
<path d="M525.858 248.58C529.192 253.212 513.631 259.66 512.491 255.867C511.362 252.083 522.933 244.506 525.858 248.58Z" fill="#FEC1B9"/>
<path d="M524.794 231.566C528.655 236.94 510.599 244.42 509.287 240.024C507.975 235.629 521.407 226.848 524.794 231.566Z" stroke="#014B5B" stroke-width="1.43" stroke-linecap="round" stroke-linejoin="round"/>
<path d="M512.352 241.346C510.76 242.969 509.814 244.689 510.212 246.021C510.545 247.139 511.975 247.494 513.847 247.311C517.04 246.967 521.536 245.076 524.149 242.743C526.009 241.088 526.912 239.229 525.708 237.552C525.213 236.875 524.525 236.467 523.697 236.306" stroke="#014B5B" stroke-width="1.43" stroke-linecap="round" stroke-linejoin="round"/>
<path d="M513.836 247.3C512.309 248.805 511.416 250.417 511.782 251.653C511.975 252.319 512.599 252.685 513.47 252.814C516.492 253.254 522.6 250.858 525.235 247.977C526.472 246.645 526.945 245.194 525.998 243.882C525.547 243.259 524.912 242.894 524.138 242.732" stroke="#014B5B" stroke-width="1.43" stroke-linecap="round" stroke-linejoin="round"/>
<path d="M513.481 252.814C512.643 253.91 512.223 254.996 512.492 255.866C513.632 259.649 529.182 253.212 525.859 248.579C525.687 248.343 525.483 248.128 525.246 247.988" stroke="#014B5B" stroke-width="1.43" stroke-linecap="round" stroke-linejoin="round"/>
<path d="M512.062 232.759C511.578 234.769 510.599 236.66 509.233 238.208C510.373 243.979 509.405 250.138 506.566 255.296" stroke="#014B5B" stroke-width="1.43" stroke-linecap="round" stroke-linejoin="round"/>
<path d="M386.372 244.033C365.026 252.965 346.637 279.597 336.969 295.912C331.259 281.349 329.323 269.613 329.323 269.613C331.044 238.198 333.162 207.632 342.69 192.488C362.423 200.914 376.79 223.194 386.372 244.033Z" fill="#24707B"/>
<path d="M240.368 177.903L233.41 233.264L231.776 246.225C231.776 246.225 229.496 248.773 225.539 252.706C223.582 254.652 221.216 256.952 218.517 259.434C215.785 261.96 212.72 264.69 209.387 267.473C192.31 281.789 168.34 297.771 148.069 295.933C129.529 294.235 116.765 266.947 108.731 240.852C101.182 216.261 97.8271 192.746 97.8271 192.746L136.003 179.752L151.306 215.638L160.349 236.821C160.349 236.821 168.684 227.46 180.825 216.175C183.782 213.424 186.954 210.565 190.299 207.696C192.546 205.761 194.869 203.826 197.246 201.913C211.139 190.736 226.851 180.558 240.368 177.903Z" fill="#FEC1B9"/>
<path d="M225.528 252.706C223.571 254.651 221.205 256.951 218.506 259.434C215.774 261.96 212.71 264.689 209.376 267.473C192.299 281.789 168.329 297.77 148.058 295.933C129.518 294.235 116.754 266.946 108.721 240.851C108.721 240.851 126.948 220.721 151.295 215.638L160.339 236.821C160.339 236.821 168.673 227.46 180.814 216.175C183.771 213.424 186.944 210.565 190.288 207.695C192.535 205.761 194.858 203.826 197.235 201.913L225.528 252.706Z" fill="#014B5B" fill-opacity="0.95"/>
<path d="M180.813 216.175C201.031 228.9 211.795 265.42 211.795 265.42L219.742 258.284L196.944 213.456L180.824 216.175H180.813Z" fill="#014B5B"/>
<path d="M160.21 237.595L166.447 251.803" stroke="#014B5B" stroke-width="1.43" stroke-linecap="round" stroke-linejoin="round"/>
<path d="M180.813 216.175C201.45 224.086 215.462 252.728 218.505 259.434C226.657 251.911 231.765 246.225 231.765 246.225L240.357 177.903C221.097 181.686 197.396 200.731 180.803 216.175H180.813Z" fill="#24707B"/>
<path d="M107.161 160.879C107.161 160.879 108.699 139.244 111.301 139.481C113.914 139.706 113.452 152.442 113.452 152.442C113.452 152.442 116.678 133.419 118.979 133.118C121.281 132.807 121.13 151.679 121.13 151.679C121.13 151.679 123.819 129.056 126.959 129.056C130.099 129.056 127.647 150.604 127.647 150.604C127.647 150.604 130.948 130.281 134.551 130.743C138.153 131.205 133.863 162.577 133.863 162.577C137.82 156 144.089 154.108 147.412 154.441C148.552 154.56 149.122 155.892 148.455 156.827C146.337 159.772 141.842 166.339 142.078 168.639C142.39 171.627 139.723 178.075 135.992 179.763L97.8268 192.746C93.4285 165.64 107.161 160.89 107.161 160.89V160.879Z" fill="#FEC1B9"/>
<path d="M122.893 162.685C117.796 163.211 113.129 166.769 111.279 171.551" stroke="#014B5B" stroke-width="1.43" stroke-linecap="round" stroke-linejoin="round"/>
<path d="M343.163 320.427L210.698 318.428L207.999 332.851C278.544 361.224 349.766 340.675 349.766 340.675L343.163 320.427Z" fill="white"/>
<path d="M347.604 321.802C284.673 347.876 207.999 319.653 207.999 319.653C210.074 287.754 240.368 177.903 240.368 177.903C246.282 176.904 252.057 176.259 257.649 175.904C259.811 175.775 261.961 175.678 264.069 175.625C279.329 175.238 293.083 176.957 304.675 179.419C307.762 180.063 310.708 180.773 313.472 181.525C331.721 186.394 342.69 192.477 342.69 192.477C325.516 270.257 347.604 321.802 347.604 321.802Z" fill="#24707B"/>
<path d="M264.069 175.635C279.329 175.249 293.083 176.968 304.676 179.429C310.687 207.255 271.242 220.313 264.069 175.635Z" fill="#FEC1B9"/>
<path d="M299.309 163.19L300.643 183.643C283.35 185.384 268.919 182.826 268.919 182.826L282.533 116.761H314.558C323.559 140.384 320.903 161.965 299.309 163.19Z" fill="#FEC1B9"/>
<path d="M276.049 148.208C266.575 138.191 271.865 123.424 271.865 123.424L290.448 121.156C289.297 127.594 284.082 129.518 284.082 129.518C283.695 134.505 277.941 136.6 277.941 136.6L276.049 148.208Z" fill="#014B5B"/>
<path d="M299.309 163.19C293.653 163.266 291.276 161.191 291.276 161.191C294.191 167.178 299.74 169.671 299.74 169.671L299.32 163.19H299.309Z" fill="#014B5B"/>
<path d="M271.865 137.88C271.865 140.986 274.392 143.511 277.5 143.511C280.608 143.511 283.135 140.986 283.135 137.88C283.135 134.774 280.608 132.248 277.5 132.248C274.392 132.248 271.865 134.774 271.865 137.88Z" fill="#FEC1B9"/>
<path d="M300.621 132.549C300.115 131.151 298.717 130.12 297.223 130.044C295.739 129.969 294.244 130.872 293.609 132.215" stroke="#014B5B" stroke-width="1.43" stroke-linecap="round" stroke-linejoin="round"/>
<path d="M316.924 132.549C316.418 131.151 315.02 130.12 313.525 130.044C312.031 129.969 310.547 130.872 309.912 132.215" stroke="#014B5B" stroke-width="1.43" stroke-linecap="round" stroke-linejoin="round"/>
<path d="M306.567 136.654C306.944 136.514 307.395 136.675 307.632 137.009C307.869 137.331 307.912 137.772 307.804 138.159C307.697 138.545 307.438 138.879 307.148 139.158" stroke="#014B5B" stroke-width="1.43" stroke-linecap="round" stroke-linejoin="round"/>
<path d="M309.342 142.716L300.632 139.513C300.062 139.309 299.427 139.696 299.406 140.298C299.158 146.058 307.439 149.111 309.869 143.963C310.095 143.479 309.848 142.899 309.353 142.716H309.342Z" fill="white"/>
<path d="M322.257 219.755C305.718 248.741 277.618 270.924 245.572 280.296" stroke="#014B5B" stroke-width="1.43" stroke-linecap="round" stroke-linejoin="round"/>
<path d="M309.235 274.557C296.083 282.467 280.307 285.928 265.048 284.251" stroke="#014B5B" stroke-width="1.43" stroke-linecap="round" stroke-linejoin="round"/>
<path d="M233.41 202.913C224.968 231.448 221.71 256.436 221.71 256.436" stroke="#014B5B" stroke-width="1.43" stroke-linecap="round" stroke-linejoin="round"/>
<path d="M338.679 286.11C331.399 251.202 340.346 204.3 340.346 204.3" stroke="#014B5B" stroke-width="1.43" stroke-linecap="round" stroke-linejoin="round"/>
<path d="M271.865 123.424L322.752 119.157C322.752 119.157 322.161 95.3731 308.933 93.9974C292.663 92.31 275.919 98.5329 271.854 123.413L271.865 123.424Z" fill="#014B5B"/>
<path d="M302.545 95.5986C294.039 100.972 296.351 118.835 296.351 118.835" stroke="#014B5B" stroke-width="1.43" stroke-linecap="round" stroke-linejoin="round"/>
<path d="M316.977 106.218C316.289 106.024 315.751 106.454 315.493 107.056C315.246 107.647 314.998 108.238 314.751 108.829C313.052 106.562 311.224 104.38 309.256 102.327C308.804 101.854 308.008 101.876 307.557 102.327C307.084 102.8 307.105 103.552 307.557 104.025C309.901 106.476 312.052 109.077 313.988 111.849C314.267 112.247 314.676 112.494 315.181 112.419C315.697 112.344 315.988 112.021 316.181 111.559C316.719 110.27 317.267 108.98 317.805 107.69C318.052 107.088 317.536 106.368 316.966 106.207L316.977 106.218Z" fill="white"/>
<path d="M302.546 120.834C302.546 120.834 348.841 109.57 351.142 117.351C353.443 125.133 302.546 120.834 302.546 120.834Z" fill="#FFA93D"/>
<path d="M198.17 714.529H958.396" stroke="#014B5B" stroke-width="1.43" stroke-linecap="round" stroke-linejoin="round"/>
<path d="M618.986 234.995C614.104 223.796 592.596 220.507 592.596 220.507C590.177 224.827 600.5 231.878 600.5 231.878C600.5 231.878 565.486 233.114 565.852 235.596C566.217 238.079 582.498 238.821 582.498 238.821C582.498 238.821 562.281 241.196 562.582 244.151C562.873 247.107 581.444 244.13 581.444 244.13C581.444 244.13 562.808 251.299 563.335 253.244C563.851 255.189 580.358 250.084 580.358 250.084C580.358 250.084 568.153 257.908 568.54 259.692C568.916 261.476 582.262 254.931 584.585 254.706C586.907 254.48 609.576 269.053 609.576 269.053L618.986 234.984V234.995Z" fill="#FEC1B9"/>
<path d="M608.458 238.917C603.028 239.121 597.683 241.292 593.661 244.946" stroke="#014B5B" stroke-width="1.43" stroke-linecap="round" stroke-linejoin="round"/>
<path d="M760.268 188.501C726.082 195.412 691.391 259.037 691.391 259.037L617.179 232.093L604.307 265.668C604.307 265.668 670.636 309.325 695.036 309.851C727.975 310.561 737.202 287.884 737.202 287.884L760.268 188.501Z" fill="#FEC1B9"/>
<path d="M699.456 245.656C718.533 258.553 726.728 281.962 726.728 281.962L727.954 259.08L701.768 241.647L699.456 245.646V245.656Z" fill="#014B5B"/>
<path d="M760.269 188.501C725.341 196.734 698.166 244.947 698.166 244.947C716.705 253.362 738.966 283.595 738.966 283.595L760.269 188.501Z" fill="#FF9827"/>
<path d="M892.529 714.508H872.279L868.29 707.533L862.365 714.508H794.003L830.63 689.531L849.32 676.784C849.32 676.784 862.225 684.415 882.969 680.954L884.334 685.758L892.529 714.508Z" fill="#FEC1B9"/>
<path d="M892.529 714.507H872.279L868.29 707.532L862.365 714.507H794.003L830.63 689.53C850.761 700.396 875.753 689.982 884.334 685.758L892.529 714.507Z" fill="#014B5B" fill-opacity="0.95"/>
<path d="M791.326 714.508H771.076L767.087 707.533L761.161 714.508H692.8L729.427 689.531L748.117 676.784C748.117 676.784 761.022 684.415 781.766 680.954L783.131 685.758L791.326 714.508Z" fill="#FEC1B9"/>
<path d="M791.326 714.507H771.076L767.087 707.532L761.161 714.507H692.8L729.427 689.53C749.558 700.396 774.55 689.982 783.131 685.758L791.326 714.507Z" fill="#014B5B" fill-opacity="0.95"/>
<path d="M829.91 298.244L719.039 295.633C665.173 387.954 736.492 683.802 736.492 683.802C751.343 694.098 784.916 685.661 784.916 685.661L785.142 462.402L836.728 682.34C864.268 691.121 885.539 683.125 885.539 683.125C885.539 683.125 910.52 432.857 829.899 298.244H829.91Z" fill="#FFCC4D"/>
<path d="M784.045 457.899V457.609L773.797 401.722" stroke="#014B5B" stroke-width="1.43" stroke-linecap="round" stroke-linejoin="round"/>
<path d="M760.269 313.646C760.623 343.491 764.43 370.414 764.43 370.414" stroke="#014B5B" stroke-width="1.43" stroke-linecap="round" stroke-linejoin="round"/>
<path d="M752.278 311.442C752.278 332.217 751.429 359.054 763.204 360.268" stroke="#014B5B" stroke-width="1.43" stroke-linecap="round" stroke-linejoin="round"/>
<path d="M766.678 425.807L743.052 470.484" stroke="#014B5B" stroke-width="1.43" stroke-linecap="round" stroke-linejoin="round"/>
<path d="M767.452 435.565L750.085 502.286" stroke="#014B5B" stroke-width="1.43" stroke-linecap="round" stroke-linejoin="round"/>
<path d="M808.821 314.807C816.252 346.415 840.846 338.999 840.846 338.999" stroke="#014B5B" stroke-width="1.43" stroke-linecap="round" stroke-linejoin="round"/>
<path d="M730.836 314.807C725.093 343.675 708.511 341.138 708.511 341.138" stroke="#014B5B" stroke-width="1.43" stroke-linecap="round" stroke-linejoin="round"/>
<path d="M830.447 341.202C898.529 506.188 878.914 678.826 878.914 678.826" stroke="#014B5B" stroke-width="1.43" stroke-linecap="round" stroke-linejoin="round"/>
<path d="M762.796 453.471L773.797 684.016" stroke="#014B5B" stroke-width="1.43" stroke-linecap="round" stroke-linejoin="round"/>
<path d="M714.791 303.919C744.622 320.073 821.361 311.582 834.523 306.273L828.361 295.644L719.383 295.096C716.834 298.277 714.802 303.919 714.802 303.919H714.791Z" fill="#014B5B" fill-opacity="0.95"/>
<path d="M795.542 313.399C793.638 308.649 791.724 303.887 789.821 299.137C789.38 298.03 788.272 297.127 787.003 297.536C785.928 297.88 784.928 299.158 785.401 300.351C787.304 305.102 789.218 309.863 791.122 314.613C791.563 315.72 792.67 316.623 793.939 316.215C795.015 315.871 796.015 314.592 795.542 313.399Z" fill="#FFCC4D"/>
<path d="M741.299 296.74C740.224 296.17 738.783 296.439 738.159 297.567L731.126 310.217C730.545 311.27 730.836 312.764 731.954 313.355C733.029 313.925 734.47 313.656 735.094 312.528L742.127 299.878C742.708 298.825 742.417 297.331 741.31 296.74H741.299Z" fill="#FFCC4D"/>
<path d="M878.367 152.121C873.635 151.057 868.731 152.121 863.914 152.68C860.225 153.11 855.924 153.002 853.515 150.176C851.052 147.274 851.773 142.781 853.644 139.471C855.515 136.161 858.343 133.452 860.107 130.088C862.967 124.629 862.623 117.632 859.236 112.484C855.848 107.336 849.557 104.241 843.406 104.703C836.642 105.208 830.867 109.528 825.351 113.483C819.834 117.428 813.586 121.329 806.822 120.781L805.252 145.103C803.284 147.08 804.284 150.616 806.338 152.497C808.403 154.367 811.188 155.195 813.608 156.581C816.027 157.968 818.286 160.407 817.92 163.169C817.544 166.007 814.683 167.737 812.113 168.994C807.983 171.015 803.65 173.036 800.725 176.582C797.8 180.129 796.778 185.728 799.735 189.243C802.359 192.36 806.94 192.757 811.016 192.929C826.985 193.585 842.955 194.24 858.924 194.896C858.967 186.588 863.86 178.485 871.194 174.583C874.334 172.907 877.84 171.972 880.958 170.23C884.077 168.5 886.905 165.641 887.206 162.084C887.615 157.258 883.077 153.206 878.345 152.142L878.367 152.121Z" fill="#014B5B"/>
<path d="M777.583 109.529C759.108 95.7719 746.429 126.359 767.356 142.148L804.833 152.11C848.751 144.652 802.198 98.4158 777.583 109.529Z" fill="#014B5B"/>
<path d="M784.39 163.588L782.776 187.061C798.982 188.694 814.038 187.663 814.038 187.663L800.112 120.071H770.087C761.645 142.211 764.14 162.438 784.379 163.588H784.39Z" fill="#FEC1B9"/>
<path d="M770.098 120.072C773.292 140.255 806.155 137.472 806.155 137.472L802.348 117.578L770.861 120.072" fill="#014B5B"/>
<path d="M784.39 163.589C789.692 163.664 791.928 161.719 791.928 161.719C789.197 167.329 784.003 169.661 784.003 169.661L784.401 163.589H784.39Z" fill="#014B5B"/>
<path d="M804.833 145.146C807.749 145.146 810.113 142.783 810.113 139.869C810.113 136.954 807.749 134.592 804.833 134.592C801.917 134.592 799.553 136.954 799.553 139.869C799.553 142.783 801.917 145.146 804.833 145.146Z" fill="#FEC1B9"/>
<path d="M783.164 134.871C783.637 133.56 784.949 132.592 786.347 132.528C787.745 132.463 789.132 133.302 789.735 134.559" stroke="#014B5B" stroke-width="1.43" stroke-linecap="round" stroke-linejoin="round"/>
<path d="M767.872 134.871C768.345 133.56 769.657 132.592 771.055 132.528C772.453 132.463 773.84 133.302 774.443 134.559" stroke="#014B5B" stroke-width="1.43" stroke-linecap="round" stroke-linejoin="round"/>
<path d="M777.583 138.729C777.228 138.59 776.809 138.751 776.583 139.063C776.357 139.364 776.325 139.783 776.422 140.148C776.529 140.514 776.755 140.825 777.034 141.083" stroke="#014B5B" stroke-width="1.43" stroke-linecap="round" stroke-linejoin="round"/>
<path d="M775.11 143.609L783.691 142.158C784.25 142.061 784.767 142.534 784.691 143.093C783.928 148.435 775.766 149.832 774.421 144.673C774.292 144.189 774.626 143.695 775.11 143.62V143.609Z" fill="white"/>
<path d="M789.207 133.7C789.207 137.773 786.83 141.073 783.894 141.073C780.959 141.073 778.582 137.773 778.582 133.7C778.582 129.627 780.959 126.327 783.894 126.327C786.83 126.327 789.207 129.627 789.207 133.7Z" stroke="white" stroke-width="1.43" stroke-linecap="round" stroke-linejoin="round"/>
<path d="M776.174 133.7C776.174 137.773 773.797 141.073 770.861 141.073C767.925 141.073 765.549 137.773 765.549 133.7C765.549 129.627 767.925 126.327 770.861 126.327C773.797 126.327 776.174 129.627 776.174 133.7Z" stroke="white" stroke-width="1.43" stroke-linecap="round" stroke-linejoin="round"/>
<path d="M844.998 185.482V258.221L829.91 298.245C781.314 302.092 736.299 304.478 719.039 295.633C724.61 266.497 728.9 256.512 728.9 256.512C717.953 247.054 733.385 224.635 742.966 220.873L760.258 188.502C765.818 186.814 771.431 185.546 776.97 184.59C794.003 181.634 810.403 181.731 822.834 182.633C836.212 183.601 844.998 185.471 844.998 185.471V185.482Z" fill="#FF9827"/>
<path d="M760.269 316.558C766.505 316.558 771.56 312.281 771.56 307.004C771.56 301.727 766.505 297.449 760.269 297.449C754.033 297.449 748.978 301.727 748.978 307.004C748.978 312.281 754.033 316.558 760.269 316.558Z" fill="white"/>
<path d="M822.835 182.644C794.746 216.177 780.164 195.874 776.97 184.6C794.004 181.645 810.403 181.741 822.835 182.644Z" fill="#FEC1B9"/>
<path d="M726.233 264.54C727.9 258.844 728.9 256.523 728.9 256.523C717.953 247.076 733.384 224.656 742.966 220.884L753.58 201.022" stroke="#014B5B" stroke-width="1.43" stroke-linecap="round" stroke-linejoin="round"/>
<path d="M841.502 259.51C841.502 259.51 841.438 259.532 841.416 259.543L819.403 242.766" stroke="#014B5B" stroke-width="1.43" stroke-linecap="round" stroke-linejoin="round"/>
<path d="M820.511 253.406C813.489 257.587 805.284 259.737 797.122 259.543" stroke="#014B5B" stroke-width="1.43" stroke-linecap="round" stroke-linejoin="round"/>
<path d="M942.545 283.596C939.33 321.191 836.728 339.676 836.728 339.676C814.855 341.88 808.983 315.527 808.983 315.527L878.614 281.973L875.829 280.135H875.818L865.096 273.095L842.6 258.328L844.998 185.481C878.786 193.918 913.703 219.884 931.2 247.151C934.189 251.805 936.673 256.49 938.555 261.133C941.685 268.861 943.158 276.47 942.545 283.585V283.596Z" fill="#FEC1B9"/>
<path d="M938.556 261.144C938.556 261.144 895.207 260.778 875.84 280.135H875.829L865.107 273.095L867.796 255.695L931.211 247.161C934.2 251.815 936.684 256.501 938.566 261.144H938.556Z" fill="#014B5B"/>
<path d="M875.839 280.135C891.798 254.717 934.103 251.117 934.103 251.117C906.724 207.417 871.205 191.747 844.998 185.492L840.847 259.554L875.839 280.146V280.135Z" fill="#FF9827"/>
<path d="M191.523 634.137C186.017 636.168 180.382 637.791 174.65 638.973C181.35 644.949 189.62 650.548 198.911 655.428C203.266 652.44 207.245 648.958 211.633 646.024C215.203 643.638 220.139 644.175 222.741 647.743C225.193 651.097 224.612 656.46 221.021 658.846C219.117 660.125 217.289 661.5 215.472 662.897C240.754 672.602 270.327 676.622 295.996 669.464C303.437 657.427 308.384 645.562 311.32 634.148C306.707 636.168 302.072 638.167 297.372 639.984C287.823 643.659 282.167 628.817 291.727 625.131C299.405 622.175 306.879 618.725 314.439 615.468C316.557 587.46 306.857 563.708 293.512 549.5C290.63 554.186 287.178 558.496 283.425 562.161C280.36 565.159 275.865 566.266 272.241 563.354C269.208 560.903 267.961 555.196 271.047 552.176C274.703 548.608 278.241 544.277 280.973 539.559C262.939 529.649 243.066 536.248 236.194 568.964C161.015 574.843 146.884 600.465 162.284 624.819C170.36 623.937 178.178 622.132 185.888 619.273C195.481 615.726 201.148 630.569 191.534 634.126L191.523 634.137ZM276.489 585.214C276.8 583.376 277.876 581.646 279.5 580.722C284.253 578.024 287.307 582.065 287.791 586.332C288.027 588.363 287.64 590.534 286.371 592.136C285.113 593.748 282.887 594.661 280.93 594.049C279.317 593.543 278.134 592.135 277.392 590.62C276.575 588.943 276.177 587.03 276.489 585.203V585.214ZM240.259 637.899C241.13 633.309 248.281 634.631 251.293 636.19C253.841 637.512 255.734 640.413 255.142 643.229C254.519 646.206 251.206 648.13 248.185 647.765C245.163 647.41 242.593 645.185 241.184 642.499C240.442 641.091 239.958 639.468 240.259 637.899Z" fill="#FFA93D"/>
<path d="M168.962 623.873C167.403 659.286 170.597 693.861 170.597 693.861" stroke="#014B5B" stroke-width="1.43" stroke-linecap="round" stroke-linejoin="round"/>
<path d="M261.66 609.74C234.076 548.328 196.234 535.85 181.834 559.979C178.06 566.309 175.285 574.875 173.296 584.633" stroke="#014B5B" stroke-width="1.43" stroke-linecap="round" stroke-linejoin="round"/>
<path d="M256.562 600.057C245.518 598.348 234.184 598.584 223.226 600.766" stroke="#014B5B" stroke-width="1.43" stroke-linecap="round" stroke-linejoin="round"/>
<path d="M248.98 585.838C249.755 575.681 252.949 565.718 258.218 557.013" stroke="#014B5B" stroke-width="1.43" stroke-linecap="round" stroke-linejoin="round"/>
<path d="M153.402 549.651C162.779 549.576 171.876 548.34 180.856 546.007C187.416 513.754 161.929 492.119 79.2544 516.312C58.6395 484.155 34.7446 485.155 19.4958 503.05C24.3242 506.983 29.8516 510.175 35.207 512.507C39.7236 514.474 40.7129 521.084 38.4654 524.921C35.7877 529.499 30.5291 530.133 26.0448 528.177C20.5496 525.791 15.119 522.578 10.14 518.741C1.64455 539.322 0.924048 568.62 14.5491 597.671C23.9371 598.079 33.3144 598.735 42.7131 598.778C54.4132 598.842 54.4025 616.995 42.7131 616.931C36.9491 616.898 31.1959 616.64 25.4534 616.35C33.2176 627.345 43.3153 638.017 56.1446 647.851C86.4594 645.1 116.409 628.817 139.475 608.204C136.97 607.451 134.453 606.71 131.905 606.129C127.109 605.022 124.302 599.541 125.56 594.963C126.894 590.094 131.959 587.525 136.733 588.621C142.616 589.976 148.283 592.093 154.144 593.512C162.08 584.537 168.64 575.209 173.371 566.116C166.768 567.18 160.09 567.739 153.391 567.793C141.68 567.889 141.712 549.737 153.391 549.64L153.402 549.651ZM44.0466 556.142C43.8638 558.066 43.1755 560.044 41.6593 561.237C39.8204 562.677 37.0674 562.602 35.078 561.387C33.0778 560.183 31.7873 558.023 31.2066 555.755C29.9914 551.005 31.6045 545.449 37.7772 546.405C39.8849 546.728 41.7345 548.146 42.8099 549.984C43.8853 551.822 44.2402 554.025 44.0466 556.142ZM103.762 596.854C103.343 600.304 101.504 603.711 98.4176 605.323C95.342 606.925 91.019 606.215 89.1479 603.292C87.3735 600.53 88.223 596.661 90.406 594.221C92.9869 591.33 100.095 587.02 102.88 591.566C103.837 593.114 103.977 595.049 103.762 596.854Z" fill="#FFA93D"/>
<path d="M148.175 591.878C154.584 648.582 156.724 693.861 156.724 693.861" stroke="#014B5B" stroke-width="1.43" stroke-linecap="round" stroke-linejoin="round"/>
<path d="M68.3389 564.096C77.8022 482.876 116.15 455.803 133.98 506.048" stroke="#014B5B" stroke-width="1.43" stroke-linecap="round" stroke-linejoin="round"/>
<path d="M70.1025 551.822C83.8351 546.362 99.0516 544.685 113.644 547.028" stroke="#014B5B" stroke-width="1.43" stroke-linecap="round" stroke-linejoin="round"/>
<path d="M73.4044 534.605C68.5544 524.319 60.93 515.356 51.542 508.929" stroke="#014B5B" stroke-width="1.43" stroke-linecap="round" stroke-linejoin="round"/>
<path d="M111.548 679.46C150.229 674.355 214.795 677.257 214.795 677.257L205.568 714.895C178.705 722.407 125.248 717.313 125.248 717.313L111.548 679.46Z" fill="#014B5B"/>
<path d="M877.71 503.523L887.851 497.15C887.023 495.656 886.152 494.173 885.238 492.711L869.602 502.738L880.205 485.51C871.161 473.849 858.676 463.832 842.276 457.513L810.521 465.004C810.779 475.504 812.413 490.54 818.381 505.791L837.975 501.169L820.651 511.132C827.157 525.276 837.684 539.162 854.6 549.329L864.375 538.012L861.246 552.951C870.785 557.669 882.087 561.302 895.486 563.354C901.755 547.373 900.68 522.783 889.668 500.61L877.71 503.512V503.523Z" fill="#24707B"/>
<path d="M837.534 468.325C904.111 531.65 910.036 632.687 910.036 632.687" stroke="#014B5B" stroke-width="1.43" stroke-linecap="round" stroke-linejoin="round"/>
<path d="M967.826 522.482L979.569 524.964C979.795 522.6 979.935 520.257 979.988 517.935L963.707 513.948L979.967 511.433C979.289 491.701 973.45 474.891 969.783 466.164L955.868 465.498C923.8 484.424 910.358 512.701 908.186 539.344L930.177 541.386L907.863 546.868C907.777 569.115 915.272 589.45 925.876 601.154C961.374 581.142 975.171 554.81 978.892 530.295L967.815 522.46L967.826 522.482Z" fill="#24707B"/>
<path d="M925.026 632.687C919.101 571.372 953.266 481.104 953.266 481.104" stroke="#014B5B" stroke-width="1.43" stroke-linecap="round" stroke-linejoin="round"/>
<path d="M949.825 628.409L948.685 639.877L948.179 645.025L947.523 651.57L947.018 656.665L941.394 713.584C918.908 718.807 898.002 713.584 898.002 713.584L891.195 662.608L890.496 657.385L888.69 643.961L888.012 638.878L886.754 629.452C915.52 620.306 949.814 628.399 949.814 628.399L949.825 628.409Z" fill="#FFA93D"/>
<path d="M948.684 639.888L948.179 645.036C945.566 644.348 942.942 643.757 940.296 643.241C923.284 639.942 905.605 640.211 888.7 643.983L888.022 638.899C892.087 638.018 896.195 637.32 900.336 636.825C916.445 634.837 932.952 635.901 948.684 639.899V639.888Z" fill="white"/>
<path d="M947.534 651.581L947.029 656.675C943.362 656.503 939.695 656.353 936.028 656.278C920.918 655.977 905.283 657.041 891.195 662.619L890.496 657.395C891.238 657.105 891.969 656.847 892.722 656.589C910.315 650.485 929.113 650.7 947.523 651.57L947.534 651.581Z" fill="white"/>
</g>
<defs>
<filter id="filter0_d_46_3231" x="0" y="0" width="984" height="727" filterUnits="userSpaceOnUse" color-interpolation-filters="sRGB">
<feFlood flood-opacity="0" result="BackgroundImageFix"/>
<feColorMatrix in="SourceAlpha" type="matrix" values="0 0 0 0 0 0 0 0 0 0 0 0 0 0 0 0 0 0 127 0" result="hardAlpha"/>
<feOffset dy="4"/>
<feGaussianBlur stdDeviation="2"/>
<feComposite in2="hardAlpha" operator="out"/>
<feColorMatrix type="matrix" values="0 0 0 0 0 0 0 0 0 0 0 0 0 0 0 0 0 0 0.25 0"/>
<feBlend mode="normal" in2="BackgroundImageFix" result="effect1_dropShadow_46_3231"/>
<feBlend mode="normal" in="SourceGraphic" in2="effect1_dropShadow_46_3231" result="shape"/>
</filter>
<clipPath id="clip0_46_3231">
<rect width="976" height="719" fill="white" transform="translate(4)"/>
</clipPath>
</defs>
</svg>
